<svg width="57" height="21" viewBox="0 0 57 21" fill="none" xmlns="http://www.w3.org/2000/svg">
<path d="M51.4828 0L57 8.24112L49.9303 5.96935L41.2261 7.33421L51.4828 0Z" fill="url(#paint0_linear_967_5053)"/>
<path d="M50.3458 2.4257C49.872 2.40141 49.2499 3.0215 48.6224 4.03458C48.4795 4.28597 48.3102 4.56706 48.1629 4.8648C47.998 5.16165 47.8449 5.47979 47.6787 5.81278C47.3564 6.47411 47.0312 7.20773 46.69 7.96641C46.5121 8.3402 46.1739 9.15078 45.5261 10.2352C45.2036 10.7724 44.8052 11.3884 44.2972 12.0454C43.7921 12.6922 43.1599 13.379 42.3887 14.0846C41.6103 14.7847 40.6958 15.4933 39.6147 16.1623C39.0741 16.4968 38.4911 16.8239 37.8715 17.1233C37.7151 17.2033 37.5514 17.2777 37.3878 17.3521C37.2241 17.4265 37.0707 17.4962 36.907 17.5706C36.5826 17.7092 36.2406 17.8469 35.8913 17.9791C35.2029 18.2387 34.4677 18.4753 33.6989 18.6739C32.9402 18.8679 32.145 19.0341 31.3263 19.1577C29.6861 19.4151 27.9506 19.5383 26.2238 19.5688C25.7939 19.5778 25.3567 19.5813 24.9224 19.5745C24.4677 19.5771 24.0436 19.5657 23.6093 19.559C22.7437 19.5353 21.8912 19.4968 21.0445 19.4379C19.3687 19.3209 17.7278 19.1436 16.1689 18.9292C13.0407 18.5049 10.2398 17.9319 7.88207 17.3971C5.50678 16.8614 3.59212 16.3648 2.22601 16.036C0.870124 15.7026 0.0730085 15.5324 0.00289744 15.5909C-0.0496661 15.6503 0.614548 15.9431 1.86531 16.3953C3.11606 16.8475 4.94313 17.4637 7.2484 18.1201C9.55366 18.7764 12.3371 19.4727 15.5181 20.0239C18.6991 20.575 22.2805 20.9708 26.0399 20.9927C27.9232 21.0065 29.8605 20.9247 31.7874 20.6612C32.7567 20.5402 33.7054 20.3663 34.6307 20.1498C35.556 19.9334 36.4403 19.6734 37.288 19.3857C37.7133 19.2367 38.1138 19.0813 38.5142 18.9259C38.7159 18.8431 38.9073 18.765 39.1017 18.6766C39.2858 18.5929 39.4875 18.5101 39.6643 18.4209C40.4038 18.0759 41.1037 17.7133 41.7437 17.3425C43.0338 16.5963 44.1251 15.7984 45.0423 15.0175C45.9596 14.2366 46.7058 13.4625 47.3117 12.7432C47.9103 12.0185 48.3759 11.3541 48.7582 10.7631C49.4951 9.58492 49.9005 8.72605 50.0872 8.32166C50.4502 7.51753 50.6891 6.74326 50.8446 6.04233C50.9261 5.69465 50.9768 5.36091 51.0144 5.04202C51.0491 4.73333 51.0707 4.43949 51.066 4.17536C51.0748 3.11505 50.8196 2.44998 50.3458 2.4257Z" fill="url(#paint1_linear_967_5053)"/>
<path d="M0.0130399 15.5861C-0.0234713 15.6205 0.121393 15.7055 0.437408 15.8459C0.753422 15.9863 1.25081 16.1774 1.85499 16.3998C2.57326 16.6591 3.35149 16.9267 4.15018 17.185C5.14489 17.505 6.185 17.8224 7.2484 18.1201C8.56486 18.498 9.80806 18.8204 11.0601 19.1122C11.7768 19.2835 12.5066 19.4399 13.2116 19.5899C13.9765 19.7481 14.7619 19.897 15.5253 20.0293C17.2043 20.3224 18.911 20.5496 20.565 20.712C21.476 20.7949 22.3827 20.862 23.2674 20.9126C24.1974 20.9602 25.1405 20.9931 26.0471 20.9981C27.0414 21.0077 28.0021 20.9793 28.9056 20.9325C29.9101 20.8754 30.878 20.7904 31.7946 20.6667C32.7463 20.5447 33.7053 20.3662 34.6408 20.1451C35.5179 19.9416 36.4022 19.6817 37.2908 19.3754C37.7337 19.2273 38.162 19.0683 38.5142 18.9259C38.5654 18.9027 38.6062 18.884 38.6647 18.8663C38.8079 18.8012 38.9585 18.7417 39.1017 18.6766C39.1631 18.6487 39.2141 18.6254 39.2755 18.5975C39.3983 18.5417 39.5387 18.4869 39.6643 18.4209C40.3731 18.0898 41.0832 17.7226 41.7437 17.3425C42.3705 16.9866 42.9709 16.5981 43.5392 16.1977C44.0636 15.8262 44.569 15.4278 45.0496 15.023C45.8865 14.3052 46.6576 13.5375 47.3189 12.7487C47.8255 12.1278 48.3029 11.4848 48.7655 10.7686C49.4805 9.63581 49.8757 8.78158 50.0725 8.37255L50.0944 8.3271C50.4225 7.58327 50.6861 6.81545 50.8621 6.04312C50.9479 5.64909 51.0073 5.28475 51.0319 5.04281C51.0709 4.68778 51.0866 4.41434 51.0834 4.17615C51.0787 3.91201 51.0682 3.66827 51.0386 3.45978C51.0018 3.24574 50.9562 3.0623 50.8917 2.9141C50.8272 2.76591 50.7466 2.64277 50.6617 2.56597C50.5695 2.48363 50.4583 2.43653 50.353 2.43114C50.1176 2.41389 49.8385 2.54965 49.5508 2.84019C49.2587 3.11499 48.9493 3.51319 48.6224 4.03458C48.4444 4.34627 48.2986 4.60786 48.1629 4.8648C48.001 5.15145 47.8507 5.45927 47.7049 5.78296L47.6787 5.81278C47.3695 6.45926 47.0457 7.15663 46.7177 7.90045L46.69 7.96641C46.6682 8.01186 46.6331 8.07205 46.6127 8.14345C46.41 8.57288 46.0776 9.30107 45.5261 10.2352C45.1234 10.8976 44.7234 11.4876 44.2898 12.0397C43.7395 12.7515 43.0971 13.4431 42.3887 14.0846C41.5401 14.8432 40.6008 15.5453 39.6147 16.1623C39.0536 16.5061 38.4705 16.8331 37.8612 17.1279C37.7662 17.1799 37.6537 17.2311 37.5514 17.2776C37.5002 17.3008 37.4389 17.3288 37.3878 17.3521C37.2752 17.4032 37.1626 17.4543 37.0501 17.5054C36.999 17.5287 36.9478 17.5519 36.8967 17.5752C36.5825 17.7091 36.2303 17.8515 35.881 17.9836C35.1546 18.2517 34.4121 18.4827 33.6915 18.6682C32.9226 18.8669 32.1274 19.0332 31.3263 19.1577C30.5427 19.2831 29.6874 19.3789 28.8029 19.4525C27.9943 19.5094 27.1185 19.5525 26.2135 19.5734C25.6856 19.5825 25.2937 19.5831 24.9121 19.5791C24.548 19.5759 24.1766 19.5673 23.8227 19.5595C23.7525 19.5559 23.6898 19.5579 23.6093 19.559C22.789 19.5324 21.9364 19.4938 21.0546 19.4331C19.4563 19.3253 17.8127 19.1583 16.1689 18.9292C12.7935 18.4664 9.81411 17.8323 7.87467 17.3914C6.10929 16.9956 4.58666 16.6226 3.36533 16.3168C2.95725 16.2183 2.56681 16.1208 2.22601 16.036C1.48736 15.8481 0.976819 15.7339 0.633107 15.6593C0.271847 15.5839 0.0641873 15.5629 0.0130399 15.5861ZM39.5386 18.4868C39.4465 18.5286 39.3647 18.5658 39.2828 18.603C39.2215 18.6309 39.1703 18.6542 39.1089 18.6821C38.9657 18.7472 38.8152 18.8067 38.6647 18.8663C38.6135 18.8895 38.5727 18.9082 38.5142 18.9259C38.162 19.0683 37.7338 19.2274 37.288 19.3857C36.3994 19.692 35.5179 19.9416 34.6408 20.1451C33.7155 20.3615 32.7463 20.5447 31.7946 20.6667C30.0447 20.9029 28.1615 21.0134 26.0471 20.9981C22.6445 20.9738 19.1056 20.6475 15.5253 20.0293C12.8358 19.5654 10.1226 18.9348 7.23077 18.1191C6.18492 17.8222 5.13466 17.5097 4.15018 17.185C3.35149 16.9267 2.58358 16.6546 1.86531 16.3953C1.2509 16.1775 0.763652 15.9817 0.437408 15.8459C0.121393 15.7055 -0.0234713 15.6205 0.0130399 15.5861C0.0641873 15.5629 0.271847 15.5839 0.633107 15.6593C0.987049 15.7292 1.47704 15.8526 2.20837 16.035C2.54917 16.1198 2.93971 16.2174 3.34779 16.3159C4.56911 16.6217 6.09174 16.9947 7.85421 17.4007C9.25102 17.7155 10.5118 17.9768 11.7184 18.2094C13.2541 18.5054 14.7093 18.7404 16.1483 18.9384C17.8023 19.1629 19.4358 19.3346 21.0342 19.4424C21.9364 19.4938 22.7963 19.538 23.6093 19.559C23.6795 19.5626 23.7599 19.5614 23.8301 19.565C24.1839 19.5728 24.5553 19.5815 24.9121 19.5791C25.2937 19.5831 25.6856 19.5825 26.2135 19.5734C27.1258 19.558 27.9914 19.5196 28.8029 19.4525C29.6874 19.3789 30.5427 19.2831 31.3263 19.1577C32.1274 19.0332 32.9124 18.8716 33.6989 18.6739C34.4195 18.4883 35.1517 18.2619 35.881 17.9836C36.2478 17.8524 36.5825 17.7091 36.8967 17.5752C36.9478 17.5519 36.999 17.5287 37.0501 17.5054C37.1626 17.4543 37.2752 17.4032 37.3878 17.3521C37.4389 17.3288 37.5002 17.3008 37.5514 17.2776C37.6537 17.2311 37.7662 17.1799 37.8612 17.1279C38.453 16.8322 39.0536 16.5061 39.6147 16.1623C40.6184 15.5462 41.5475 14.8487 42.3887 14.0846C43.1073 13.4384 43.7396 12.7516 44.2972 12.0454C44.7235 11.4877 45.1336 10.893 45.5261 10.2352C46.0878 9.29642 46.41 8.57288 46.6127 8.14345C46.6404 8.0776 46.6682 8.01186 46.69 7.96641L46.7177 7.90045C47.053 7.16218 47.3593 6.46391 47.6787 5.81278L47.6873 5.78207C47.8507 5.45928 48.0009 5.15133 48.1453 4.86379C48.2985 4.60775 48.4371 4.34072 48.6224 4.03458C48.9493 3.51319 49.2587 3.11499 49.5508 2.84019C49.856 2.55055 50.1147 2.42409 50.353 2.43114C50.4759 2.43743 50.5695 2.48363 50.6617 2.56597C50.7539 2.64832 50.8301 2.75571 50.8917 2.9141C50.9562 3.0623 51.0018 3.24574 51.0284 3.46443C51.0579 3.67292 51.0788 3.91212 51.066 4.17536C51.0692 4.41355 51.0636 4.68223 51.0319 5.04281C51 5.2792 50.9304 5.6483 50.8446 6.04233C50.6687 6.81466 50.4225 7.58327 50.0769 8.3262L50.055 8.37165C49.8757 8.78159 49.4732 9.63026 48.7655 10.7686C48.3029 11.4848 47.8256 12.128 47.3117 12.7432C46.6577 13.5376 45.8865 14.3052 45.0496 15.023C44.0491 15.8772 42.9359 16.6584 41.7509 17.3479C41.0905 17.728 40.3803 18.0952 39.6716 18.4263C39.6306 18.4449 39.5897 18.4635 39.5386 18.4868Z" fill="url(#paint2_linear_967_5053)"/>
<defs>
<linearGradient id="paint0_linear_967_5053" x1="57" y1="21" x2="26.0574" y2="-52.1482" gradientUnits="userSpaceOnUse">
<stop stop-color="#6F69F2"/>
<stop offset="0.813974" stop-color="#00B9FF"/>
</linearGradient>
<linearGradient id="paint1_linear_967_5053" x1="57" y1="21" x2="26.0574" y2="-52.1482" gradientUnits="userSpaceOnUse">
<stop stop-color="#6F69F2"/>
<stop offset="0.813974" stop-color="#00B9FF"/>
</linearGradient>
<linearGradient id="paint2_linear_967_5053" x1="57" y1="21" x2="26.0574" y2="-52.1482" gradientUnits="userSpaceOnUse">
<stop stop-color="#6F69F2"/>
<stop offset="0.813974" stop-color="#00B9FF"/>
</linearGradient>
</defs>
</svg>
