<svg width="128" height="22" viewBox="0 0 128 22" fill="none" xmlns="http://www.w3.org/2000/svg">
<path d="M118.405 19.2594C113.272 19.2594 109.115 18.8705 109.115 18.3736C109.115 17.8767 113.272 17.4878 118.405 17.4878C123.538 17.4878 127.695 17.8767 127.695 18.3736C127.695 18.8705 123.538 19.2594 118.405 19.2594Z" fill="#E8E8E3"/>
<path d="M125.488 17.1636C123.325 19.4105 119.571 19.1513 119.571 19.1513C119.571 19.1513 119.338 15.284 121.501 13.0371C123.664 10.7901 127.419 11.0494 127.419 11.0494C127.419 11.0494 127.652 14.9167 125.488 17.1636ZM111.299 17.1636C113.462 19.4105 117.216 19.1513 117.216 19.1513C117.216 19.1513 117.45 15.284 115.286 13.0371C113.123 10.7901 109.369 11.0494 109.369 11.0494C109.369 11.0494 109.135 14.9167 111.299 17.1636ZM113.611 7.91666V6.49072H123.113V7.91666C123.113 10.5309 120.971 12.6482 118.362 12.6482V11.7408C120.504 11.7408 122.222 10.0123 122.243 7.91666V7.39814H114.502V7.91666C114.502 10.0123 116.22 11.7408 118.383 11.7408V12.6482C115.753 12.6482 113.611 10.5525 113.611 7.91666Z" fill="#7BB546"/>
<path d="M117.535 19.1296H119.338V9.42896H117.535V19.1296Z" fill="#7BB546"/>
<path d="M121.458 3.747C121.458 2.0402 120.058 0.657471 118.34 0.657471C116.622 0.657471 115.222 2.0402 115.222 3.747C115.222 5.23775 115.222 4.56799 115.222 4.87046H121.458V3.747ZM115.158 7.76553C115.158 9.47233 116.558 10.8767 118.276 10.8767C119.994 10.8767 121.394 9.49394 121.394 7.76553C121.394 6.27479 121.394 5.82108 121.394 5.51861H115.179V7.76553" fill="#647E62"/>
<path d="M29.9583 9.38561H25.3345V7.22511H33.7125L28.6433 15.7591H33.5853V17.9196H24.8891L29.9583 9.38561ZM39.4605 9.38561H34.8367V7.22511H43.2148L38.1455 15.7591H43.0875V17.9196H34.3913L39.4605 9.38561ZM87.311 7.20351H89.5592V13.2313C89.5592 14.8085 90.6834 15.9536 92.0833 15.9536C93.4831 15.9536 94.6073 14.8085 94.6073 13.2313V7.20351H96.8344V13.4258C96.8344 16.4505 94.5437 18.2653 92.0833 18.2653C89.6017 18.2653 87.3322 16.4721 87.3322 13.4258V7.20351M98.7433 7.13869H100.016V4.28682L102.243 3.63867V7.13869H104.025V9.3208H102.243V13.577C102.243 14.7437 102.498 15.2622 103.155 15.6727L104.364 16.3857L103.367 18.2005C101.076 17.077 99.9947 16.2344 99.9947 14.0091V9.3208H98.7221V7.13869M79.5904 16.0184C81.5418 16.0184 82.9628 14.4628 82.9628 12.54C82.9628 10.6171 81.5418 9.06154 79.5904 9.06154C77.6391 9.06154 76.218 10.6171 76.218 12.54C76.218 14.4628 77.6179 16.0184 79.5904 16.0184ZM79.5904 6.85782C83.2386 6.85782 85.3384 9.68808 85.3384 12.5183C85.3384 15.3702 83.2386 18.1789 79.5904 18.1789C75.9422 18.1789 73.8424 15.3486 73.8424 12.5183C73.8424 9.68808 75.9422 6.85782 79.5904 6.85782ZM5.92706 9.01833C4.06055 9.01833 2.68188 10.5091 2.68188 12.4967C2.68188 14.4844 4.06055 15.9752 5.92706 15.9752C7.79357 15.9752 9.17223 14.4844 9.17223 12.4967C9.17223 10.5091 7.79357 9.01833 5.92706 9.01833ZM0.433594 3.91954H2.66067V8.43499H2.7031C3.23335 7.54918 4.63323 6.83622 6.09674 6.83622C8.81166 6.83622 11.5266 8.91031 11.5266 12.4967C11.5266 16.0832 8.81166 18.1573 6.09674 18.1573C4.63323 18.1573 3.23335 17.4443 2.7031 16.5585H2.66067V17.8764H0.433594V3.91954ZM13.584 7.20351H15.8111V13.2313C15.8111 14.8085 16.9352 15.9536 18.3351 15.9536C19.735 15.9536 20.8591 14.8085 20.8591 13.2313V7.20351H23.1074V13.4258C23.1074 16.4505 20.8167 18.2653 18.3563 18.2653C15.8747 18.2653 13.6052 16.4721 13.6052 13.4258V7.20351M45.5903 14.7653C46.3963 15.6511 47.6901 16.3424 48.8567 16.3424C50.1505 16.3424 50.9141 15.5863 50.9141 14.9813C50.9141 14.2684 50.3838 13.9011 49.5566 13.7282L48.284 13.4906C45.357 12.9288 44.551 11.9566 44.551 10.4227C44.551 8.60783 46.0357 6.92264 48.6446 6.92264C50.0869 6.92264 51.3595 7.37634 52.7806 8.41338L51.508 10.0338C50.405 9.08314 49.4506 8.84549 48.7082 8.84549C47.7325 8.84549 46.7993 9.34241 46.7993 10.2066C46.7993 10.8548 47.2871 11.1788 48.1567 11.3301L50.405 11.7838C52.2503 12.1295 53.1624 13.0585 53.1624 14.6573C53.1624 16.2344 51.911 18.2653 48.7506 18.2653C46.9902 18.2653 45.4843 17.6171 44.0632 16.3857L45.5903 14.7653ZM60.4375 9.10475C58.6771 9.10475 57.1711 10.6603 57.1711 12.5832C57.1711 14.506 58.6771 16.0616 60.4375 16.0616C62.2404 16.0616 63.7463 14.506 63.7463 12.5832C63.7463 10.6603 62.2404 9.10475 60.4375 9.10475ZM57.256 8.52141H57.2984C58.1044 7.50597 59.2922 6.92264 60.7132 6.92264C64.1281 6.92264 66.1219 9.81772 66.1219 12.5832C66.1219 15.219 64.0008 18.2437 60.6072 18.2437C59.0588 18.2437 57.8711 17.5523 57.2984 16.6449H57.256V21.6573H55.0289V7.20351H57.256V8.52141ZM68.2217 7.13869H70.3427V8.32697H70.3851C70.7457 7.44116 71.5305 6.85782 72.4425 6.85782C72.9304 6.85782 73.3758 6.98746 73.6727 7.1819L72.8667 9.47204C72.6546 9.2992 72.2304 9.16956 72.0183 9.16956C71.1911 9.16956 70.47 9.81771 70.47 10.7899V17.9196H68.2217V7.13869ZM79.5904 16.0184C81.5418 16.0184 82.9628 14.4628 82.9628 12.54C82.9628 10.6171 81.5418 9.06154 79.5904 9.06154C77.6391 9.06154 76.218 10.6171 76.218 12.54C76.218 14.4628 77.6179 16.0184 79.5904 16.0184ZM79.5904 6.85782C83.2386 6.85782 85.3384 9.68808 85.3384 12.5183C85.3384 15.3702 83.2386 18.1789 79.5904 18.1789C75.9422 18.1789 73.8424 15.3486 73.8424 12.5183C73.8424 9.68808 75.9422 6.85782 79.5904 6.85782Z" fill="#4D4E4C"/>
</svg>
