<svg width="546" height="503" viewBox="0 0 546 503" fill="none" xmlns="http://www.w3.org/2000/svg">
<path opacity="0.05" d="M532.435 205.977C539.4 345.054 404.939 483.171 269.35 489.962C133.761 496.752 18.1982 389.514 11.2329 250.437C4.26763 111.361 46.3039 17.0641 182.072 17.4194C271.743 17.6538 525.469 66.9011 532.435 205.977Z" fill="url(#paint0_linear_4003_116)"/>
<path d="M124.69 251.213C122.799 286.928 132.634 322.283 152.698 351.89C172.762 381.497 201.955 403.734 235.828 415.212C269.702 426.691 306.399 426.781 340.328 415.47C374.258 404.158 403.559 382.066 423.769 352.558C443.978 323.05 453.988 287.744 452.272 252.02C450.556 216.296 437.209 182.112 414.265 154.677C391.32 127.241 360.036 108.058 325.179 100.051C290.322 92.0433 253.802 95.6502 221.185 110.322L259.86 196.302C273.726 190.065 289.252 188.532 304.071 191.936C318.89 195.34 332.19 203.495 341.944 215.159C351.699 226.823 357.373 241.355 358.102 256.543C358.832 271.73 354.576 286.74 345.985 299.285C337.393 311.829 324.936 321.222 310.511 326.03C296.087 330.839 280.486 330.801 266.085 325.921C251.684 321.041 239.274 311.588 230.744 299.001C222.214 286.414 218.033 271.384 218.837 256.2L124.69 251.213Z" fill="url(#paint1_linear_4003_116)"/>
<circle cx="288.461" cy="261.744" r="74" fill="#EEF4FF"/>
<path d="M221.459 110.244C193.984 123.305 167.271 147.137 150.75 172.681C134.229 198.226 125.102 226.329 124.459 256.744L218.959 265.744C219.236 252.627 221.945 234.351 229.07 223.334C236.195 212.318 248.11 201.877 259.959 196.244L221.459 110.244Z" fill="#EEF4FF"/>
<path d="M278.491 377.2C275.391 377.2 273.551 375.72 273.231 373.14H276.251C276.451 374.12 277.031 374.74 278.391 374.74C280.291 374.74 281.231 373.24 281.291 370.32C280.631 371.36 279.591 372.06 277.871 372.06C275.111 372.06 273.091 370.34 273.091 367.44C273.091 364.48 275.211 362.48 278.631 362.48C282.571 362.48 284.471 365.14 284.471 369.26V369.9C284.471 374.58 282.331 377.2 278.491 377.2ZM278.591 369.9C280.051 369.9 281.031 368.9 281.031 367.5C281.031 365.84 280.051 364.82 278.591 364.82C277.171 364.82 276.231 365.86 276.231 367.36C276.231 368.86 277.151 369.9 278.591 369.9ZM292.644 377V374.16H285.624V372.98L291.804 362.7H295.784V371.84H297.664V374.16H295.784V377H292.644ZM288.864 371.84H292.704V365.14L288.864 371.84ZM300.953 377.18C299.953 377.18 299.173 376.4 299.173 375.42C299.173 374.46 299.953 373.68 300.953 373.68C301.973 373.68 302.753 374.46 302.753 375.42C302.753 376.4 301.973 377.18 300.953 377.18ZM309.645 377.22C306.005 377.22 304.145 375.36 304.025 372.46H306.945C307.065 373.84 307.805 374.84 309.525 374.84C311.145 374.84 311.905 374.06 311.905 372.78C311.905 371.42 311.145 370.72 309.605 370.72H308.485V368.56H309.525C311.025 368.56 311.705 367.88 311.705 366.66C311.705 365.64 311.045 364.88 309.725 364.88C308.365 364.88 307.525 365.7 307.365 367.04H304.505C304.665 364.42 306.525 362.5 309.785 362.5C312.925 362.5 314.765 364.14 314.765 366.38C314.765 367.98 313.825 368.98 312.405 369.48C314.065 369.84 315.185 371.02 315.185 372.84C315.185 375.52 313.125 377.22 309.645 377.22ZM319.425 377V365.9L316.525 367.8V365.04L319.825 362.7H322.665V377H319.425ZM328.678 367.78C329.538 367.78 330.038 367.14 330.038 366.04C330.038 364.98 329.538 364.32 328.678 364.32C327.818 364.32 327.278 364.96 327.278 366.04C327.278 367.18 327.818 367.78 328.678 367.78ZM328.658 369.58C326.538 369.58 325.058 368.08 325.058 366.06C325.058 364.06 326.658 362.56 328.678 362.56C330.678 362.56 332.258 364 332.258 366.02C332.258 368.06 330.758 369.58 328.658 369.58ZM326.978 377L336.478 362.7H338.278L328.778 377H326.978ZM336.558 375.4C337.438 375.4 337.938 374.76 337.938 373.68C337.938 372.6 337.438 371.96 336.558 371.96C335.718 371.96 335.178 372.58 335.178 373.68C335.178 374.8 335.718 375.4 336.558 375.4ZM336.558 377.22C334.438 377.22 332.958 375.7 332.958 373.7C332.958 371.68 334.558 370.18 336.558 370.18C338.578 370.18 340.158 371.62 340.158 373.64C340.158 375.68 338.658 377.22 336.558 377.22Z" fill="white"/>
<path d="M200.628 89.157C168.914 101.383 141.579 122.809 122.131 150.683C102.682 178.557 92.0086 211.607 91.4799 245.591L215 256.023C215.15 246.412 214.881 232.587 222.415 220.653C230.12 208.448 243.031 201.958 252 198.5L200.628 89.157Z" fill="#00B9FF"/>
<path d="M150.202 188.22C146.682 188.22 145.042 186.3 144.902 183.74H147.882C148.062 184.94 148.542 185.74 150.182 185.74C151.642 185.74 152.422 184.72 152.422 183.2C152.422 181.66 151.542 180.7 150.102 180.7C148.762 180.7 147.942 181.18 147.362 181.84H145.562L145.762 173.7H154.822V176.16H148.182L148.122 179.74C148.682 179.06 149.682 178.42 151.302 178.42C153.902 178.42 155.682 180.2 155.682 183.24C155.682 186.28 153.502 188.22 150.202 188.22ZM158.783 188.18C157.783 188.18 157.003 187.4 157.003 186.42C157.003 185.46 157.783 184.68 158.783 184.68C159.803 184.68 160.583 185.46 160.583 186.42C160.583 187.4 159.803 188.18 158.783 188.18ZM167.507 188.22C163.187 188.22 161.627 185.3 161.627 181.4V181.04C161.627 176.2 164.247 173.5 167.747 173.5C170.587 173.5 172.387 174.84 172.707 177.46H169.707C169.507 176.52 169.027 175.94 167.787 175.94C166.007 175.94 164.907 177.5 164.827 180.44C165.487 179.38 166.567 178.66 168.287 178.66C170.987 178.66 173.007 180.42 173.007 183.3C173.007 186.24 170.907 188.22 167.507 188.22ZM167.467 185.88C168.887 185.88 169.827 184.84 169.827 183.34C169.827 181.84 168.927 180.8 167.467 180.8C166.027 180.8 165.027 181.82 165.027 183.24C165.027 184.88 166.027 185.88 167.467 185.88ZM179.817 188.2C176.717 188.2 174.877 186.72 174.557 184.14H177.577C177.777 185.12 178.357 185.74 179.717 185.74C181.617 185.74 182.557 184.24 182.617 181.32C181.957 182.36 180.917 183.06 179.197 183.06C176.437 183.06 174.417 181.34 174.417 178.44C174.417 175.48 176.537 173.48 179.957 173.48C183.897 173.48 185.797 176.14 185.797 180.26V180.9C185.797 185.58 183.657 188.2 179.817 188.2ZM179.917 180.9C181.377 180.9 182.357 179.9 182.357 178.5C182.357 176.84 181.377 175.82 179.917 175.82C178.497 175.82 177.557 176.86 177.557 178.36C177.557 179.86 178.477 180.9 179.917 180.9ZM190.707 178.78C191.567 178.78 192.067 178.14 192.067 177.04C192.067 175.98 191.567 175.32 190.707 175.32C189.847 175.32 189.307 175.96 189.307 177.04C189.307 178.18 189.847 178.78 190.707 178.78ZM190.687 180.58C188.567 180.58 187.087 179.08 187.087 177.06C187.087 175.06 188.687 173.56 190.707 173.56C192.707 173.56 194.287 175 194.287 177.02C194.287 179.06 192.787 180.58 190.687 180.58ZM189.007 188L198.507 173.7H200.307L190.807 188H189.007ZM198.587 186.4C199.467 186.4 199.967 185.76 199.967 184.68C199.967 183.6 199.467 182.96 198.587 182.96C197.747 182.96 197.207 183.58 197.207 184.68C197.207 185.8 197.747 186.4 198.587 186.4ZM198.587 188.22C196.467 188.22 194.987 186.7 194.987 184.7C194.987 182.68 196.587 181.18 198.587 181.18C200.607 181.18 202.187 182.62 202.187 184.64C202.187 186.68 200.687 188.22 198.587 188.22Z" fill="white"/>
<path d="M210.833 45.0001C210.833 46.4729 212.027 47.6668 213.5 47.6668C214.973 47.6668 216.167 46.4729 216.167 45.0001C216.167 43.5274 214.973 42.3335 213.5 42.3335C212.027 42.3335 210.833 43.5274 210.833 45.0001ZM186.5 96.0001V69.9092H185.5V96.0001H186.5ZM187.014 68.7791L213.829 45.3768L213.171 44.6234L186.356 68.0257L187.014 68.7791ZM186.5 69.9092C186.5 69.476 186.687 69.0639 187.014 68.7791L186.356 68.0257C185.812 68.5004 185.5 69.1872 185.5 69.9092H186.5Z" fill="#00B9FF"/>
<path d="M315.667 475C315.667 473.527 314.473 472.333 313 472.333C311.527 472.333 310.333 473.527 310.333 475C310.333 476.473 311.527 477.667 313 477.667C314.473 477.667 315.667 476.473 315.667 475ZM340 414V459.774H341V414H340ZM339.181 461.111L312.773 474.555L313.227 475.446L339.634 462.002L339.181 461.111ZM340 459.774C340 460.338 339.683 460.855 339.181 461.111L339.634 462.002C340.472 461.575 341 460.714 341 459.774H340Z" fill="url(#paint2_linear_4003_116)"/>
<path d="M224.612 50.0001V38.5601H226.004V48.8641H231.236V50.0001H224.612ZM233.11 50.0001V41.6321H234.438V50.0001H233.11ZM233.75 39.8881C233.27 39.8881 232.87 39.4881 232.87 39.0081C232.87 38.5281 233.27 38.1281 233.75 38.1281C234.23 38.1281 234.63 38.5281 234.63 39.0081C234.63 39.4881 234.23 39.8881 233.75 39.8881ZM237.157 50.0001V37.6321H238.485V45.4881L241.957 41.6321H243.509L239.924 45.5201L243.812 50.0001H242.197L238.485 45.6641V50.0001H237.157ZM248.518 50.1441C246.15 50.1441 244.47 48.4801 244.47 45.9041V45.7761C244.47 43.2481 246.086 41.4881 248.39 41.4881C250.326 41.4881 252.15 42.6561 252.15 45.6481V46.0801H245.846C245.91 47.9841 246.822 49.0401 248.534 49.0401C249.83 49.0401 250.582 48.5601 250.758 47.5841H252.086C251.798 49.2641 250.406 50.1441 248.518 50.1441ZM245.894 45.0081H250.79C250.662 43.2801 249.766 42.5921 248.39 42.5921C247.03 42.5921 246.118 43.5201 245.894 45.0081ZM254.22 50.0001V37.6321H255.564V50.0001H254.22ZM258.314 50.0001V41.6321H259.642V50.0001H258.314ZM258.954 39.8881C258.474 39.8881 258.074 39.4881 258.074 39.0081C258.074 38.5281 258.474 38.1281 258.954 38.1281C259.434 38.1281 259.834 38.5281 259.834 39.0081C259.834 39.4881 259.434 39.8881 258.954 39.8881ZM262.36 50.0001V37.6321H263.688V42.9601C264.072 42.1761 265 41.4881 266.376 41.4881C268.104 41.4881 269.32 42.4321 269.32 44.8641V50.0001H267.992V44.7681C267.992 43.2961 267.368 42.6401 266.024 42.6401C264.792 42.6401 263.688 43.4241 263.688 44.9281V50.0001H262.36ZM275.41 49.0401C277.09 49.0401 278.146 47.7761 278.146 45.8881V45.7761C278.146 43.8401 277.074 42.5921 275.41 42.5921C273.73 42.5921 272.674 43.8401 272.674 45.7601V45.8881C272.674 47.7921 273.714 49.0401 275.41 49.0401ZM275.394 50.1441C273.01 50.1441 271.298 48.3361 271.298 45.8881V45.7601C271.298 43.2481 273.042 41.4881 275.41 41.4881C277.778 41.4881 279.522 43.2321 279.522 45.7441V45.8721C279.522 48.4001 277.778 50.1441 275.394 50.1441ZM285.066 49.0401C286.746 49.0401 287.802 47.7761 287.802 45.8881V45.7761C287.802 43.8401 286.73 42.5921 285.066 42.5921C283.386 42.5921 282.33 43.8401 282.33 45.7601V45.8881C282.33 47.7921 283.37 49.0401 285.066 49.0401ZM285.05 50.1441C282.666 50.1441 280.954 48.3361 280.954 45.8881V45.7601C280.954 43.2481 282.698 41.4881 285.066 41.4881C287.434 41.4881 289.178 43.2321 289.178 45.7441V45.8721C289.178 48.4001 287.434 50.1441 285.05 50.1441ZM294.387 50.1441C292.195 50.1441 290.611 48.5921 290.611 45.9841V45.8561C290.611 43.2961 292.211 41.4881 294.515 41.4881C295.907 41.4881 296.771 42.1601 297.251 42.9761V37.6321H298.579V50.0001H297.251V48.5601C296.771 49.3761 295.603 50.1441 294.387 50.1441ZM294.531 49.0401C296.083 49.0401 297.299 48.0161 297.299 45.8721V45.7441C297.299 43.6001 296.275 42.5921 294.643 42.5921C292.979 42.5921 291.987 43.7601 291.987 45.7921V45.9201C291.987 48.0321 293.123 49.0401 294.531 49.0401ZM308.988 49.0401C310.668 49.0401 311.724 47.7761 311.724 45.8881V45.7761C311.724 43.8401 310.652 42.5921 308.988 42.5921C307.308 42.5921 306.252 43.8401 306.252 45.7601V45.8881C306.252 47.7921 307.292 49.0401 308.988 49.0401ZM308.972 50.1441C306.588 50.1441 304.876 48.3361 304.876 45.8881V45.7601C304.876 43.2481 306.62 41.4881 308.988 41.4881C311.356 41.4881 313.1 43.2321 313.1 45.7441V45.8721C313.1 48.4001 311.356 50.1441 308.972 50.1441ZM315.445 50.0001V42.7521H314.245V41.6321H315.445V40.2721C315.445 38.5761 316.277 37.5841 317.941 37.5841C318.373 37.5841 318.597 37.6321 318.933 37.7441V38.8641C318.693 38.7681 318.357 38.6881 317.989 38.6881C317.125 38.6881 316.773 39.2801 316.773 40.1281V41.6321H318.821V42.7521H316.773V50.0001H315.445ZM328.714 50.1441C325.658 50.1441 324.554 48.4641 324.346 46.5121H325.69C325.866 47.8721 326.41 49.0241 328.714 49.0241C330.186 49.0241 331.322 48.1601 331.322 46.8641C331.322 45.5681 330.73 45.0241 328.554 44.6721C326.154 44.3041 324.73 43.5521 324.73 41.5201C324.73 39.7601 326.25 38.4161 328.41 38.4161C330.698 38.4161 332.122 39.5361 332.346 41.5681H331.098C330.826 40.1281 329.994 39.5361 328.41 39.5361C326.842 39.5361 326.026 40.3201 326.026 41.3921C326.026 42.5121 326.442 43.0881 328.778 43.4401C331.322 43.8401 332.666 44.6081 332.666 46.7681C332.666 48.6881 330.986 50.1441 328.714 50.1441ZM337.707 50.1441C336.043 50.1441 334.795 49.2321 334.795 46.9281V41.6321H336.123V46.8641C336.123 48.3361 336.747 48.9921 338.059 48.9921C339.243 48.9921 340.363 48.2081 340.363 46.7041V41.6321H341.691V50.0001H340.363V48.6721C339.979 49.4561 339.051 50.1441 337.707 50.1441ZM347.847 50.1441C345.511 50.1441 343.751 48.4961 343.751 45.9041V45.7761C343.751 43.2161 345.575 41.4881 347.815 41.4881C349.559 41.4881 351.191 42.2881 351.447 44.4161H350.135C349.927 43.0881 348.967 42.5921 347.815 42.5921C346.295 42.5921 345.127 43.8081 345.127 45.7761V45.9041C345.127 47.9521 346.247 49.0401 347.863 49.0401C349.047 49.0401 350.119 48.3521 350.263 46.9921H351.495C351.319 48.8001 349.863 50.1441 347.847 50.1441ZM356.972 50.1441C354.636 50.1441 352.876 48.4961 352.876 45.9041V45.7761C352.876 43.2161 354.7 41.4881 356.94 41.4881C358.684 41.4881 360.316 42.2881 360.572 44.4161H359.26C359.052 43.0881 358.092 42.5921 356.94 42.5921C355.42 42.5921 354.252 43.8081 354.252 45.7761V45.9041C354.252 47.9521 355.372 49.0401 356.988 49.0401C358.172 49.0401 359.244 48.3521 359.388 46.9921H360.62C360.444 48.8001 358.988 50.1441 356.972 50.1441ZM366.049 50.1441C363.681 50.1441 362.001 48.4801 362.001 45.9041V45.7761C362.001 43.2481 363.617 41.4881 365.921 41.4881C367.857 41.4881 369.681 42.6561 369.681 45.6481V46.0801H363.377C363.441 47.9841 364.353 49.0401 366.065 49.0401C367.361 49.0401 368.113 48.5601 368.289 47.5841H369.617C369.329 49.2641 367.937 50.1441 366.049 50.1441ZM363.425 45.0081H368.321C368.193 43.2801 367.297 42.5921 365.921 42.5921C364.561 42.5921 363.649 43.5201 363.425 45.0081ZM374.389 50.1441C372.389 50.1441 371.189 49.1361 371.109 47.4241H372.405C372.501 48.4161 373.029 49.0401 374.373 49.0401C375.637 49.0401 376.197 48.6081 376.197 47.7121C376.197 46.8321 375.541 46.5441 374.245 46.3041C372.069 45.9041 371.333 45.2961 371.333 43.8401C371.333 42.2881 372.853 41.4881 374.165 41.4881C375.669 41.4881 376.965 42.0961 377.189 43.9041H375.909C375.717 42.9921 375.205 42.5921 374.149 42.5921C373.189 42.5921 372.565 43.0721 372.565 43.7921C372.565 44.5441 372.981 44.8481 374.517 45.1201C376.245 45.4401 377.461 45.8241 377.461 47.6001C377.461 49.1201 376.421 50.1441 374.389 50.1441ZM382.077 50.1441C380.077 50.1441 378.877 49.1361 378.797 47.4241H380.093C380.189 48.4161 380.717 49.0401 382.061 49.0401C383.325 49.0401 383.885 48.6081 383.885 47.7121C383.885 46.8321 383.229 46.5441 381.933 46.3041C379.757 45.9041 379.021 45.2961 379.021 43.8401C379.021 42.2881 380.541 41.4881 381.853 41.4881C383.357 41.4881 384.653 42.0961 384.877 43.9041H383.597C383.405 42.9921 382.893 42.5921 381.837 42.5921C380.877 42.5921 380.253 43.0721 380.253 43.7921C380.253 44.5441 380.669 44.8481 382.205 45.1201C383.933 45.4401 385.149 45.8241 385.149 47.6001C385.149 49.1201 384.109 50.1441 382.077 50.1441Z" fill="#010101"/>
<path d="M167.372 480.144C164.06 480.144 162.028 477.872 162.028 474.352V474.224C162.028 470.832 164.3 468.384 167.404 468.384C169.788 468.384 171.804 469.648 172.044 472.128H170.668C170.38 470.384 169.372 469.488 167.42 469.488C165.052 469.488 163.468 471.328 163.468 474.208V474.336C163.468 477.248 164.94 479.008 167.404 479.008C169.276 479.008 170.572 478.064 170.86 476.208H172.156C171.756 478.848 169.932 480.144 167.372 480.144ZM174.18 480V467.632H175.508V472.96C175.892 472.176 176.82 471.488 178.196 471.488C179.924 471.488 181.14 472.432 181.14 474.864V480H179.812V474.768C179.812 473.296 179.188 472.64 177.844 472.64C176.612 472.64 175.508 473.424 175.508 474.928V480H174.18ZM185.838 480.144C184.286 480.144 183.054 479.392 183.054 477.68C183.054 475.744 185.102 475.088 187.246 475.088H188.446V474.48C188.446 473.152 187.934 472.592 186.654 472.592C185.502 472.592 184.862 473.072 184.734 474.096H183.406C183.582 472.192 185.102 471.488 186.718 471.488C188.318 471.488 189.774 472.144 189.774 474.48V480H188.446V478.944C187.822 479.728 187.07 480.144 185.838 480.144ZM185.966 479.088C187.374 479.088 188.446 478.368 188.446 477.072V476.032H187.294C185.614 476.032 184.382 476.448 184.382 477.68C184.382 478.544 184.798 479.088 185.966 479.088ZM192.383 480V471.632H193.711V472.96C194.095 472.176 195.023 471.488 196.399 471.488C198.127 471.488 199.343 472.432 199.343 474.864V480H198.015V474.768C198.015 473.296 197.391 472.64 196.047 472.64C194.815 472.64 193.711 473.424 193.711 474.928V480H192.383ZM205.418 480.144C203.082 480.144 201.322 478.496 201.322 475.904V475.776C201.322 473.216 203.146 471.488 205.386 471.488C207.13 471.488 208.762 472.288 209.018 474.416H207.706C207.498 473.088 206.538 472.592 205.386 472.592C203.866 472.592 202.698 473.808 202.698 475.776V475.904C202.698 477.952 203.818 479.04 205.434 479.04C206.618 479.04 207.69 478.352 207.834 476.992H209.066C208.89 478.8 207.434 480.144 205.418 480.144ZM214.495 480.144C212.127 480.144 210.447 478.48 210.447 475.904V475.776C210.447 473.248 212.063 471.488 214.367 471.488C216.303 471.488 218.127 472.656 218.127 475.648V476.08H211.823C211.887 477.984 212.799 479.04 214.511 479.04C215.807 479.04 216.559 478.56 216.735 477.584H218.063C217.775 479.264 216.383 480.144 214.495 480.144ZM211.871 475.008H216.767C216.639 473.28 215.743 472.592 214.367 472.592C213.007 472.592 212.095 473.52 211.871 475.008ZM222.834 480.144C220.834 480.144 219.634 479.136 219.554 477.424H220.85C220.946 478.416 221.474 479.04 222.818 479.04C224.082 479.04 224.642 478.608 224.642 477.712C224.642 476.832 223.986 476.544 222.69 476.304C220.514 475.904 219.778 475.296 219.778 473.84C219.778 472.288 221.298 471.488 222.61 471.488C224.114 471.488 225.41 472.096 225.634 473.904H224.354C224.162 472.992 223.65 472.592 222.594 472.592C221.634 472.592 221.01 473.072 221.01 473.792C221.01 474.544 221.426 474.848 222.962 475.12C224.69 475.44 225.906 475.824 225.906 477.6C225.906 479.12 224.866 480.144 222.834 480.144ZM235.652 479.04C237.332 479.04 238.388 477.776 238.388 475.888V475.776C238.388 473.84 237.316 472.592 235.652 472.592C233.972 472.592 232.916 473.84 232.916 475.76V475.888C232.916 477.792 233.956 479.04 235.652 479.04ZM235.636 480.144C233.252 480.144 231.54 478.336 231.54 475.888V475.76C231.54 473.248 233.284 471.488 235.652 471.488C238.02 471.488 239.764 473.232 239.764 475.744V475.872C239.764 478.4 238.02 480.144 235.636 480.144ZM242.109 480V472.752H240.909V471.632H242.109V470.272C242.109 468.576 242.941 467.584 244.605 467.584C245.037 467.584 245.261 467.632 245.597 467.744V468.864C245.357 468.768 245.021 468.688 244.653 468.688C243.789 468.688 243.437 469.28 243.437 470.128V471.632H245.485V472.752H243.437V480H242.109ZM251.682 480V468.56H258.37V469.696H253.074V473.744H257.202V474.88H253.074V480H251.682ZM262.104 480.144C260.552 480.144 259.32 479.392 259.32 477.68C259.32 475.744 261.368 475.088 263.512 475.088H264.712V474.48C264.712 473.152 264.2 472.592 262.92 472.592C261.768 472.592 261.128 473.072 261 474.096H259.672C259.848 472.192 261.368 471.488 262.984 471.488C264.584 471.488 266.04 472.144 266.04 474.48V480H264.712V478.944C264.088 479.728 263.336 480.144 262.104 480.144ZM262.232 479.088C263.64 479.088 264.712 478.368 264.712 477.072V476.032H263.56C261.88 476.032 260.648 476.448 260.648 477.68C260.648 478.544 261.064 479.088 262.232 479.088ZM268.681 480V471.632H270.009V480H268.681ZM269.321 469.888C268.841 469.888 268.441 469.488 268.441 469.008C268.441 468.528 268.841 468.128 269.321 468.128C269.801 468.128 270.201 468.528 270.201 469.008C270.201 469.488 269.801 469.888 269.321 469.888ZM272.759 480V467.632H274.103V480H272.759ZM279.653 480.144C277.989 480.144 276.741 479.232 276.741 476.928V471.632H278.069V476.864C278.069 478.336 278.693 478.992 280.005 478.992C281.189 478.992 282.309 478.208 282.309 476.704V471.632H283.637V480H282.309V478.672C281.925 479.456 280.997 480.144 279.653 480.144ZM286.321 480V471.632H287.649V473.136C288.177 472.192 288.897 471.536 290.401 471.488V472.736C288.721 472.816 287.649 473.344 287.649 475.408V480H286.321ZM295.526 480.144C293.158 480.144 291.478 478.48 291.478 475.904V475.776C291.478 473.248 293.094 471.488 295.398 471.488C297.334 471.488 299.158 472.656 299.158 475.648V476.08H292.854C292.918 477.984 293.83 479.04 295.542 479.04C296.838 479.04 297.59 478.56 297.766 477.584H299.094C298.806 479.264 297.414 480.144 295.526 480.144ZM292.902 475.008H297.798C297.67 473.28 296.774 472.592 295.398 472.592C294.038 472.592 293.126 473.52 292.902 475.008Z" fill="#010101"/>
<defs>
<linearGradient id="paint0_linear_4003_116" x1="545.963" y1="476.108" x2="-477.298" y2="-407.698" gradientUnits="userSpaceOnUse">
<stop stop-color="#6F69F2"/>
<stop offset="0.813974" stop-color="#00B9FF"/>
</linearGradient>
<linearGradient id="paint1_linear_4003_116" x1="142.961" y1="317.324" x2="241.09" y2="83.1353" gradientUnits="userSpaceOnUse">
<stop offset="0.190308" stop-color="#6F69F2"/>
<stop offset="0.895878" stop-color="#269FFB"/>
</linearGradient>
<linearGradient id="paint2_linear_4003_116" x1="338.949" y1="433.818" x2="313.417" y2="461.288" gradientUnits="userSpaceOnUse">
<stop offset="0.190308" stop-color="#6F69F2"/>
<stop offset="0.895878" stop-color="#269FFB"/>
</linearGradient>
</defs>
</svg>
