<svg width="735" height="769" viewBox="0 0 735 769" fill="none" xmlns="http://www.w3.org/2000/svg">
<path opacity="0.05" d="M619.435 321.977C626.4 461.054 491.939 599.171 356.35 605.962C220.761 612.752 105.198 505.514 98.2329 366.437C91.2676 227.361 133.304 133.064 269.072 133.419C358.743 133.654 612.469 182.901 619.435 321.977Z" fill="url(#paint0_linear_4023_69)"/>
<g filter="url(#filter0_d_4023_69)">
<path d="M211.69 367.213C209.799 402.928 219.634 438.283 239.698 467.89C259.762 497.497 288.955 519.734 322.828 531.212C356.702 542.691 393.399 542.781 427.328 531.47C461.258 520.158 490.559 498.066 510.769 468.558C530.978 439.05 540.988 403.744 539.272 368.02C537.556 332.296 524.209 298.112 501.265 270.677C478.32 243.241 447.036 224.058 412.179 216.051C377.322 208.043 340.802 211.65 308.185 226.322L346.86 312.302C360.726 306.065 376.252 304.532 391.071 307.936C405.89 311.34 419.19 319.495 428.944 331.159C438.699 342.823 444.373 357.355 445.102 372.543C445.832 387.73 441.576 402.74 432.985 415.285C424.393 427.829 411.936 437.222 397.511 442.03C383.087 446.839 367.486 446.801 353.085 441.921C338.684 437.041 326.274 427.588 317.744 415.001C309.214 402.414 305.033 387.384 305.837 372.2L211.69 367.213Z" fill="url(#paint1_linear_4023_69)"/>
</g>
<g filter="url(#filter1_d_4023_69)">
<circle cx="375.461" cy="377.744" r="74" fill="#EEF4FF"/>
</g>
<path d="M308.459 226.244C280.984 239.305 254.271 263.137 237.75 288.681C221.229 314.226 212.102 342.329 211.459 372.744L305.959 381.744C306.236 368.627 308.945 350.351 316.07 339.334C323.195 328.318 335.11 317.877 346.959 312.244L308.459 226.244Z" fill="#EEF4FF"/>
<path d="M365.491 493.2C362.391 493.2 360.551 491.72 360.231 489.14H363.251C363.451 490.12 364.031 490.74 365.391 490.74C367.291 490.74 368.231 489.24 368.291 486.32C367.631 487.36 366.591 488.06 364.871 488.06C362.111 488.06 360.091 486.34 360.091 483.44C360.091 480.48 362.211 478.48 365.631 478.48C369.571 478.48 371.471 481.14 371.471 485.26V485.9C371.471 490.58 369.331 493.2 365.491 493.2ZM365.591 485.9C367.051 485.9 368.031 484.9 368.031 483.5C368.031 481.84 367.051 480.82 365.591 480.82C364.171 480.82 363.231 481.86 363.231 483.36C363.231 484.86 364.151 485.9 365.591 485.9ZM379.644 493V490.16H372.624V488.98L378.804 478.7H382.784V487.84H384.664V490.16H382.784V493H379.644ZM375.864 487.84H379.704V481.14L375.864 487.84ZM387.953 493.18C386.953 493.18 386.173 492.4 386.173 491.42C386.173 490.46 386.953 489.68 387.953 489.68C388.973 489.68 389.753 490.46 389.753 491.42C389.753 492.4 388.973 493.18 387.953 493.18ZM396.645 493.22C393.005 493.22 391.145 491.36 391.025 488.46H393.945C394.065 489.84 394.805 490.84 396.525 490.84C398.145 490.84 398.905 490.06 398.905 488.78C398.905 487.42 398.145 486.72 396.605 486.72H395.485V484.56H396.525C398.025 484.56 398.705 483.88 398.705 482.66C398.705 481.64 398.045 480.88 396.725 480.88C395.365 480.88 394.525 481.7 394.365 483.04H391.505C391.665 480.42 393.525 478.5 396.785 478.5C399.925 478.5 401.765 480.14 401.765 482.38C401.765 483.98 400.825 484.98 399.405 485.48C401.065 485.84 402.185 487.02 402.185 488.84C402.185 491.52 400.125 493.22 396.645 493.22ZM406.425 493V481.9L403.525 483.8V481.04L406.825 478.7H409.665V493H406.425ZM415.678 483.78C416.538 483.78 417.038 483.14 417.038 482.04C417.038 480.98 416.538 480.32 415.678 480.32C414.818 480.32 414.278 480.96 414.278 482.04C414.278 483.18 414.818 483.78 415.678 483.78ZM415.658 485.58C413.538 485.58 412.058 484.08 412.058 482.06C412.058 480.06 413.658 478.56 415.678 478.56C417.678 478.56 419.258 480 419.258 482.02C419.258 484.06 417.758 485.58 415.658 485.58ZM413.978 493L423.478 478.7H425.278L415.778 493H413.978ZM423.558 491.4C424.438 491.4 424.938 490.76 424.938 489.68C424.938 488.6 424.438 487.96 423.558 487.96C422.718 487.96 422.178 488.58 422.178 489.68C422.178 490.8 422.718 491.4 423.558 491.4ZM423.558 493.22C421.438 493.22 419.958 491.7 419.958 489.7C419.958 487.68 421.558 486.18 423.558 486.18C425.578 486.18 427.158 487.62 427.158 489.64C427.158 491.68 425.658 493.22 423.558 493.22Z" fill="white"/>
<path d="M287.628 205.157C255.914 217.383 228.579 238.809 209.131 266.683C189.682 294.557 179.009 327.607 178.48 361.591L302 372.023C302.15 362.412 301.881 348.587 309.415 336.653C317.12 324.448 330.031 317.958 339 314.5L287.628 205.157Z" fill="#00B9FF"/>
<path d="M237.202 304.22C233.682 304.22 232.042 302.3 231.902 299.74H234.882C235.062 300.94 235.542 301.74 237.182 301.74C238.642 301.74 239.422 300.72 239.422 299.2C239.422 297.66 238.542 296.7 237.102 296.7C235.762 296.7 234.942 297.18 234.362 297.84H232.562L232.762 289.7H241.822V292.16H235.182L235.122 295.74C235.682 295.06 236.682 294.42 238.302 294.42C240.902 294.42 242.682 296.2 242.682 299.24C242.682 302.28 240.502 304.22 237.202 304.22ZM245.783 304.18C244.783 304.18 244.003 303.4 244.003 302.42C244.003 301.46 244.783 300.68 245.783 300.68C246.803 300.68 247.583 301.46 247.583 302.42C247.583 303.4 246.803 304.18 245.783 304.18ZM254.507 304.22C250.187 304.22 248.627 301.3 248.627 297.4V297.04C248.627 292.2 251.247 289.5 254.747 289.5C257.587 289.5 259.387 290.84 259.707 293.46H256.707C256.507 292.52 256.027 291.94 254.787 291.94C253.007 291.94 251.907 293.5 251.827 296.44C252.487 295.38 253.567 294.66 255.287 294.66C257.987 294.66 260.007 296.42 260.007 299.3C260.007 302.24 257.907 304.22 254.507 304.22ZM254.467 301.88C255.887 301.88 256.827 300.84 256.827 299.34C256.827 297.84 255.927 296.8 254.467 296.8C253.027 296.8 252.027 297.82 252.027 299.24C252.027 300.88 253.027 301.88 254.467 301.88ZM266.817 304.2C263.717 304.2 261.877 302.72 261.557 300.14H264.577C264.777 301.12 265.357 301.74 266.717 301.74C268.617 301.74 269.557 300.24 269.617 297.32C268.957 298.36 267.917 299.06 266.197 299.06C263.437 299.06 261.417 297.34 261.417 294.44C261.417 291.48 263.537 289.48 266.957 289.48C270.897 289.48 272.797 292.14 272.797 296.26V296.9C272.797 301.58 270.657 304.2 266.817 304.2ZM266.917 296.9C268.377 296.9 269.357 295.9 269.357 294.5C269.357 292.84 268.377 291.82 266.917 291.82C265.497 291.82 264.557 292.86 264.557 294.36C264.557 295.86 265.477 296.9 266.917 296.9ZM277.707 294.78C278.567 294.78 279.067 294.14 279.067 293.04C279.067 291.98 278.567 291.32 277.707 291.32C276.847 291.32 276.307 291.96 276.307 293.04C276.307 294.18 276.847 294.78 277.707 294.78ZM277.687 296.58C275.567 296.58 274.087 295.08 274.087 293.06C274.087 291.06 275.687 289.56 277.707 289.56C279.707 289.56 281.287 291 281.287 293.02C281.287 295.06 279.787 296.58 277.687 296.58ZM276.007 304L285.507 289.7H287.307L277.807 304H276.007ZM285.587 302.4C286.467 302.4 286.967 301.76 286.967 300.68C286.967 299.6 286.467 298.96 285.587 298.96C284.747 298.96 284.207 299.58 284.207 300.68C284.207 301.8 284.747 302.4 285.587 302.4ZM285.587 304.22C283.467 304.22 281.987 302.7 281.987 300.7C281.987 298.68 283.587 297.18 285.587 297.18C287.607 297.18 289.187 298.62 289.187 300.64C289.187 302.68 287.687 304.22 285.587 304.22Z" fill="white"/>
<path d="M297.833 161C297.833 162.473 299.027 163.667 300.5 163.667C301.973 163.667 303.167 162.473 303.167 161C303.167 159.527 301.973 158.333 300.5 158.333C299.027 158.333 297.833 159.527 297.833 161ZM273.5 212V185.909H272.5V212H273.5ZM274.014 184.779L300.829 161.377L300.171 160.623L273.356 184.026L274.014 184.779ZM273.5 185.909C273.5 185.476 273.687 185.064 274.014 184.779L273.356 184.026C272.812 184.5 272.5 185.187 272.5 185.909H273.5Z" fill="#00B9FF"/>
<path d="M402.667 591C402.667 589.527 401.473 588.333 400 588.333C398.527 588.333 397.333 589.527 397.333 591C397.333 592.473 398.527 593.667 400 593.667C401.473 593.667 402.667 592.473 402.667 591ZM427 530V575.774H428V530H427ZM426.181 577.111L399.773 590.555L400.227 591.446L426.634 578.002L426.181 577.111ZM427 575.774C427 576.338 426.683 576.855 426.181 577.111L426.634 578.002C427.472 577.575 428 576.714 428 575.774H427Z" fill="url(#paint2_linear_4023_69)"/>
<path d="M311.612 166V154.56H313.004V164.864H318.236V166H311.612ZM320.11 166V157.632H321.438V166H320.11ZM320.75 155.888C320.27 155.888 319.87 155.488 319.87 155.008C319.87 154.528 320.27 154.128 320.75 154.128C321.23 154.128 321.63 154.528 321.63 155.008C321.63 155.488 321.23 155.888 320.75 155.888ZM324.157 166V153.632H325.485V161.488L328.957 157.632H330.509L326.924 161.52L330.812 166H329.197L325.485 161.664V166H324.157ZM335.518 166.144C333.15 166.144 331.47 164.48 331.47 161.904V161.776C331.47 159.248 333.086 157.488 335.39 157.488C337.326 157.488 339.15 158.656 339.15 161.648V162.08H332.846C332.91 163.984 333.822 165.04 335.534 165.04C336.83 165.04 337.582 164.56 337.758 163.584H339.086C338.798 165.264 337.406 166.144 335.518 166.144ZM332.894 161.008H337.79C337.662 159.28 336.766 158.592 335.39 158.592C334.03 158.592 333.118 159.52 332.894 161.008ZM341.22 166V153.632H342.564V166H341.22ZM345.314 166V157.632H346.642V166H345.314ZM345.954 155.888C345.474 155.888 345.074 155.488 345.074 155.008C345.074 154.528 345.474 154.128 345.954 154.128C346.434 154.128 346.834 154.528 346.834 155.008C346.834 155.488 346.434 155.888 345.954 155.888ZM349.36 166V153.632H350.688V158.96C351.072 158.176 352 157.488 353.376 157.488C355.104 157.488 356.32 158.432 356.32 160.864V166H354.992V160.768C354.992 159.296 354.368 158.64 353.024 158.64C351.792 158.64 350.688 159.424 350.688 160.928V166H349.36ZM362.41 165.04C364.09 165.04 365.146 163.776 365.146 161.888V161.776C365.146 159.84 364.074 158.592 362.41 158.592C360.73 158.592 359.674 159.84 359.674 161.76V161.888C359.674 163.792 360.714 165.04 362.41 165.04ZM362.394 166.144C360.01 166.144 358.298 164.336 358.298 161.888V161.76C358.298 159.248 360.042 157.488 362.41 157.488C364.778 157.488 366.522 159.232 366.522 161.744V161.872C366.522 164.4 364.778 166.144 362.394 166.144ZM372.066 165.04C373.746 165.04 374.802 163.776 374.802 161.888V161.776C374.802 159.84 373.73 158.592 372.066 158.592C370.386 158.592 369.33 159.84 369.33 161.76V161.888C369.33 163.792 370.37 165.04 372.066 165.04ZM372.05 166.144C369.666 166.144 367.954 164.336 367.954 161.888V161.76C367.954 159.248 369.698 157.488 372.066 157.488C374.434 157.488 376.178 159.232 376.178 161.744V161.872C376.178 164.4 374.434 166.144 372.05 166.144ZM381.387 166.144C379.195 166.144 377.611 164.592 377.611 161.984V161.856C377.611 159.296 379.211 157.488 381.515 157.488C382.907 157.488 383.771 158.16 384.251 158.976V153.632H385.579V166H384.251V164.56C383.771 165.376 382.603 166.144 381.387 166.144ZM381.531 165.04C383.083 165.04 384.299 164.016 384.299 161.872V161.744C384.299 159.6 383.275 158.592 381.643 158.592C379.979 158.592 378.987 159.76 378.987 161.792V161.92C378.987 164.032 380.123 165.04 381.531 165.04ZM395.988 165.04C397.668 165.04 398.724 163.776 398.724 161.888V161.776C398.724 159.84 397.652 158.592 395.988 158.592C394.308 158.592 393.252 159.84 393.252 161.76V161.888C393.252 163.792 394.292 165.04 395.988 165.04ZM395.972 166.144C393.588 166.144 391.876 164.336 391.876 161.888V161.76C391.876 159.248 393.62 157.488 395.988 157.488C398.356 157.488 400.1 159.232 400.1 161.744V161.872C400.1 164.4 398.356 166.144 395.972 166.144ZM402.445 166V158.752H401.245V157.632H402.445V156.272C402.445 154.576 403.277 153.584 404.941 153.584C405.373 153.584 405.597 153.632 405.933 153.744V154.864C405.693 154.768 405.357 154.688 404.989 154.688C404.125 154.688 403.773 155.28 403.773 156.128V157.632H405.821V158.752H403.773V166H402.445ZM415.714 166.144C412.658 166.144 411.554 164.464 411.346 162.512H412.69C412.866 163.872 413.41 165.024 415.714 165.024C417.186 165.024 418.322 164.16 418.322 162.864C418.322 161.568 417.73 161.024 415.554 160.672C413.154 160.304 411.73 159.552 411.73 157.52C411.73 155.76 413.25 154.416 415.41 154.416C417.698 154.416 419.122 155.536 419.346 157.568H418.098C417.826 156.128 416.994 155.536 415.41 155.536C413.842 155.536 413.026 156.32 413.026 157.392C413.026 158.512 413.442 159.088 415.778 159.44C418.322 159.84 419.666 160.608 419.666 162.768C419.666 164.688 417.986 166.144 415.714 166.144ZM424.707 166.144C423.043 166.144 421.795 165.232 421.795 162.928V157.632H423.123V162.864C423.123 164.336 423.747 164.992 425.059 164.992C426.243 164.992 427.363 164.208 427.363 162.704V157.632H428.691V166H427.363V164.672C426.979 165.456 426.051 166.144 424.707 166.144ZM434.847 166.144C432.511 166.144 430.751 164.496 430.751 161.904V161.776C430.751 159.216 432.575 157.488 434.815 157.488C436.559 157.488 438.191 158.288 438.447 160.416H437.135C436.927 159.088 435.967 158.592 434.815 158.592C433.295 158.592 432.127 159.808 432.127 161.776V161.904C432.127 163.952 433.247 165.04 434.863 165.04C436.047 165.04 437.119 164.352 437.263 162.992H438.495C438.319 164.8 436.863 166.144 434.847 166.144ZM443.972 166.144C441.636 166.144 439.876 164.496 439.876 161.904V161.776C439.876 159.216 441.7 157.488 443.94 157.488C445.684 157.488 447.316 158.288 447.572 160.416H446.26C446.052 159.088 445.092 158.592 443.94 158.592C442.42 158.592 441.252 159.808 441.252 161.776V161.904C441.252 163.952 442.372 165.04 443.988 165.04C445.172 165.04 446.244 164.352 446.388 162.992H447.62C447.444 164.8 445.988 166.144 443.972 166.144ZM453.049 166.144C450.681 166.144 449.001 164.48 449.001 161.904V161.776C449.001 159.248 450.617 157.488 452.921 157.488C454.857 157.488 456.681 158.656 456.681 161.648V162.08H450.377C450.441 163.984 451.353 165.04 453.065 165.04C454.361 165.04 455.113 164.56 455.289 163.584H456.617C456.329 165.264 454.937 166.144 453.049 166.144ZM450.425 161.008H455.321C455.193 159.28 454.297 158.592 452.921 158.592C451.561 158.592 450.649 159.52 450.425 161.008ZM461.389 166.144C459.389 166.144 458.189 165.136 458.109 163.424H459.405C459.501 164.416 460.029 165.04 461.373 165.04C462.637 165.04 463.197 164.608 463.197 163.712C463.197 162.832 462.541 162.544 461.245 162.304C459.069 161.904 458.333 161.296 458.333 159.84C458.333 158.288 459.853 157.488 461.165 157.488C462.669 157.488 463.965 158.096 464.189 159.904H462.909C462.717 158.992 462.205 158.592 461.149 158.592C460.189 158.592 459.565 159.072 459.565 159.792C459.565 160.544 459.981 160.848 461.517 161.12C463.245 161.44 464.461 161.824 464.461 163.6C464.461 165.12 463.421 166.144 461.389 166.144ZM469.077 166.144C467.077 166.144 465.877 165.136 465.797 163.424H467.093C467.189 164.416 467.717 165.04 469.061 165.04C470.325 165.04 470.885 164.608 470.885 163.712C470.885 162.832 470.229 162.544 468.933 162.304C466.757 161.904 466.021 161.296 466.021 159.84C466.021 158.288 467.541 157.488 468.853 157.488C470.357 157.488 471.653 158.096 471.877 159.904H470.597C470.405 158.992 469.893 158.592 468.837 158.592C467.877 158.592 467.253 159.072 467.253 159.792C467.253 160.544 467.669 160.848 469.205 161.12C470.933 161.44 472.149 161.824 472.149 163.6C472.149 165.12 471.109 166.144 469.077 166.144Z" fill="#010101"/>
<path d="M254.372 596.144C251.06 596.144 249.028 593.872 249.028 590.352V590.224C249.028 586.832 251.3 584.384 254.404 584.384C256.788 584.384 258.804 585.648 259.044 588.128H257.668C257.38 586.384 256.372 585.488 254.42 585.488C252.052 585.488 250.468 587.328 250.468 590.208V590.336C250.468 593.248 251.94 595.008 254.404 595.008C256.276 595.008 257.572 594.064 257.86 592.208H259.156C258.756 594.848 256.932 596.144 254.372 596.144ZM261.18 596V583.632H262.508V588.96C262.892 588.176 263.82 587.488 265.196 587.488C266.924 587.488 268.14 588.432 268.14 590.864V596H266.812V590.768C266.812 589.296 266.188 588.64 264.844 588.64C263.612 588.64 262.508 589.424 262.508 590.928V596H261.18ZM272.838 596.144C271.286 596.144 270.054 595.392 270.054 593.68C270.054 591.744 272.102 591.088 274.246 591.088H275.446V590.48C275.446 589.152 274.934 588.592 273.654 588.592C272.502 588.592 271.862 589.072 271.734 590.096H270.406C270.582 588.192 272.102 587.488 273.718 587.488C275.318 587.488 276.774 588.144 276.774 590.48V596H275.446V594.944C274.822 595.728 274.07 596.144 272.838 596.144ZM272.966 595.088C274.374 595.088 275.446 594.368 275.446 593.072V592.032H274.294C272.614 592.032 271.382 592.448 271.382 593.68C271.382 594.544 271.798 595.088 272.966 595.088ZM279.383 596V587.632H280.711V588.96C281.095 588.176 282.023 587.488 283.399 587.488C285.127 587.488 286.343 588.432 286.343 590.864V596H285.015V590.768C285.015 589.296 284.391 588.64 283.047 588.64C281.815 588.64 280.711 589.424 280.711 590.928V596H279.383ZM292.418 596.144C290.082 596.144 288.322 594.496 288.322 591.904V591.776C288.322 589.216 290.146 587.488 292.386 587.488C294.13 587.488 295.762 588.288 296.018 590.416H294.706C294.498 589.088 293.538 588.592 292.386 588.592C290.866 588.592 289.698 589.808 289.698 591.776V591.904C289.698 593.952 290.818 595.04 292.434 595.04C293.618 595.04 294.69 594.352 294.834 592.992H296.066C295.89 594.8 294.434 596.144 292.418 596.144ZM301.495 596.144C299.127 596.144 297.447 594.48 297.447 591.904V591.776C297.447 589.248 299.063 587.488 301.367 587.488C303.303 587.488 305.127 588.656 305.127 591.648V592.08H298.823C298.887 593.984 299.799 595.04 301.511 595.04C302.807 595.04 303.559 594.56 303.735 593.584H305.063C304.775 595.264 303.383 596.144 301.495 596.144ZM298.871 591.008H303.767C303.639 589.28 302.743 588.592 301.367 588.592C300.007 588.592 299.095 589.52 298.871 591.008ZM309.834 596.144C307.834 596.144 306.634 595.136 306.554 593.424H307.85C307.946 594.416 308.474 595.04 309.818 595.04C311.082 595.04 311.642 594.608 311.642 593.712C311.642 592.832 310.986 592.544 309.69 592.304C307.514 591.904 306.778 591.296 306.778 589.84C306.778 588.288 308.298 587.488 309.61 587.488C311.114 587.488 312.41 588.096 312.634 589.904H311.354C311.162 588.992 310.65 588.592 309.594 588.592C308.634 588.592 308.01 589.072 308.01 589.792C308.01 590.544 308.426 590.848 309.962 591.12C311.69 591.44 312.906 591.824 312.906 593.6C312.906 595.12 311.866 596.144 309.834 596.144ZM322.652 595.04C324.332 595.04 325.388 593.776 325.388 591.888V591.776C325.388 589.84 324.316 588.592 322.652 588.592C320.972 588.592 319.916 589.84 319.916 591.76V591.888C319.916 593.792 320.956 595.04 322.652 595.04ZM322.636 596.144C320.252 596.144 318.54 594.336 318.54 591.888V591.76C318.54 589.248 320.284 587.488 322.652 587.488C325.02 587.488 326.764 589.232 326.764 591.744V591.872C326.764 594.4 325.02 596.144 322.636 596.144ZM329.109 596V588.752H327.909V587.632H329.109V586.272C329.109 584.576 329.941 583.584 331.605 583.584C332.037 583.584 332.261 583.632 332.597 583.744V584.864C332.357 584.768 332.021 584.688 331.653 584.688C330.789 584.688 330.437 585.28 330.437 586.128V587.632H332.485V588.752H330.437V596H329.109ZM338.682 596V584.56H345.37V585.696H340.074V589.744H344.202V590.88H340.074V596H338.682ZM349.104 596.144C347.552 596.144 346.32 595.392 346.32 593.68C346.32 591.744 348.368 591.088 350.512 591.088H351.712V590.48C351.712 589.152 351.2 588.592 349.92 588.592C348.768 588.592 348.128 589.072 348 590.096H346.672C346.848 588.192 348.368 587.488 349.984 587.488C351.584 587.488 353.04 588.144 353.04 590.48V596H351.712V594.944C351.088 595.728 350.336 596.144 349.104 596.144ZM349.232 595.088C350.64 595.088 351.712 594.368 351.712 593.072V592.032H350.56C348.88 592.032 347.648 592.448 347.648 593.68C347.648 594.544 348.064 595.088 349.232 595.088ZM355.681 596V587.632H357.009V596H355.681ZM356.321 585.888C355.841 585.888 355.441 585.488 355.441 585.008C355.441 584.528 355.841 584.128 356.321 584.128C356.801 584.128 357.201 584.528 357.201 585.008C357.201 585.488 356.801 585.888 356.321 585.888ZM359.759 596V583.632H361.103V596H359.759ZM366.653 596.144C364.989 596.144 363.741 595.232 363.741 592.928V587.632H365.069V592.864C365.069 594.336 365.693 594.992 367.005 594.992C368.189 594.992 369.309 594.208 369.309 592.704V587.632H370.637V596H369.309V594.672C368.925 595.456 367.997 596.144 366.653 596.144ZM373.321 596V587.632H374.649V589.136C375.177 588.192 375.897 587.536 377.401 587.488V588.736C375.721 588.816 374.649 589.344 374.649 591.408V596H373.321ZM382.526 596.144C380.158 596.144 378.478 594.48 378.478 591.904V591.776C378.478 589.248 380.094 587.488 382.398 587.488C384.334 587.488 386.158 588.656 386.158 591.648V592.08H379.854C379.918 593.984 380.83 595.04 382.542 595.04C383.838 595.04 384.59 594.56 384.766 593.584H386.094C385.806 595.264 384.414 596.144 382.526 596.144ZM379.902 591.008H384.798C384.67 589.28 383.774 588.592 382.398 588.592C381.038 588.592 380.126 589.52 379.902 591.008Z" fill="#010101"/>
<defs>
<filter id="filter0_d_4023_69" x="0.460938" y="0.887451" width="768" height="768" filterUnits="userSpaceOnUse" color-interpolation-filters="sRGB">
<feFlood flood-opacity="0" result="BackgroundImageFix"/>
<feColorMatrix in="SourceAlpha" type="matrix" values="0 0 0 0 0 0 0 0 0 0 0 0 0 0 0 0 0 0 127 0" result="hardAlpha"/>
<feMorphology radius="110" operator="dilate" in="SourceAlpha" result="effect1_dropShadow_4023_69"/>
<feOffset dx="9" dy="9"/>
<feGaussianBlur stdDeviation="55"/>
<feComposite in2="hardAlpha" operator="out"/>
<feColorMatrix type="matrix" values="0 0 0 0 0.309804 0 0 0 0 0.505882 0 0 0 0 0.964706 0 0 0 0.08 0"/>
<feBlend mode="normal" in2="BackgroundImageFix" result="effect1_dropShadow_4023_69"/>
<feBlend mode="normal" in="SourceGraphic" in2="effect1_dropShadow_4023_69" result="shape"/>
</filter>
<filter id="filter1_d_4023_69" x="127.561" y="129.844" width="495.8" height="495.8" filterUnits="userSpaceOnUse" color-interpolation-filters="sRGB">
<feFlood flood-opacity="0" result="BackgroundImageFix"/>
<feColorMatrix in="SourceAlpha" type="matrix" values="0 0 0 0 0 0 0 0 0 0 0 0 0 0 0 0 0 0 127 0" result="hardAlpha"/>
<feMorphology radius="55" operator="dilate" in="SourceAlpha" result="effect1_dropShadow_4023_69"/>
<feOffset/>
<feGaussianBlur stdDeviation="59.45"/>
<feComposite in2="hardAlpha" operator="out"/>
<feColorMatrix type="matrix" values="0 0 0 0 0.309804 0 0 0 0 0.505882 0 0 0 0 0.964706 0 0 0 0.08 0"/>
<feBlend mode="normal" in2="BackgroundImageFix" result="effect1_dropShadow_4023_69"/>
<feBlend mode="normal" in="SourceGraphic" in2="effect1_dropShadow_4023_69" result="shape"/>
</filter>
<linearGradient id="paint0_linear_4023_69" x1="632.963" y1="592.108" x2="-390.298" y2="-291.698" gradientUnits="userSpaceOnUse">
<stop stop-color="#6F69F2"/>
<stop offset="0.813974" stop-color="#00B9FF"/>
</linearGradient>
<linearGradient id="paint1_linear_4023_69" x1="229.961" y1="433.324" x2="328.09" y2="199.135" gradientUnits="userSpaceOnUse">
<stop offset="0.190308" stop-color="#6F69F2"/>
<stop offset="0.895878" stop-color="#269FFB"/>
</linearGradient>
<linearGradient id="paint2_linear_4023_69" x1="425.949" y1="549.818" x2="400.417" y2="577.288" gradientUnits="userSpaceOnUse">
<stop offset="0.190308" stop-color="#6F69F2"/>
<stop offset="0.895878" stop-color="#269FFB"/>
</linearGradient>
</defs>
</svg>
