<svg width="60" height="29" viewBox="0 0 60 29" fill="none" xmlns="http://www.w3.org/2000/svg">
<path d="M7.16606 0.820924L0.0160538 9.33239L7.86823 7.80725L16.8781 10.6402L7.16606 0.820924Z" fill="url(#paint0_linear_967_5202)"/>
<path d="M7.98786 3.73478C8.49386 3.77741 9.05524 4.57134 9.56018 5.81087C9.67198 6.11658 9.80696 6.45979 9.91603 6.81859C10.0438 7.17898 10.1559 7.56174 10.2795 7.96324C10.5165 8.75949 10.7452 9.63797 10.9869 10.5472C11.1164 10.9966 11.3468 11.9641 11.862 13.2875C12.1189 13.9432 12.4438 14.6994 12.8784 15.5182C13.3116 16.3251 13.8732 17.196 14.579 18.1088C15.2934 19.0164 16.1506 19.9537 17.1909 20.871C17.711 21.3296 18.2772 21.7861 18.8866 22.2167C19.0396 22.3303 19.2014 22.4388 19.3631 22.5472C19.5248 22.6556 19.6764 22.7573 19.8381 22.8657C20.1601 23.0706 20.5008 23.2771 20.8501 23.4784C21.5387 23.8741 22.2805 24.2507 23.064 24.5893C23.8374 24.9211 24.654 25.2269 25.5022 25.488C27.2 26.0221 29.02 26.4184 30.8454 26.7084C31.2996 26.7822 31.7624 26.8509 32.2238 26.9075C32.7054 26.9777 33.1566 27.0276 33.618 27.0842C34.5392 27.1855 35.4489 27.2681 36.3556 27.3267C38.1503 27.4423 39.9174 27.4845 41.6036 27.4725C44.9862 27.4552 48.0454 27.221 50.6289 26.9646C53.2311 26.7098 55.3389 26.431 56.8388 26.2611C58.3286 26.0844 59.2003 26.0097 59.2654 26.0863C59.3117 26.1613 58.5615 26.3944 57.1643 26.7211C55.7672 27.0478 53.7333 27.475 51.1862 27.8767C48.6392 28.2784 45.579 28.6547 42.1203 28.8078C38.6617 28.9609 34.8033 28.8788 30.8153 28.3473C28.817 28.0842 26.7766 27.7049 24.7759 27.1216C23.7677 26.8411 22.7896 26.5039 21.8431 26.1219C20.8966 25.74 20.0004 25.3149 19.1474 24.8638C18.7202 24.6322 18.3203 24.3971 17.9204 24.1619C17.7198 24.0384 17.5292 23.9216 17.3372 23.7928C17.1552 23.6708 16.9546 23.5473 16.7813 23.4201C16.0521 22.9201 15.3675 22.4062 14.7478 21.8918C13.4983 20.8562 12.4678 19.7916 11.619 18.772C10.7702 17.7524 10.1016 16.7657 9.57312 15.862C9.05323 14.953 8.66473 14.1322 8.35289 13.4067C7.75804 11.964 7.4641 10.9319 7.33018 10.4466C7.07245 9.48266 6.94171 8.57094 6.8876 7.75456C6.85623 7.34896 6.85517 6.9637 6.86571 6.59719C6.87771 6.24266 6.9013 5.90688 6.94805 5.60861C7.1062 4.40716 7.48186 3.69216 7.98786 3.73478Z" fill="url(#paint1_linear_967_5202)"/>
<path d="M59.2554 26.0794C59.2887 26.1237 59.1217 26.1985 58.7646 26.3106C58.4074 26.4227 57.8501 26.5654 57.1746 26.7278C56.3723 26.915 55.5051 27.1027 54.6178 27.2768C53.5129 27.4919 52.3604 27.6971 51.1862 27.8767C49.7312 28.1097 48.3626 28.2906 46.9895 28.4356C46.2028 28.5234 45.4045 28.5925 44.6336 28.6579C43.7979 28.7238 42.9419 28.7761 42.1118 28.8129C40.286 28.8961 38.4412 28.9007 36.6625 28.8397C35.6838 28.7988 34.7122 28.7406 33.7665 28.6669C32.7733 28.5832 31.7684 28.4808 30.8067 28.3524C29.7514 28.2161 28.7377 28.0418 27.7874 27.8551C26.7318 27.6417 25.7194 27.4024 24.7674 27.1266C23.7779 26.8478 22.7897 26.5038 21.8331 26.1151C20.9357 25.755 20.0395 25.3299 19.1461 24.8517C18.7001 24.6186 18.2712 24.3752 17.9204 24.1619C17.8699 24.128 17.8296 24.1008 17.7704 24.0721C17.6289 23.9773 17.4787 23.8877 17.3372 23.7928C17.2765 23.7521 17.2261 23.7181 17.1654 23.6775C17.0442 23.5962 16.904 23.5134 16.7813 23.4201C16.0824 22.9405 15.3877 22.4197 14.7478 21.8918C14.1397 21.3961 13.5647 20.8676 13.0257 20.3303C12.5285 19.8322 12.0558 19.3065 11.6104 18.7771C10.8368 17.8409 10.1409 16.8578 9.56458 15.8671C9.12576 15.0894 8.72148 14.2909 8.34436 13.4118C7.76552 12.0238 7.48168 10.9984 7.33766 10.5063L7.32165 10.4516C7.09151 9.56118 6.93338 8.65307 6.86896 7.75286C6.84033 7.29417 6.83486 6.87298 6.84708 6.5955C6.86182 6.18787 6.88836 5.87604 6.92942 5.60692C6.97617 5.30865 7.02586 5.03432 7.09009 4.8027C7.16295 4.56589 7.24023 4.365 7.33204 4.20681C7.42385 4.04862 7.52872 3.92116 7.63085 3.84681C7.74161 3.76725 7.86689 3.7304 7.97934 3.73987C8.2316 3.75519 8.50598 3.95016 8.76498 4.32159C9.03114 4.67585 9.29613 5.17235 9.56018 5.81087C9.69957 6.19001 9.81286 6.50769 9.91603 6.81859C10.0424 7.167 10.153 7.53767 10.2564 7.92562L10.2795 7.96324C10.505 8.74073 10.7379 9.57798 10.9681 10.4685L10.9869 10.5472C11.0029 10.6019 11.0306 10.6752 11.041 10.759C11.1879 11.2751 11.4251 12.1485 11.862 13.2875C12.1842 14.0968 12.5149 14.8238 12.8872 15.5129C13.358 16.4 13.9296 17.2778 14.579 18.1088C15.3585 19.0929 16.2431 20.0267 17.1909 20.871C17.7312 21.3431 18.2975 21.7996 18.8968 22.2234C18.9892 22.2963 19.1004 22.3709 19.2015 22.4387C19.252 22.4726 19.3125 22.5133 19.3631 22.5472C19.4743 22.6218 19.5855 22.6962 19.6967 22.7707C19.7473 22.8046 19.7978 22.8385 19.8483 22.8724C20.1602 23.0705 20.511 23.2838 20.8603 23.485C21.5878 23.8959 22.3383 24.2673 23.0728 24.584C23.8563 24.9226 24.6728 25.2285 25.5022 25.488C26.3129 25.7459 27.2043 25.9809 28.1302 26.1952C28.9782 26.3792 29.8996 26.5575 30.8556 26.7151C31.4136 26.8036 31.8289 26.8623 32.234 26.9142C32.6204 26.9645 33.0154 27.0096 33.3917 27.0532C33.4667 27.0595 33.5329 27.0711 33.618 27.0842C34.4916 27.1756 35.4014 27.258 36.3456 27.3198C38.0567 27.4343 39.8252 27.4886 41.6036 27.4725C45.2543 27.4481 48.5123 27.1714 50.6376 26.9593C52.5713 26.7726 54.2441 26.5757 55.5869 26.4103C56.035 26.3592 56.4642 26.3066 56.8388 26.2611C57.6514 26.1577 58.2106 26.1039 58.5866 26.0704C58.9815 26.0385 59.2049 26.0455 59.2554 26.0794ZM16.9041 23.5133C16.9951 23.5742 17.076 23.6285 17.1568 23.6827C17.2175 23.7233 17.268 23.7572 17.3286 23.7979C17.4701 23.8928 17.6203 23.9825 17.7704 24.0721C17.8209 24.106 17.8613 24.1332 17.9204 24.1619C18.2712 24.3752 18.7 24.6187 19.1474 24.8638C20.0409 25.342 20.9357 25.755 21.8331 26.1151C22.7796 26.497 23.7779 26.8478 24.7674 27.1266C26.5848 27.6531 28.5633 28.0568 30.8067 28.3524C34.417 28.8284 38.2194 28.9828 42.1118 28.8129C45.0358 28.6859 48.0112 28.3736 51.2051 27.8782C52.3605 27.697 53.523 27.4987 54.6178 27.2768C55.5051 27.1027 56.3621 26.9083 57.1643 26.7211C57.8499 26.5655 58.3973 26.416 58.7646 26.3106C59.1217 26.1985 59.2887 26.1237 59.2554 26.0794C59.2049 26.0455 58.9815 26.0385 58.5866 26.0704C58.2005 26.0972 57.6616 26.1644 56.8576 26.2626C56.483 26.308 56.0537 26.3608 55.6056 26.4119C54.2628 26.5773 52.59 26.7742 50.6578 26.9729C49.1276 27.1225 47.7501 27.2316 46.4344 27.3163C44.76 27.4242 43.1805 27.4748 41.6239 27.4859C39.8354 27.4952 38.0769 27.4478 36.3658 27.3333C35.4014 27.258 34.483 27.1808 33.618 27.0842C33.543 27.0779 33.458 27.0647 33.3831 27.0584C33.0068 27.0148 32.6118 26.9697 32.234 26.9142C31.8289 26.8623 31.4136 26.8036 30.8556 26.7151C29.891 26.5627 28.9797 26.3911 28.1302 26.1952C27.2043 25.9809 26.3129 25.7459 25.5022 25.488C24.6728 25.2285 23.8663 24.9295 23.064 24.5893C22.3296 24.2726 21.5893 23.9079 20.8603 23.485C20.4922 23.2822 20.1602 23.0705 19.8483 22.8724C19.7978 22.8385 19.7473 22.8046 19.6967 22.7707C19.5855 22.6962 19.4743 22.6218 19.3631 22.5472C19.3125 22.5133 19.252 22.4726 19.2015 22.4387C19.1004 22.3709 18.9892 22.2963 18.8968 22.2234C18.3162 21.8012 17.7312 21.3431 17.1909 20.871C16.2243 20.0251 15.3499 19.0981 14.579 18.1088C13.9195 17.271 13.3579 16.4001 12.8784 15.5182C12.5148 14.8239 12.1741 14.09 11.862 13.2875C11.415 12.1417 11.1879 11.2751 11.041 10.759C11.022 10.6804 11.0029 10.6019 10.9869 10.5472L10.9681 10.4685C10.7293 9.58318 10.5151 8.74751 10.2795 7.96324L10.2751 7.9272C10.153 7.53767 10.0425 7.16689 9.93487 6.82006C9.81295 6.50757 9.7082 6.18481 9.56018 5.81087C9.29613 5.17235 9.03114 4.67585 8.76498 4.32159C8.48724 3.94858 8.23307 3.76717 7.97934 3.73987C7.84815 3.72882 7.74161 3.76725 7.63085 3.84681C7.52009 3.92636 7.42238 4.03665 7.33204 4.20681C7.24023 4.365 7.16296 4.56589 7.1002 4.80948C7.03598 5.0411 6.97606 5.30876 6.94805 5.60861C6.90699 5.87773 6.87045 6.18267 6.84708 6.5955C6.84349 6.86779 6.85897 7.29586 6.8876 7.75456C6.95202 8.65477 7.09151 9.56118 7.3404 10.4532L7.3564 10.5079C7.48169 10.9984 7.77415 12.0186 8.34436 13.4118C8.72148 14.2909 9.12566 15.0895 9.57312 15.862C10.1408 16.8579 10.8368 17.8409 11.6104 18.7771C12.5359 19.8921 13.5923 20.941 14.7393 21.8969C15.3792 22.4248 16.0739 22.9456 16.7727 23.4252C16.8132 23.4523 16.8536 23.4794 16.9041 23.5133Z" fill="url(#paint2_linear_967_5202)"/>
<defs>
<linearGradient id="paint0_linear_967_5202" x1="-2.00032" y1="23.7739" x2="45.9398" y2="-52.1797" gradientUnits="userSpaceOnUse">
<stop stop-color="#6F69F2"/>
<stop offset="0.813974" stop-color="#00B9FF"/>
</linearGradient>
<linearGradient id="paint1_linear_967_5202" x1="-2.00032" y1="23.7739" x2="45.9398" y2="-52.1797" gradientUnits="userSpaceOnUse">
<stop stop-color="#6F69F2"/>
<stop offset="0.813974" stop-color="#00B9FF"/>
</linearGradient>
<linearGradient id="paint2_linear_967_5202" x1="-2.00032" y1="23.7739" x2="45.9398" y2="-52.1797" gradientUnits="userSpaceOnUse">
<stop stop-color="#6F69F2"/>
<stop offset="0.813974" stop-color="#00B9FF"/>
</linearGradient>
</defs>
</svg>
