<svg width="181" height="74" viewBox="0 0 181 74" fill="none" xmlns="http://www.w3.org/2000/svg">
<path d="M6.55994 67.0399C3.24794 67.0399 1.21594 64.7679 1.21594 61.2479V61.1199C1.21594 57.7279 3.48794 55.2799 6.59194 55.2799C8.97594 55.2799 10.9919 56.5439 11.2319 59.0239H9.85594C9.56794 57.2799 8.55994 56.3839 6.60794 56.3839C4.23994 56.3839 2.65594 58.2239 2.65594 61.1039V61.2319C2.65594 64.1439 4.12794 65.9039 6.59194 65.9039C8.46394 65.9039 9.75994 64.9599 10.0479 63.1039H11.3439C10.9439 65.7439 9.11994 67.0399 6.55994 67.0399ZM13.3674 66.8959V54.5279H14.6954V59.8559C15.0794 59.0719 16.0074 58.3839 17.3834 58.3839C19.1114 58.3839 20.3274 59.3279 20.3274 61.7599V66.8959H18.9994V61.6639C18.9994 60.1919 18.3754 59.5359 17.0314 59.5359C15.7994 59.5359 14.6954 60.3199 14.6954 61.8239V66.8959H13.3674ZM25.0259 67.0399C23.4739 67.0399 22.2419 66.2879 22.2419 64.5759C22.2419 62.6399 24.2899 61.9839 26.4339 61.9839H27.6339V61.3759C27.6339 60.0479 27.1219 59.4879 25.8419 59.4879C24.6899 59.4879 24.0499 59.9679 23.9219 60.9919H22.5939C22.7699 59.0879 24.2899 58.3839 25.9059 58.3839C27.5059 58.3839 28.9619 59.0399 28.9619 61.3759V66.8959H27.6339V65.8399C27.0099 66.6239 26.2579 67.0399 25.0259 67.0399ZM25.1539 65.9839C26.5619 65.9839 27.6339 65.2639 27.6339 63.9679V62.9279H26.4819C24.8019 62.9279 23.5699 63.3439 23.5699 64.5759C23.5699 65.4399 23.9859 65.9839 25.1539 65.9839ZM31.5706 66.8959V58.5279H32.8986V59.8559C33.2826 59.0719 34.2106 58.3839 35.5866 58.3839C37.3146 58.3839 38.5306 59.3279 38.5306 61.7599V66.8959H37.2026V61.6639C37.2026 60.1919 36.5786 59.5359 35.2346 59.5359C34.0026 59.5359 32.8986 60.3199 32.8986 61.8239V66.8959H31.5706ZM44.6051 67.0399C42.2691 67.0399 40.5091 65.3919 40.5091 62.7999V62.6719C40.5091 60.1119 42.3331 58.3839 44.5731 58.3839C46.3171 58.3839 47.9491 59.1839 48.2051 61.3119H46.8931C46.6851 59.9839 45.7251 59.4879 44.5731 59.4879C43.0531 59.4879 41.8851 60.7039 41.8851 62.6719V62.7999C41.8851 64.8479 43.0051 65.9359 44.6211 65.9359C45.8051 65.9359 46.8771 65.2479 47.0211 63.8879H48.2531C48.0771 65.6959 46.6211 67.0399 44.6051 67.0399ZM53.6821 67.0399C51.3141 67.0399 49.6341 65.3759 49.6341 62.7999V62.6719C49.6341 60.1439 51.2501 58.3839 53.5541 58.3839C55.4901 58.3839 57.3141 59.5519 57.3141 62.5439V62.9759H51.0101C51.0741 64.8799 51.9861 65.9359 53.6981 65.9359C54.9941 65.9359 55.7461 65.4559 55.9221 64.4799H57.2501C56.9621 66.1599 55.5701 67.0399 53.6821 67.0399ZM51.0581 61.9039H55.9541C55.8261 60.1759 54.9301 59.4879 53.5541 59.4879C52.1941 59.4879 51.2821 60.4159 51.0581 61.9039ZM62.0219 67.0399C60.0219 67.0399 58.8219 66.0319 58.7419 64.3199H60.0379C60.1339 65.3119 60.6619 65.9359 62.0059 65.9359C63.2699 65.9359 63.8299 65.5039 63.8299 64.6079C63.8299 63.7279 63.1739 63.4399 61.8779 63.1999C59.7019 62.7999 58.9659 62.1919 58.9659 60.7359C58.9659 59.1839 60.4859 58.3839 61.7979 58.3839C63.3019 58.3839 64.5979 58.9919 64.8219 60.7999H63.5419C63.3499 59.8879 62.8379 59.4879 61.7819 59.4879C60.8219 59.4879 60.1979 59.9679 60.1979 60.6879C60.1979 61.4399 60.6139 61.7439 62.1499 62.0159C63.8779 62.3359 65.0939 62.7199 65.0939 64.4959C65.0939 66.0159 64.0539 67.0399 62.0219 67.0399ZM74.8398 65.9359C76.5198 65.9359 77.5758 64.6719 77.5758 62.7839V62.6719C77.5758 60.7359 76.5038 59.4879 74.8398 59.4879C73.1598 59.4879 72.1038 60.7359 72.1038 62.6559V62.7839C72.1038 64.6879 73.1438 65.9359 74.8398 65.9359ZM74.8238 67.0399C72.4398 67.0399 70.7278 65.2319 70.7278 62.7839V62.6559C70.7278 60.1439 72.4718 58.3839 74.8398 58.3839C77.2078 58.3839 78.9518 60.1279 78.9518 62.6399V62.7679C78.9518 65.2959 77.2078 67.0399 74.8238 67.0399ZM81.2961 66.8959V59.6479H80.0961V58.5279H81.2961V57.1679C81.2961 55.4719 82.1281 54.4799 83.7921 54.4799C84.2241 54.4799 84.4481 54.5279 84.7841 54.6399V55.7599C84.5441 55.6639 84.2081 55.5839 83.8401 55.5839C82.9761 55.5839 82.6241 56.1759 82.6241 57.0239V58.5279H84.6721V59.6479H82.6241V66.8959H81.2961ZM90.8697 66.8959V55.4559H97.5577V56.5919H92.2617V60.6399H96.3897V61.7759H92.2617V66.8959H90.8697ZM101.292 67.0399C99.7396 67.0399 98.5076 66.2879 98.5076 64.5759C98.5076 62.6399 100.556 61.9839 102.7 61.9839H103.9V61.3759C103.9 60.0479 103.388 59.4879 102.108 59.4879C100.956 59.4879 100.316 59.9679 100.188 60.9919H98.8596C99.0356 59.0879 100.556 58.3839 102.172 58.3839C103.772 58.3839 105.228 59.0399 105.228 61.3759V66.8959H103.9V65.8399C103.276 66.6239 102.524 67.0399 101.292 67.0399ZM101.42 65.9839C102.828 65.9839 103.9 65.2639 103.9 63.9679V62.9279H102.748C101.068 62.9279 99.8356 63.3439 99.8356 64.5759C99.8356 65.4399 100.252 65.9839 101.42 65.9839ZM107.868 66.8959V58.5279H109.196V66.8959H107.868ZM108.508 56.7839C108.028 56.7839 107.628 56.3839 107.628 55.9039C107.628 55.4239 108.028 55.0239 108.508 55.0239C108.988 55.0239 109.388 55.4239 109.388 55.9039C109.388 56.3839 108.988 56.7839 108.508 56.7839ZM111.946 66.8959V54.5279H113.29V66.8959H111.946ZM118.84 67.0399C117.176 67.0399 115.928 66.1279 115.928 63.8239V58.5279H117.256V63.7599C117.256 65.2319 117.88 65.8879 119.192 65.8879C120.376 65.8879 121.496 65.1039 121.496 63.5999V58.5279H122.824V66.8959H121.496V65.5679C121.112 66.3519 120.184 67.0399 118.84 67.0399ZM125.508 66.8959V58.5279H126.836V60.0319C127.364 59.0879 128.084 58.4319 129.588 58.3839V59.6319C127.908 59.7119 126.836 60.2399 126.836 62.3039V66.8959H125.508ZM134.713 67.0399C132.345 67.0399 130.665 65.3759 130.665 62.7999V62.6719C130.665 60.1439 132.281 58.3839 134.585 58.3839C136.521 58.3839 138.345 59.5519 138.345 62.5439V62.9759H132.041C132.105 64.8799 133.017 65.9359 134.729 65.9359C136.025 65.9359 136.777 65.4559 136.953 64.4799H138.281C137.993 66.1599 136.601 67.0399 134.713 67.0399ZM132.089 61.9039H136.985C136.857 60.1759 135.961 59.4879 134.585 59.4879C133.225 59.4879 132.313 60.4159 132.089 61.9039Z" fill="#010101"/>
<path d="M154.854 61.8959C154.854 60.4231 153.66 59.2292 152.188 59.2292C150.715 59.2292 149.521 60.4231 149.521 61.8959C149.521 63.3686 150.715 64.5625 152.188 64.5625C153.66 64.5625 154.854 63.3686 154.854 61.8959ZM179.688 0.895874H179.188V46.6698H179.688H180.188V0.895874H179.688ZM178.595 48.4521L178.368 48.0065L151.961 61.4503L152.188 61.8959L152.414 62.3415L178.822 48.8977L178.595 48.4521ZM179.688 46.6698H179.188C179.188 47.234 178.871 47.7506 178.368 48.0065L178.595 48.4521L178.822 48.8977C179.66 48.4711 180.188 47.6102 180.188 46.6698H179.688Z" fill="url(#paint0_linear_4001_98)"/>
<defs>
<linearGradient id="paint0_linear_4001_98" x1="178.136" y1="20.714" x2="152.605" y2="48.1838" gradientUnits="userSpaceOnUse">
<stop offset="0.190308" stop-color="#6F69F2"/>
<stop offset="0.895878" stop-color="#269FFB"/>
</linearGradient>
</defs>
</svg>
