<svg width="15" height="9" viewBox="0 0 15 9" fill="none" xmlns="http://www.w3.org/2000/svg">
<path d="M14.2669 1.10007C14.1334 0.966489 13.9749 0.860521 13.8004 0.788222C13.626 0.715923 13.439 0.678711 13.2501 0.678711C13.0613 0.678711 12.8743 0.715923 12.6998 0.788222C12.5253 0.860521 12.3668 0.966489 12.2333 1.10007L7.83841 5.49403C7.74856 5.58386 7.6267 5.63432 7.49964 5.63432C7.37259 5.63432 7.25073 5.58386 7.16087 5.49403L2.76691 1.10007C2.49737 0.830401 2.13174 0.678851 1.75046 0.678761C1.36918 0.678671 1.00348 0.830048 0.733809 1.09959C0.464139 1.36913 0.31259 1.73476 0.3125 2.11604C0.31241 2.49733 0.463787 2.86303 0.73333 3.1327L5.12825 7.52761C5.43971 7.83911 5.80949 8.08621 6.21646 8.25479C6.62343 8.42338 7.05962 8.51015 7.50012 8.51015C7.94063 8.51015 8.37682 8.42338 8.78378 8.25479C9.19075 8.08621 9.56053 7.83911 9.872 7.52761L14.2669 3.1327C14.5364 2.86312 14.6878 2.49756 14.6878 2.11638C14.6878 1.73521 14.5364 1.36964 14.2669 1.10007Z" fill="#010101"/>
</svg>
