<svg width="115" height="485" viewBox="0 0 115 485" fill="none" xmlns="http://www.w3.org/2000/svg">
<g clip-path="url(#clip0_967_3436)">
<g opacity="0.3">
<path d="M3.82641 486.745C-11.7067 487.851 211.061 302.95 13.7069 97.8708C-133.295 -54.8852 -54.3686 -175.613 22.2794 -239.52" stroke="url(#paint0_linear_967_3436)"/>
<path d="M-14.3123 466.278C-29.8454 467.383 192.922 282.482 -4.43176 77.403C-151.434 -75.353 -72.5073 -196.081 4.1407 -259.988" stroke="url(#paint1_linear_967_3436)"/>
<path d="M-32.4529 445.811C-47.986 446.917 174.782 262.015 -22.5724 56.9362C-169.574 -95.8198 -90.6479 -216.548 -13.9999 -280.455" stroke="url(#paint2_linear_967_3436)"/>
<path d="M-50.5916 425.343C-66.1247 426.449 156.643 241.547 -40.7111 36.4685C-187.713 -116.288 -108.787 -237.016 -32.1386 -300.923" stroke="url(#paint3_linear_967_3436)"/>
<path d="M-68.7302 404.875C-84.2633 405.981 138.504 221.08 -58.8497 16.0007C-205.852 -136.755 -126.925 -257.483 -50.2773 -321.39" stroke="url(#paint4_linear_967_3436)"/>
<path d="M-86.8709 384.408C-102.404 385.514 120.364 200.613 -76.9904 -4.46611C-223.992 -157.222 -145.066 -277.95 -68.4179 -341.857" stroke="url(#paint5_linear_967_3436)"/>
<path d="M-105.01 363.941C-120.543 365.046 102.225 180.145 -95.129 -24.9339C-242.131 -177.69 -163.205 -298.418 -86.5566 -362.325" stroke="url(#paint6_linear_967_3436)"/>
</g>
</g>
<defs>
<linearGradient id="paint0_linear_967_3436" x1="107.485" y1="-181.452" x2="-198.93" y2="-119.307" gradientUnits="userSpaceOnUse">
<stop stop-color="#00B9FF"/>
<stop offset="1" stop-color="#6F69F2"/>
</linearGradient>
<linearGradient id="paint1_linear_967_3436" x1="89.3461" y1="-201.92" x2="-217.069" y2="-139.775" gradientUnits="userSpaceOnUse">
<stop stop-color="#00B9FF"/>
<stop offset="1" stop-color="#6F69F2"/>
</linearGradient>
<linearGradient id="paint2_linear_967_3436" x1="71.2055" y1="-222.387" x2="-235.209" y2="-160.242" gradientUnits="userSpaceOnUse">
<stop stop-color="#00B9FF"/>
<stop offset="1" stop-color="#6F69F2"/>
</linearGradient>
<linearGradient id="paint3_linear_967_3436" x1="53.0668" y1="-242.854" x2="-253.348" y2="-180.709" gradientUnits="userSpaceOnUse">
<stop stop-color="#00B9FF"/>
<stop offset="1" stop-color="#6F69F2"/>
</linearGradient>
<linearGradient id="paint4_linear_967_3436" x1="34.9282" y1="-263.322" x2="-271.487" y2="-201.177" gradientUnits="userSpaceOnUse">
<stop stop-color="#00B9FF"/>
<stop offset="1" stop-color="#6F69F2"/>
</linearGradient>
<linearGradient id="paint5_linear_967_3436" x1="16.7876" y1="-283.789" x2="-289.627" y2="-221.644" gradientUnits="userSpaceOnUse">
<stop stop-color="#00B9FF"/>
<stop offset="1" stop-color="#6F69F2"/>
</linearGradient>
<linearGradient id="paint6_linear_967_3436" x1="-1.35112" y1="-304.257" x2="-307.766" y2="-242.112" gradientUnits="userSpaceOnUse">
<stop stop-color="#00B9FF"/>
<stop offset="1" stop-color="#6F69F2"/>
</linearGradient>
<clipPath id="clip0_967_3436">
<rect width="115" height="484" fill="white" transform="matrix(-1 0 0 1 115 0.663086)"/>
</clipPath>
</defs>
</svg>
