<svg width="53" height="27" viewBox="0 0 53 27" fill="none" xmlns="http://www.w3.org/2000/svg">
<path d="M6.47123 0.784885L0.00725984 8.53565L6.98633 7.18845L14.9242 9.84037L6.47123 0.784885Z" fill="url(#paint0_linear_967_4785)"/>
<path d="M7.15462 3.45904C7.6022 3.50128 8.08734 4.23204 8.51566 5.37059C8.61003 5.6513 8.72434 5.96652 8.81547 6.29586C8.92317 6.62677 9.01654 6.97806 9.11989 7.3466C9.31773 8.07742 9.50684 8.88352 9.70705 9.71785C9.81489 10.1303 10.0041 11.018 10.4403 12.2334C10.6578 12.8356 10.9341 13.5303 11.3065 14.283C11.6779 15.0248 12.162 15.8261 12.7733 16.6666C13.3923 17.5024 14.1373 18.3665 15.0447 19.2132C15.4984 19.6365 15.993 20.0583 16.5262 20.4566C16.6601 20.5616 16.8017 20.662 16.9433 20.7623C17.0849 20.8627 17.2176 20.9567 17.3592 21.0571C17.6413 21.2468 17.9399 21.4381 18.2463 21.6246C18.8502 21.9915 19.5016 22.3411 20.1905 22.6562C20.8705 22.965 21.5892 23.2503 22.3365 23.4948C23.8323 23.9948 25.4385 24.3693 27.051 24.6465C27.4523 24.717 27.8612 24.7828 28.269 24.8376C28.6945 24.9049 29.0935 24.9535 29.5013 25.0083C30.3158 25.1069 31.1204 25.1883 31.9227 25.2477C33.5107 25.365 35.0754 25.4148 36.5694 25.4145C39.566 25.4201 42.2795 25.225 44.572 25.0065C46.881 24.7895 48.7525 24.5476 50.0837 24.4014C51.4061 24.249 52.1795 24.1861 52.236 24.2567C52.2759 24.3257 51.6077 24.5344 50.3651 24.8248C49.1224 25.1153 47.3142 25.4936 45.0518 25.8455C42.7894 26.1973 40.0727 26.5225 37.0066 26.6408C33.9405 26.7591 30.5238 26.6595 26.9993 26.1474C25.2331 25.8938 23.4315 25.5334 21.6682 24.9865C20.7794 24.7232 19.9181 24.4081 19.0855 24.0523C18.2529 23.6964 17.4655 23.3014 16.7168 22.8828C16.3419 22.668 15.9912 22.4501 15.6406 22.2322C15.4648 22.1177 15.2977 22.0095 15.1296 21.8904C14.9703 21.7775 14.7944 21.663 14.6429 21.5454C14.0046 21.0829 13.406 20.6078 12.8649 20.1327C11.7739 19.1763 10.8774 18.1947 10.1411 17.2554C9.40478 16.3161 8.82765 15.4081 8.3733 14.577C7.92668 13.7411 7.5951 12.9868 7.32996 12.3203C6.8251 10.9951 6.58051 10.0479 6.46931 9.60251C6.25576 8.71799 6.15389 7.88208 6.11846 7.13397C6.09687 6.76227 6.10183 6.40938 6.11677 6.07375C6.13284 5.74909 6.15887 5.44168 6.20485 5.16877C6.36333 4.06931 6.70705 3.41679 7.15462 3.45904Z" fill="url(#paint1_linear_967_4785)"/>
<path d="M52.2272 24.2503C52.256 24.2911 52.107 24.3585 51.7889 24.459C51.4708 24.5594 50.9749 24.6866 50.374 24.831C49.6605 24.9974 48.8895 25.1638 48.1008 25.3177C47.1187 25.5077 46.0946 25.6884 45.0518 25.8455C43.7593 26.0496 42.5442 26.2066 41.3256 26.3308C40.6274 26.4062 39.9192 26.4644 39.2353 26.5195C38.4939 26.5745 37.7349 26.6171 36.999 26.6454C35.3803 26.7101 33.7461 26.7026 32.1714 26.6355C31.305 26.5918 30.4453 26.5324 29.6087 26.4589C28.7301 26.3759 27.8416 26.2758 26.9916 26.1521C26.0588 26.0205 25.1635 25.8545 24.3246 25.6774C23.3928 25.4753 22.4996 25.2497 21.6605 24.9911C20.7883 24.7293 19.9182 24.408 19.0767 24.0459C18.2873 23.7105 17.4999 23.3154 16.7158 22.8717C16.3243 22.6554 15.9481 22.4297 15.6406 22.2322C15.5964 22.2008 15.5611 22.1756 15.5091 22.149C15.3852 22.0612 15.2535 21.9782 15.1296 21.8904C15.0765 21.8527 15.0323 21.8213 14.9792 21.7837C14.873 21.7084 14.7502 21.6317 14.6429 21.5454C14.0311 21.1017 13.4237 20.6204 12.8649 20.1327C12.3338 19.6749 11.8326 19.1871 11.3633 18.6916C10.9305 18.2322 10.5198 17.7476 10.1334 17.26C9.46246 16.3975 8.86103 15.4927 8.36567 14.5816C7.98885 13.8665 7.64294 13.1326 7.32232 12.3249C6.83081 11.0499 6.59507 10.109 6.47502 9.6573L6.46168 9.60711C6.27144 8.79003 6.14526 7.95725 6.10197 7.1323C6.08362 6.71198 6.08523 6.32616 6.1003 6.07208C6.1196 5.6988 6.14788 5.41335 6.18837 5.16711C6.23435 4.8942 6.28257 4.64325 6.343 4.43151C6.41117 4.21506 6.48271 4.03154 6.56646 3.88723C6.65021 3.74292 6.74505 3.62684 6.83666 3.55938C6.93599 3.48722 7.04753 3.45425 7.14699 3.46364C7.37022 3.47927 7.6103 3.65959 7.83404 4.00144C8.06439 4.32762 8.29153 4.78406 8.51566 5.37059C8.63334 5.71874 8.72883 6.01044 8.81547 6.29586C8.92205 6.61579 9.01439 6.956 9.10003 7.312L9.11989 7.3466C9.30776 8.06017 9.50132 8.82853 9.69156 9.64561L9.70705 9.71785C9.72039 9.76804 9.7438 9.83537 9.75165 9.91222C9.87395 10.3858 10.0707 11.1873 10.4403 12.2334C10.7133 12.9767 10.9951 13.6447 11.3144 14.2782C11.7179 15.0937 12.2107 15.9014 12.7733 16.6666C13.4487 17.573 14.2181 18.4339 15.0447 19.2132C15.5161 19.6491 16.0108 20.0708 16.5352 20.4627C16.6159 20.5302 16.7133 20.5992 16.8018 20.6619C16.846 20.6932 16.899 20.731 16.9433 20.7623C17.0406 20.8313 17.1381 20.9002 17.2354 20.9692C17.2797 21.0005 17.3239 21.0319 17.3682 21.0632C17.6414 21.2467 17.9489 21.4442 18.2552 21.6308C18.8934 22.0118 19.5525 22.3567 20.1983 22.6514C20.8872 22.9665 21.6058 23.2519 22.3365 23.4948C23.0507 23.7362 23.8368 23.957 24.6537 24.1592C25.402 24.3331 26.2156 24.5023 27.06 24.6527C27.5529 24.7373 27.9199 24.7936 28.278 24.8437C28.6195 24.8923 28.9687 24.9361 29.3014 24.9784C29.3677 24.9847 29.4262 24.9957 29.5013 25.0083C30.2738 25.0975 31.0785 25.1788 31.9139 25.2413C33.4279 25.357 34.9937 25.418 36.5694 25.4145C39.8036 25.4153 42.6939 25.1825 44.5798 25.0017C46.2956 24.8429 47.7804 24.6732 48.9724 24.5302C49.3702 24.4862 49.7512 24.4407 50.0837 24.4014C50.8051 24.3119 51.3013 24.2662 51.6349 24.2379C51.9852 24.2111 52.183 24.2189 52.2272 24.2503ZM14.7503 21.6316C14.8299 21.688 14.9007 21.7382 14.9715 21.7884C15.0246 21.826 15.0689 21.8573 15.122 21.895C15.2459 21.9828 15.3775 22.0659 15.5091 22.149C15.5533 22.1803 15.5887 22.2055 15.6406 22.2322C15.9481 22.4297 16.3242 22.6555 16.7168 22.8828C17.5009 23.3265 18.2873 23.7105 19.0767 24.0459C19.9093 24.4018 20.7883 24.7293 21.6605 24.9911C23.2624 25.4848 25.0089 25.8671 26.9916 26.1521C30.1824 26.6109 33.5484 26.7764 36.999 26.6454C39.5911 26.5476 42.2316 26.2804 45.0684 25.8469C46.0947 25.6883 47.1276 25.514 48.1008 25.3177C48.8895 25.1638 49.6515 24.9912 50.3651 24.8248C50.9748 24.6867 51.462 24.5532 51.7889 24.459C52.107 24.3585 52.256 24.2911 52.2272 24.2503C52.183 24.2189 51.9852 24.2111 51.6349 24.2379C51.2924 24.2599 50.8141 24.3181 50.1004 24.4029C49.7679 24.4422 49.3867 24.4878 48.989 24.5318C47.797 24.6747 46.3122 24.8445 44.5975 25.0142C43.2397 25.1416 42.0178 25.2328 40.851 25.3021C39.3661 25.3902 37.9661 25.4266 36.5871 25.4269C35.0026 25.4241 33.4456 25.3696 31.9316 25.2539C31.0785 25.1788 30.2661 25.1022 29.5013 25.0083C29.435 25.002 29.36 24.9894 29.2936 24.9831C28.961 24.9408 28.6117 24.897 28.278 24.8437C27.9199 24.7936 27.5529 24.7373 27.06 24.6527C26.2078 24.507 25.4031 24.3441 24.6537 24.1592C23.8368 23.957 23.0507 23.7362 22.3365 23.4948C21.6058 23.2519 20.8959 22.9728 20.1905 22.6562C19.5447 22.3615 18.8945 22.0228 18.2552 21.6308C17.9323 21.4427 17.6414 21.2467 17.3682 21.0632C17.3239 21.0319 17.2797 21.0005 17.2354 20.9692C17.1381 20.9002 17.0406 20.8313 16.9433 20.7623C16.899 20.731 16.846 20.6932 16.8018 20.6619C16.7133 20.5992 16.6159 20.5302 16.5352 20.4627C16.0274 20.0723 15.5161 19.6491 15.0447 19.2132C14.2015 18.4323 13.441 17.5777 12.7733 16.6666C12.2019 15.8951 11.7178 15.0938 11.3065 14.283C10.995 13.6448 10.7045 12.9704 10.4403 12.2334C10.0619 11.1811 9.87395 10.3858 9.75165 9.91222C9.73607 9.84008 9.72039 9.76804 9.70705 9.71785L9.69156 9.64561C9.4936 8.83323 9.3166 8.06644 9.11989 7.3466L9.11661 7.31356C9.01439 6.956 8.92214 6.61568 8.83213 6.29732C8.72892 6.01033 8.64107 5.71403 8.51566 5.37059C8.29153 4.78406 8.06439 4.32762 7.83404 4.00144C7.59372 3.65802 7.37134 3.49025 7.14699 3.46364C7.03096 3.45269 6.93599 3.48722 6.83666 3.55938C6.73732 3.63155 6.64908 3.73195 6.56646 3.88723C6.48271 4.03154 6.41118 4.21506 6.35186 4.43778C6.29142 4.64953 6.23425 4.8943 6.20485 5.16877C6.16435 5.41502 6.12732 5.6941 6.1003 6.07208C6.09296 6.32145 6.10011 6.71365 6.11846 7.13397C6.16175 7.95892 6.27144 8.79003 6.47826 9.60868L6.4916 9.65887C6.59507 10.109 6.83854 11.0452 7.32232 12.3249C7.64294 13.1326 7.98876 13.8666 8.3733 14.577C8.86094 15.4928 9.46246 16.3975 10.1334 17.26C10.9362 18.2871 11.8559 19.2546 12.8573 20.1373C13.4161 20.625 14.0235 21.1063 14.6352 21.55C14.6706 21.5751 14.706 21.6002 14.7503 21.6316Z" fill="url(#paint2_linear_967_4785)"/>
<defs>
<linearGradient id="paint0_linear_967_4785" x1="-1.99993" y1="21.7505" x2="43.4115" y2="-46.3266" gradientUnits="userSpaceOnUse">
<stop stop-color="#6F69F2"/>
<stop offset="0.813974" stop-color="#00B9FF"/>
</linearGradient>
<linearGradient id="paint1_linear_967_4785" x1="-1.99993" y1="21.7505" x2="43.4115" y2="-46.3266" gradientUnits="userSpaceOnUse">
<stop stop-color="#6F69F2"/>
<stop offset="0.813974" stop-color="#00B9FF"/>
</linearGradient>
<linearGradient id="paint2_linear_967_4785" x1="-1.99993" y1="21.7505" x2="43.4115" y2="-46.3266" gradientUnits="userSpaceOnUse">
<stop stop-color="#6F69F2"/>
<stop offset="0.813974" stop-color="#00B9FF"/>
</linearGradient>
</defs>
</svg>
