<svg width="915" height="203" viewBox="0 0 915 203" fill="none" xmlns="http://www.w3.org/2000/svg">
<path opacity="0.3" d="M914 202C889.37 179.849 820.213 133.004 740.627 122.831C641.145 110.114 571.219 52.2755 520.397 0.999999M496.608 0.999999C510.425 43.251 563.722 142.602 666.376 202M483.632 0.999999C475.822 47.6265 472.242 153.104 520.397 202M439.298 0.999999C441.22 53.3694 434.684 166.887 393.161 202M419.473 0.999999C406.497 39.2857 354.305 133.086 249.345 202M388.115 0.999999C363.004 35.3204 281.568 108.556 156.711 126.933C128.356 129.804 57.5173 148.838 1 202" stroke="url(#paint0_linear_967_4727)"/>
<rect width="292" height="65.7115" transform="matrix(1 0 0 -1 312 66.7118)" fill="url(#paint1_linear_967_4727)"/>
<defs>
<linearGradient id="paint0_linear_967_4727" x1="1" y1="186.538" x2="85.2848" y2="-180.993" gradientUnits="userSpaceOnUse">
<stop stop-color="#00B9FF"/>
<stop offset="1" stop-color="#6F69F2"/>
</linearGradient>
<linearGradient id="paint1_linear_967_4727" x1="146" y1="0" x2="146" y2="65.7115" gradientUnits="userSpaceOnUse">
<stop stop-color="white" stop-opacity="0"/>
<stop offset="0.899845" stop-color="white"/>
</linearGradient>
</defs>
</svg>
