<svg width="76" height="30" viewBox="0 0 76 30" fill="none" xmlns="http://www.w3.org/2000/svg">
<path d="M68.6438 0.0791016L76 11.4597L66.5737 8.32248L54.9681 10.2073L68.6438 0.0791016Z" fill="url(#paint0_linear_967_5100)"/>
<path d="M67.1277 3.42887C66.496 3.39533 65.6665 4.25165 64.8299 5.65066C64.6393 5.99782 64.4136 6.386 64.2172 6.79717C63.9974 7.20709 63.7932 7.64643 63.5715 8.10627C63.1418 9.01954 62.7083 10.0326 62.2534 11.0803C62.0162 11.5965 61.5652 12.7159 60.7014 14.2135C60.2715 14.9553 59.7403 15.806 59.063 16.7132C58.3895 17.6064 57.5465 18.5549 56.5183 19.5293C55.4803 20.496 54.2611 21.4746 52.8195 22.3984C52.0988 22.8603 51.3214 23.3121 50.4953 23.7256C50.2868 23.836 50.0686 23.9387 49.8504 24.0415C49.6321 24.1442 49.4275 24.2405 49.2093 24.3433C48.7767 24.5347 48.3208 24.7249 47.855 24.9074C46.9372 25.2659 45.957 25.5926 44.9318 25.8669C43.9203 26.1347 42.86 26.3643 41.7684 26.535C39.5814 26.8905 37.2675 27.0606 34.965 27.1027C34.3919 27.1151 33.8089 27.1199 33.2299 27.1106C32.6236 27.1142 32.0582 27.0984 31.4791 27.0891C30.3249 27.0564 29.1882 27.0032 28.0593 26.9218C25.8249 26.7603 23.6371 26.5156 21.5585 26.2194C17.3876 25.6336 13.6531 24.8422 10.5094 24.1036C7.34237 23.3638 4.7895 22.6781 2.96801 22.2241C1.16017 21.7637 0.0973447 21.5286 0.00386325 21.6094C-0.0662215 21.6914 0.819397 22.0957 2.48707 22.7202C4.15475 23.3447 6.59085 24.1957 9.66453 25.102C12.7382 26.0084 16.4495 26.97 20.6908 27.7311C24.9321 28.4922 29.7074 29.0387 34.7198 29.069C37.231 29.088 39.814 28.9751 42.3832 28.6113C43.6755 28.4441 44.9405 28.204 46.1743 27.905C47.408 27.6061 48.5871 27.2471 49.7173 26.8498C50.2844 26.6441 50.8184 26.4295 51.3523 26.2149C51.6212 26.1005 51.8765 25.9926 52.1356 25.8706C52.3811 25.755 52.65 25.6407 52.8858 25.5174C53.8717 25.041 54.8049 24.5403 55.6582 24.0283C57.3784 22.9977 58.8334 21.8959 60.0565 20.8176C61.2795 19.7392 62.2744 18.6701 63.0823 17.6769C63.8804 16.676 64.5012 15.7586 65.011 14.9425C65.9935 13.3154 66.534 12.1294 66.7829 11.5709C67.267 10.4605 67.5854 9.39122 67.7928 8.42328C67.9014 7.94314 67.9691 7.48226 68.0192 7.04189C68.0655 6.61561 68.0942 6.20983 68.088 5.84507C68.0998 4.38084 67.7594 3.46241 67.1277 3.42887Z" fill="url(#paint1_linear_967_5100)"/>
<path d="M0.0173866 21.6028C-0.0312951 21.6503 0.161858 21.7677 0.58321 21.9616C1.00456 22.1554 1.66775 22.4193 2.47332 22.7265C3.43101 23.0846 4.46865 23.4541 5.53358 23.8107C6.85985 24.2527 8.24667 24.6909 9.66453 25.102C11.4198 25.624 13.0774 26.0691 14.7468 26.4722C15.7024 26.7087 16.6755 26.9247 17.6154 27.1318C18.6354 27.3503 19.6825 27.556 20.7005 27.7386C22.9391 28.1433 25.2147 28.4571 27.4199 28.6813C28.6347 28.7958 29.8436 28.8886 31.0232 28.9584C32.2632 29.0242 33.5207 29.0695 34.7295 29.0765C36.0552 29.0898 37.3361 29.0506 38.5409 28.9859C39.8801 28.907 41.1706 28.7897 42.3928 28.6188C43.6618 28.4503 44.9404 28.2038 46.1878 27.8985C47.3572 27.6176 48.5363 27.2586 49.7211 26.8356C50.3116 26.6311 50.8827 26.4115 51.3523 26.2149C51.4205 26.1828 51.4749 26.157 51.5529 26.1325C51.7438 26.0426 51.9447 25.9605 52.1356 25.8706C52.2174 25.8321 52.2855 25.7998 52.3674 25.7613C52.531 25.6842 52.7182 25.6086 52.8858 25.5174C53.8308 25.0603 54.7776 24.5532 55.6582 24.0283C56.494 23.5367 57.2945 23.0003 58.0522 22.4474C58.7515 21.9343 59.4254 21.3842 60.0661 20.8251C61.182 19.8339 62.2101 18.7738 63.0919 17.6844C63.7674 16.8271 64.4038 15.9391 65.0206 14.95C65.974 13.3857 66.5009 12.2061 66.7634 11.6412L66.7926 11.5784C67.23 10.5512 67.5815 9.49091 67.8161 8.42437C67.9305 7.88022 68.0098 7.37709 68.0425 7.04298C68.0946 6.5527 68.1155 6.17509 68.1112 5.84616C68.1049 5.4814 68.0909 5.1448 68.0515 4.85689C68.0024 4.56131 67.9417 4.30799 67.8556 4.10334C67.7696 3.89869 67.6622 3.72864 67.549 3.62259C67.426 3.50888 67.2777 3.44384 67.1374 3.43638C66.8235 3.41257 66.4513 3.60004 66.0677 4.00127C65.6783 4.38075 65.2657 4.93065 64.8299 5.65066C64.5926 6.08109 64.3981 6.44234 64.2172 6.79717C64.0013 7.19301 63.8009 7.6181 63.6065 8.0651L63.5715 8.10627C63.1593 8.99903 62.7276 9.96206 62.2902 10.9893L62.2534 11.0803C62.2242 11.1431 62.1774 11.2262 62.1502 11.3248C61.88 11.9178 61.4368 12.9234 60.7014 14.2135C60.1645 15.1282 59.6312 15.9429 59.0531 16.7054C58.3193 17.6883 57.4628 18.6434 56.5183 19.5293C55.3869 20.5768 54.1345 21.5464 52.8195 22.3984C52.0715 22.8732 51.294 23.3248 50.4815 23.7318C50.3549 23.8037 50.2049 23.8744 50.0685 23.9386C50.0003 23.9707 49.9186 24.0094 49.8504 24.0415C49.7003 24.1121 49.5502 24.1826 49.4002 24.2532C49.332 24.2853 49.2638 24.3174 49.1956 24.3496C48.7766 24.5345 48.307 24.7311 47.8413 24.9136C46.8728 25.2838 45.8828 25.6028 44.9219 25.8591C43.8968 26.1333 42.8366 26.363 41.7684 26.535C40.7237 26.7082 39.5832 26.8404 38.4038 26.9421C37.3258 27.0207 36.158 27.0801 34.9513 27.109C34.2475 27.1216 33.725 27.1225 33.2161 27.1169C32.7307 27.1125 32.2355 27.1005 31.7637 27.0898C31.6701 27.0848 31.5863 27.0877 31.4791 27.0891C30.3853 27.0525 29.2486 26.9991 28.0728 26.9153C25.9417 26.7664 23.7502 26.5359 21.5585 26.2194C17.058 25.5803 13.0855 24.7047 10.4996 24.0958C8.14572 23.5493 6.11555 23.0342 4.48711 22.6119C3.943 22.4758 3.42241 22.3411 2.96801 22.2241C1.98314 21.9646 1.30243 21.8068 0.844142 21.7039C0.362463 21.5997 0.0855831 21.5707 0.0173866 21.6028ZM52.7181 25.6084C52.5953 25.6662 52.4862 25.7176 52.3771 25.769C52.2953 25.8075 52.2271 25.8396 52.1453 25.8781C51.9543 25.968 51.7536 26.0503 51.5529 26.1325C51.4847 26.1646 51.4302 26.1905 51.3523 26.2149C50.8827 26.4115 50.3117 26.6313 49.7173 26.8498C48.5325 27.2728 47.3572 27.6176 46.1878 27.8985C44.9541 28.1974 43.6618 28.4503 42.3928 28.6188C40.0595 28.9451 37.5486 29.0976 34.7295 29.0765C30.1927 29.0429 25.4741 28.5923 20.7005 27.7386C17.1144 27.0981 13.4968 26.2272 9.64102 25.1007C8.24655 24.6908 6.84621 24.2591 5.53358 23.8107C4.46865 23.4541 3.44477 23.0783 2.48707 22.7202C1.66787 22.4195 1.0182 22.149 0.58321 21.9616C0.161858 21.7677 -0.0312951 21.6503 0.0173866 21.6028C0.0855831 21.5707 0.362463 21.5997 0.844142 21.7039C1.31606 21.8004 1.96939 21.9708 2.9445 22.2227C3.3989 22.3397 3.91961 22.4745 4.46372 22.6106C6.09215 23.0329 8.12232 23.548 10.4723 24.1087C12.3347 24.5434 14.0157 24.9042 15.6245 25.2254C17.6721 25.6342 19.6123 25.9587 21.5311 26.2321C23.7365 26.5421 25.9145 26.7792 28.0456 26.9281C29.2486 26.9991 30.3951 27.0602 31.4791 27.0891C31.5727 27.0941 31.6798 27.0925 31.7734 27.0975C32.2452 27.1082 32.7404 27.1202 33.2161 27.1169C33.725 27.1225 34.2475 27.1216 34.9513 27.109C36.1678 27.0878 37.3219 27.0348 38.4038 26.9421C39.5832 26.8404 40.7237 26.7082 41.7684 26.535C42.8366 26.363 43.8833 26.1399 44.9318 25.8669C45.8927 25.6106 46.8689 25.2979 47.8413 24.9136C48.3304 24.7324 48.7766 24.5345 49.1956 24.3496C49.2638 24.3174 49.332 24.2853 49.4002 24.2532C49.5502 24.1826 49.7003 24.1121 49.8504 24.0415C49.9186 24.0094 50.0003 23.9707 50.0685 23.9386C50.2049 23.8744 50.3549 23.8037 50.4815 23.7318C51.2706 23.3236 52.0715 22.8732 52.8195 22.3984C54.1579 21.5477 55.3966 20.5845 56.5183 19.5293C57.4764 18.6369 58.3194 17.6884 59.063 16.7132C59.6313 15.9431 60.1781 15.1218 60.7014 14.2135C61.4504 12.917 61.88 11.9178 62.1502 11.3248C62.1872 11.2339 62.2242 11.1431 62.2534 11.0803L62.2902 10.9893C62.7374 9.96972 63.1457 9.00545 63.5715 8.10627L63.5831 8.06386C63.8009 7.6181 64.0012 7.19285 64.1937 6.79577C64.398 6.44218 64.5828 6.07343 64.8299 5.65066C65.2657 4.93065 65.6783 4.38075 66.0677 4.00127C66.4747 3.60128 66.8196 3.42666 67.1374 3.43638C67.3011 3.44508 67.426 3.50888 67.549 3.62259C67.6719 3.7363 67.7735 3.88461 67.8556 4.10334C67.9417 4.30799 68.0024 4.56131 68.0379 4.86331C68.0772 5.15123 68.105 5.48155 68.088 5.84507C68.0923 6.174 68.0848 6.54503 68.0425 7.04298C68 7.36943 67.9072 7.87913 67.7928 8.42328C67.5582 9.48982 67.2299 10.5512 66.7692 11.5772L66.74 11.6399C66.5009 12.2061 65.9642 13.378 65.0206 14.95C64.4038 15.9391 63.7675 16.8272 63.0823 17.6769C62.2102 18.7739 61.182 19.8339 60.0661 20.8251C58.7321 22.0047 57.2478 23.0835 55.6679 24.0358C54.7873 24.5607 53.8404 25.0678 52.8954 25.5249C52.8409 25.5506 52.7863 25.5763 52.7181 25.6084Z" fill="url(#paint2_linear_967_5100)"/>
<defs>
<linearGradient id="paint0_linear_967_5100" x1="76" y1="29.0791" x2="32.2267" y2="-70.8326" gradientUnits="userSpaceOnUse">
<stop stop-color="#6F69F2"/>
<stop offset="0.813974" stop-color="#00B9FF"/>
</linearGradient>
<linearGradient id="paint1_linear_967_5100" x1="76" y1="29.0791" x2="32.2267" y2="-70.8326" gradientUnits="userSpaceOnUse">
<stop stop-color="#6F69F2"/>
<stop offset="0.813974" stop-color="#00B9FF"/>
</linearGradient>
<linearGradient id="paint2_linear_967_5100" x1="76" y1="29.0791" x2="32.2267" y2="-70.8326" gradientUnits="userSpaceOnUse">
<stop stop-color="#6F69F2"/>
<stop offset="0.813974" stop-color="#00B9FF"/>
</linearGradient>
</defs>
</svg>
