<svg width="658" height="612" viewBox="0 0 658 612" fill="none" xmlns="http://www.w3.org/2000/svg">
<path opacity="0.05" d="M658 308.931C658 447.975 517.008 579 381.45 579C245.892 579 136 466.282 136 327.237C136 188.193 182.631 96.2526 318.011 103.388C407.426 108.1 658 169.886 658 308.931Z" fill="url(#paint0_linear_4011_113)"/>
<g filter="url(#filter0_d_4011_113)">
<path d="M299.983 197.699C330.664 180.624 365.669 172.895 400.687 175.463C435.706 178.031 469.208 190.784 497.07 212.152C524.932 233.52 545.936 262.57 557.496 295.725C569.056 328.88 570.668 364.691 562.133 398.75C553.597 432.809 535.287 463.629 509.458 487.413C483.628 511.198 451.407 526.909 416.761 532.612C382.115 538.315 346.557 533.762 314.466 519.512C282.376 505.262 255.153 481.938 236.15 452.413L376.479 362.098C382.689 358.102 384.726 349.97 381.136 343.518L299.983 197.699Z" fill="url(#paint1_linear_4011_113)"/>
<path d="M297.799 198.914L296.583 196.73L298.768 195.514C329.875 178.202 365.366 170.366 400.87 172.969C436.375 175.573 470.343 188.504 498.591 210.169C526.84 231.833 548.136 261.287 559.857 294.902C571.578 328.517 573.212 364.826 564.558 399.358C555.904 433.89 537.34 465.138 511.151 489.252C484.963 513.367 452.294 529.297 417.167 535.079C382.039 540.862 345.988 536.245 313.452 521.797C280.915 507.349 253.315 483.701 234.048 453.766L232.695 451.663L234.797 450.31L375.126 359.996C380.227 356.713 381.901 350.033 378.951 344.733L297.799 198.914Z" stroke="url(#paint2_linear_4011_113)" stroke-opacity="0.1" stroke-width="5"/>
<path d="M288.26 203.111C268.316 214.21 250.859 229.282 236.968 247.394C223.077 265.506 213.048 286.273 207.499 308.414C201.951 330.554 201.001 353.597 204.708 376.12C208.416 398.642 216.702 420.164 229.055 439.358L356.832 357.122C363.928 352.555 366.258 343.261 362.154 335.887L288.26 203.111Z" fill="#00B9FF"/>
<path d="M287.531 201.8L288.841 201.071L289.571 202.381L363.464 335.157C367.953 343.223 365.406 353.388 357.644 358.383L229.867 440.619L228.605 441.431L227.794 440.17C215.33 420.804 206.969 399.088 203.228 376.363C199.488 353.639 200.446 330.389 206.044 308.049C211.643 285.71 221.762 264.755 235.778 246.481C249.793 228.206 267.407 212.999 287.531 201.8Z" stroke="#00B9FF" stroke-opacity="0.1" stroke-width="3"/>
</g>
<path d="M246.602 322L252.242 304.84H257.306L262.874 322H258.818L257.642 318.184H251.426L250.25 322H246.602ZM254.546 308.008L252.266 315.424H256.802L254.546 308.008ZM270.244 322.264C266.572 322.264 263.788 319.984 263.788 315.88V315.688C263.788 311.632 266.692 309.16 270.268 309.16C273.172 309.16 275.86 310.432 276.172 314.032H272.884C272.644 312.568 271.756 311.896 270.34 311.896C268.54 311.896 267.34 313.24 267.34 315.64V315.832C267.34 318.352 268.468 319.648 270.412 319.648C271.804 319.648 272.932 318.832 273.1 317.224H276.244C276.052 320.2 273.892 322.264 270.244 322.264ZM283.015 322.24C280.375 322.24 278.959 320.896 278.959 318.28V311.92H277.351V309.448H278.959V306.736H282.415V309.448H285.055V311.92H282.415V317.968C282.415 318.976 282.919 319.456 283.807 319.456C284.335 319.456 284.719 319.384 285.127 319.216V321.904C284.647 322.072 283.951 322.24 283.015 322.24ZM287.573 322V309.448H291.029V322H287.573ZM289.277 307.744C288.173 307.744 287.309 306.928 287.309 305.848C287.309 304.768 288.173 303.952 289.277 303.952C290.405 303.952 291.269 304.768 291.269 305.848C291.269 306.928 290.405 307.744 289.277 307.744ZM297.611 322L293.027 309.448H296.747L299.747 318.424L302.723 309.448H306.083L301.523 322H297.611ZM313.136 322.264C309.344 322.264 306.584 319.888 306.584 315.88V315.688C306.584 311.728 309.392 309.16 313.04 309.16C316.28 309.16 319.16 311.056 319.16 315.544V316.504H310.112C310.208 318.592 311.336 319.792 313.232 319.792C314.84 319.792 315.632 319.096 315.848 318.04H319.136C318.728 320.752 316.568 322.264 313.136 322.264ZM310.16 314.368H315.776C315.656 312.472 314.696 311.56 313.04 311.56C311.48 311.56 310.424 312.592 310.16 314.368Z" fill="white"/>
<path d="M256.968 343.144C254.536 343.144 253.048 341.624 252.968 339.624H254.248C254.376 340.984 255.192 342.024 257 342.024C258.792 342.024 259.608 341.16 259.608 339.816C259.608 338.344 258.808 337.592 257.192 337.592H256.328V336.424H257.128C258.616 336.424 259.272 335.72 259.272 334.472C259.272 333.384 258.584 332.552 257.192 332.552C255.768 332.552 254.808 333.416 254.664 334.712H253.448C253.528 332.904 255.016 331.416 257.192 331.416C259.368 331.416 260.632 332.856 260.632 334.44C260.632 335.736 259.864 336.504 258.824 336.936C260.168 337.288 261.032 338.232 261.032 339.816C261.032 341.896 259.336 343.144 256.968 343.144ZM266.848 343.144C264.976 343.144 262.896 342.024 262.896 339.752C262.896 338.216 263.84 337.224 265.056 336.792C263.968 336.376 263.328 335.512 263.328 334.392C263.328 332.536 265.088 331.416 266.848 331.416C268.624 331.416 270.352 332.568 270.352 334.36C270.352 335.512 269.648 336.312 268.592 336.776C269.92 337.256 270.784 338.248 270.784 339.72C270.784 342.008 268.784 343.144 266.848 343.144ZM266.848 342.008C268.256 342.008 269.36 341.192 269.36 339.672C269.36 338.168 268.24 337.4 266.88 337.4C265.52 337.4 264.32 338.184 264.32 339.704C264.32 341.208 265.52 342.008 266.848 342.008ZM266.896 336.296C268.112 336.296 268.944 335.592 268.944 334.376C268.944 333.272 268.032 332.504 266.848 332.504C265.664 332.504 264.736 333.224 264.736 334.408C264.736 335.608 265.728 336.296 266.896 336.296ZM277.899 343V340.6H272.171V340.152L277.403 331.56H279.259V339.464H280.843V340.6H279.259V343H277.899ZM273.931 339.464H277.899V332.616L273.931 339.464ZM282.706 344.968L281.842 344.52L283.378 341.016L284.674 341.624L282.706 344.968ZM290.056 343.144C286.936 343.144 285.944 340.808 285.944 337.944V337.672C285.944 333.56 287.8 331.416 290.424 331.416C292.2 331.416 293.464 332.344 293.768 334.184H292.44C292.184 333.128 291.608 332.552 290.328 332.552C288.6 332.552 287.384 334.104 287.32 337.128C287.864 336.2 288.936 335.576 290.264 335.576C292.536 335.576 294.008 337.224 294.008 339.32C294.008 341.608 292.472 343.144 290.056 343.144ZM290.056 342.056C291.56 342.056 292.584 341 292.584 339.384C292.584 337.736 291.592 336.664 290.04 336.664C288.504 336.664 287.416 337.704 287.416 339.192C287.416 341.064 288.52 342.056 290.056 342.056ZM295.195 343V342.68L299.739 337.896C300.779 336.792 301.387 335.752 301.387 334.584C301.387 333.304 300.635 332.536 299.339 332.536C298.011 332.536 297.147 333.288 296.923 335.08H295.627C295.803 332.84 297.163 331.416 299.339 331.416C301.451 331.416 302.795 332.664 302.795 334.632C302.795 336.04 301.899 337.416 300.491 338.792L297.339 341.864H302.859V343H295.195ZM308.39 343.128C306.278 343.128 305.014 342.024 304.71 340.184H306.054C306.31 341.304 306.95 341.992 308.422 341.992C310.246 341.992 311.318 340.488 311.35 337.448C310.806 338.376 309.702 338.968 308.39 338.968C306.166 338.968 304.63 337.384 304.63 335.224C304.63 332.936 306.166 331.4 308.582 331.4C311.286 331.4 312.694 333.224 312.694 336.52V337.24C312.694 341.032 311.126 343.128 308.39 343.128ZM308.598 337.88C310.134 337.88 311.222 336.888 311.222 335.4C311.222 333.528 310.118 332.488 308.582 332.488C307.078 332.488 306.054 333.544 306.054 335.16C306.054 336.808 307.046 337.88 308.598 337.88Z" fill="white"/>
<path d="M442.337 380V365.864H437.705V362.84H450.881V365.864H446.249V380H442.337ZM457.037 377.624C458.981 377.624 460.109 376.184 460.109 373.808V373.64C460.109 371.24 458.981 369.8 457.037 369.8C455.117 369.8 453.965 371.192 453.965 373.592V373.784C453.965 376.184 455.069 377.624 457.037 377.624ZM457.013 380.264C453.269 380.264 450.413 377.768 450.413 373.856V373.664C450.413 369.728 453.269 367.16 457.037 367.16C460.805 367.16 463.637 369.68 463.637 373.592V373.784C463.637 377.744 460.781 380.264 457.013 380.264ZM470.554 380.24C467.914 380.24 466.498 378.896 466.498 376.28V369.92H464.89V367.448H466.498V364.736H469.954V367.448H472.594V369.92H469.954V375.968C469.954 376.976 470.458 377.456 471.346 377.456C471.874 377.456 472.258 377.384 472.666 377.216V379.904C472.186 380.072 471.49 380.24 470.554 380.24ZM478.518 380.264C476.238 380.264 474.318 379.16 474.318 376.52C474.318 373.592 477.006 372.488 480.846 372.488H482.262V371.984C482.262 370.496 481.806 369.68 480.222 369.68C478.854 369.68 478.23 370.376 478.086 371.456H474.798C475.014 368.48 477.366 367.16 480.438 367.16C483.51 367.16 485.694 368.408 485.694 371.816V380H482.31V378.488C481.59 379.496 480.486 380.264 478.518 380.264ZM479.55 377.84C481.086 377.84 482.262 377 482.262 375.608V374.552H480.918C478.902 374.552 477.726 374.984 477.726 376.328C477.726 377.24 478.278 377.84 479.55 377.84ZM488.777 380V361.76H492.233V380H488.777Z" fill="white"/>
<path d="M428.585 401V400.68L433.129 395.896C434.169 394.792 434.777 393.752 434.777 392.584C434.777 391.304 434.025 390.536 432.729 390.536C431.401 390.536 430.537 391.288 430.313 393.08H429.017C429.193 390.84 430.553 389.416 432.729 389.416C434.841 389.416 436.185 390.664 436.185 392.632C436.185 394.04 435.289 395.416 433.881 396.792L430.729 399.864H436.249V401H428.585ZM438.424 402.968L437.56 402.52L439.096 399.016L440.392 399.624L438.424 402.968ZM445.656 401.128C443.544 401.128 442.28 400.024 441.976 398.184H443.32C443.576 399.304 444.216 399.992 445.688 399.992C447.512 399.992 448.584 398.488 448.616 395.448C448.072 396.376 446.968 396.968 445.656 396.968C443.432 396.968 441.896 395.384 441.896 393.224C441.896 390.936 443.432 389.4 445.848 389.4C448.552 389.4 449.96 391.224 449.96 394.52V395.24C449.96 399.032 448.392 401.128 445.656 401.128ZM445.864 395.88C447.4 395.88 448.488 394.888 448.488 393.4C448.488 391.528 447.384 390.488 445.848 390.488C444.344 390.488 443.32 391.544 443.32 393.16C443.32 394.808 444.312 395.88 445.864 395.88ZM456.01 401.144C452.89 401.144 451.898 398.808 451.898 395.944V395.672C451.898 391.56 453.754 389.416 456.378 389.416C458.154 389.416 459.418 390.344 459.722 392.184H458.394C458.138 391.128 457.562 390.552 456.282 390.552C454.554 390.552 453.338 392.104 453.274 395.128C453.818 394.2 454.89 393.576 456.218 393.576C458.49 393.576 459.962 395.224 459.962 397.32C459.962 399.608 458.426 401.144 456.01 401.144ZM456.01 400.056C457.514 400.056 458.538 399 458.538 397.384C458.538 395.736 457.546 394.664 455.994 394.664C454.458 394.664 453.37 395.704 453.37 397.192C453.37 399.064 454.474 400.056 456.01 400.056ZM465.484 401.144C463.052 401.144 461.564 399.624 461.484 397.624H462.764C462.892 398.984 463.708 400.024 465.516 400.024C467.308 400.024 468.124 399.16 468.124 397.816C468.124 396.344 467.324 395.592 465.708 395.592H464.844V394.424H465.644C467.132 394.424 467.788 393.72 467.788 392.472C467.788 391.384 467.1 390.552 465.708 390.552C464.284 390.552 463.324 391.416 463.18 392.712H461.964C462.044 390.904 463.532 389.416 465.708 389.416C467.884 389.416 469.148 390.856 469.148 392.44C469.148 393.736 468.38 394.504 467.34 394.936C468.684 395.288 469.548 396.232 469.548 397.816C469.548 399.896 467.852 401.144 465.484 401.144ZM471.628 402.968L470.764 402.52L472.299 399.016L473.596 399.624L471.628 402.968ZM479.161 401.144C477.289 401.144 475.209 400.024 475.209 397.752C475.209 396.216 476.153 395.224 477.369 394.792C476.281 394.376 475.641 393.512 475.641 392.392C475.641 390.536 477.401 389.416 479.161 389.416C480.937 389.416 482.665 390.568 482.665 392.36C482.665 393.512 481.961 394.312 480.905 394.776C482.233 395.256 483.097 396.248 483.097 397.72C483.097 400.008 481.097 401.144 479.161 401.144ZM479.161 400.008C480.569 400.008 481.673 399.192 481.673 397.672C481.673 396.168 480.553 395.4 479.193 395.4C477.833 395.4 476.633 396.184 476.633 397.704C476.633 399.208 477.833 400.008 479.161 400.008ZM479.209 394.296C480.425 394.296 481.257 393.592 481.257 392.376C481.257 391.272 480.345 390.504 479.161 390.504C477.977 390.504 477.049 391.224 477.049 392.408C477.049 393.608 478.041 394.296 479.209 394.296ZM484.242 401V400.68L488.786 395.896C489.826 394.792 490.434 393.752 490.434 392.584C490.434 391.304 489.682 390.536 488.386 390.536C487.058 390.536 486.194 391.288 485.97 393.08H484.674C484.85 390.84 486.21 389.416 488.386 389.416C490.498 389.416 491.842 390.664 491.842 392.632C491.842 394.04 490.946 395.416 489.538 396.792L486.386 399.864H491.906V401H484.242ZM497.437 401.128C495.325 401.128 494.061 400.024 493.757 398.184H495.101C495.357 399.304 495.997 399.992 497.469 399.992C499.293 399.992 500.365 398.488 500.397 395.448C499.853 396.376 498.749 396.968 497.437 396.968C495.213 396.968 493.677 395.384 493.677 393.224C493.677 390.936 495.213 389.4 497.629 389.4C500.333 389.4 501.741 391.224 501.741 394.52V395.24C501.741 399.032 500.173 401.128 497.437 401.128ZM497.645 395.88C499.181 395.88 500.269 394.888 500.269 393.4C500.269 391.528 499.165 390.488 497.629 390.488C496.125 390.488 495.101 391.544 495.101 393.16C495.101 394.808 496.093 395.88 497.645 395.88Z" fill="white"/>
<defs>
<filter id="filter0_d_4011_113" x="0.890236" y="0.38047" width="614.243" height="611.222" filterUnits="userSpaceOnUse" color-interpolation-filters="sRGB">
<feFlood flood-opacity="0" result="BackgroundImageFix"/>
<feColorMatrix in="SourceAlpha" type="matrix" values="0 0 0 0 0 0 0 0 0 0 0 0 0 0 0 0 0 0 127 0" result="hardAlpha"/>
<feOffset dx="-78" dy="-49"/>
<feGaussianBlur stdDeviation="60.3"/>
<feComposite in2="hardAlpha" operator="out"/>
<feColorMatrix type="matrix" values="0 0 0 0 0.152941 0 0 0 0 0.623529 0 0 0 0 0.988235 0 0 0 0.1 0"/>
<feBlend mode="normal" in2="BackgroundImageFix" result="effect1_dropShadow_4011_113"/>
<feBlend mode="normal" in="SourceGraphic" in2="effect1_dropShadow_4011_113" result="shape"/>
</filter>
<linearGradient id="paint0_linear_4011_113" x1="658" y1="579" x2="-318.327" y2="-353.502" gradientUnits="userSpaceOnUse">
<stop stop-color="#6F69F2"/>
<stop offset="0.813974" stop-color="#00B9FF"/>
</linearGradient>
<linearGradient id="paint1_linear_4011_113" x1="206.496" y1="533.982" x2="942.31" y2="-99.5944" gradientUnits="userSpaceOnUse">
<stop stop-color="#6F69F2"/>
<stop offset="0.813974" stop-color="#00B9FF"/>
</linearGradient>
<linearGradient id="paint2_linear_4011_113" x1="206.496" y1="533.982" x2="942.31" y2="-99.5944" gradientUnits="userSpaceOnUse">
<stop stop-color="#6F69F2"/>
<stop offset="0.813974" stop-color="#00B9FF"/>
</linearGradient>
</defs>
</svg>
