<svg width="616" height="612" viewBox="0 0 616 612" fill="none" xmlns="http://www.w3.org/2000/svg">
<g filter="url(#filter0_d_967_5055)">
<path d="M299.983 197.699C330.664 180.624 365.669 172.895 400.687 175.463C435.706 178.031 469.208 190.784 497.07 212.152C524.932 233.52 545.936 262.57 557.496 295.725C569.056 328.88 570.668 364.691 562.133 398.75C553.597 432.809 535.287 463.629 509.458 487.413C483.628 511.198 451.407 526.909 416.761 532.612C382.115 538.315 346.557 533.762 314.466 519.512C282.376 505.262 255.153 481.938 236.15 452.413L376.479 362.098C382.689 358.102 384.726 349.97 381.136 343.518L299.983 197.699Z" fill="url(#paint0_linear_967_5055)"/>
<path d="M297.799 198.914L296.583 196.73L298.768 195.514C329.875 178.202 365.366 170.366 400.87 172.969C436.375 175.573 470.343 188.504 498.591 210.169C526.84 231.833 548.136 261.287 559.857 294.902C571.578 328.517 573.212 364.826 564.558 399.358C555.904 433.89 537.34 465.138 511.151 489.252C484.963 513.367 452.294 529.297 417.167 535.079C382.039 540.862 345.988 536.245 313.452 521.797C280.915 507.349 253.315 483.701 234.048 453.766L232.695 451.663L234.797 450.31L375.126 359.996C380.227 356.713 381.901 350.033 378.951 344.733L297.799 198.914Z" stroke="url(#paint1_linear_967_5055)" stroke-opacity="0.1" stroke-width="5"/>
<path d="M288.26 203.111C268.316 214.21 250.859 229.282 236.968 247.394C223.077 265.506 213.048 286.273 207.499 308.414C201.951 330.554 201.001 353.597 204.708 376.12C208.416 398.642 216.702 420.164 229.055 439.358L356.832 357.122C363.928 352.555 366.258 343.261 362.154 335.887L288.26 203.111Z" fill="#00B9FF"/>
<path d="M287.531 201.8L288.841 201.071L289.571 202.381L363.464 335.157C367.953 343.223 365.406 353.388 357.644 358.383L229.867 440.619L228.605 441.431L227.794 440.17C215.33 420.804 206.969 399.088 203.228 376.363C199.488 353.639 200.446 330.389 206.044 308.049C211.643 285.71 221.762 264.755 235.778 246.481C249.793 228.206 267.407 212.999 287.531 201.8Z" stroke="#00B9FF" stroke-opacity="0.1" stroke-width="3"/>
</g>
<path d="M246.602 322L252.242 304.84H257.306L262.874 322H258.818L257.642 318.184H251.426L250.25 322H246.602ZM254.546 308.008L252.266 315.424H256.802L254.546 308.008ZM270.244 322.264C266.572 322.264 263.788 319.984 263.788 315.88V315.688C263.788 311.632 266.692 309.16 270.268 309.16C273.172 309.16 275.86 310.432 276.172 314.032H272.884C272.644 312.568 271.756 311.896 270.34 311.896C268.54 311.896 267.34 313.24 267.34 315.64V315.832C267.34 318.352 268.468 319.648 270.412 319.648C271.804 319.648 272.932 318.832 273.1 317.224H276.244C276.052 320.2 273.892 322.264 270.244 322.264ZM283.015 322.24C280.375 322.24 278.959 320.896 278.959 318.28V311.92H277.351V309.448H278.959V306.736H282.415V309.448H285.055V311.92H282.415V317.968C282.415 318.976 282.919 319.456 283.807 319.456C284.335 319.456 284.719 319.384 285.127 319.216V321.904C284.647 322.072 283.951 322.24 283.015 322.24ZM287.573 322V309.448H291.029V322H287.573ZM289.277 307.744C288.173 307.744 287.309 306.928 287.309 305.848C287.309 304.768 288.173 303.952 289.277 303.952C290.405 303.952 291.269 304.768 291.269 305.848C291.269 306.928 290.405 307.744 289.277 307.744ZM297.611 322L293.027 309.448H296.747L299.747 318.424L302.723 309.448H306.083L301.523 322H297.611ZM313.136 322.264C309.344 322.264 306.584 319.888 306.584 315.88V315.688C306.584 311.728 309.392 309.16 313.04 309.16C316.28 309.16 319.16 311.056 319.16 315.544V316.504H310.112C310.208 318.592 311.336 319.792 313.232 319.792C314.84 319.792 315.632 319.096 315.848 318.04H319.136C318.728 320.752 316.568 322.264 313.136 322.264ZM310.16 314.368H315.776C315.656 312.472 314.696 311.56 313.04 311.56C311.48 311.56 310.424 312.592 310.16 314.368Z" fill="white"/>
<path d="M256.968 343.144C254.536 343.144 253.048 341.624 252.968 339.624H254.248C254.376 340.984 255.192 342.024 257 342.024C258.792 342.024 259.608 341.16 259.608 339.816C259.608 338.344 258.808 337.592 257.192 337.592H256.328V336.424H257.128C258.616 336.424 259.272 335.72 259.272 334.472C259.272 333.384 258.584 332.552 257.192 332.552C255.768 332.552 254.808 333.416 254.664 334.712H253.448C253.528 332.904 255.016 331.416 257.192 331.416C259.368 331.416 260.632 332.856 260.632 334.44C260.632 335.736 259.864 336.504 258.824 336.936C260.168 337.288 261.032 338.232 261.032 339.816C261.032 341.896 259.336 343.144 256.968 343.144ZM266.848 343.144C264.976 343.144 262.896 342.024 262.896 339.752C262.896 338.216 263.84 337.224 265.056 336.792C263.968 336.376 263.328 335.512 263.328 334.392C263.328 332.536 265.088 331.416 266.848 331.416C268.624 331.416 270.352 332.568 270.352 334.36C270.352 335.512 269.648 336.312 268.592 336.776C269.92 337.256 270.784 338.248 270.784 339.72C270.784 342.008 268.784 343.144 266.848 343.144ZM266.848 342.008C268.256 342.008 269.36 341.192 269.36 339.672C269.36 338.168 268.24 337.4 266.88 337.4C265.52 337.4 264.32 338.184 264.32 339.704C264.32 341.208 265.52 342.008 266.848 342.008ZM266.896 336.296C268.112 336.296 268.944 335.592 268.944 334.376C268.944 333.272 268.032 332.504 266.848 332.504C265.664 332.504 264.736 333.224 264.736 334.408C264.736 335.608 265.728 336.296 266.896 336.296ZM277.899 343V340.6H272.171V340.152L277.403 331.56H279.259V339.464H280.843V340.6H279.259V343H277.899ZM273.931 339.464H277.899V332.616L273.931 339.464ZM282.706 344.968L281.842 344.52L283.378 341.016L284.674 341.624L282.706 344.968ZM290.056 343.144C286.936 343.144 285.944 340.808 285.944 337.944V337.672C285.944 333.56 287.8 331.416 290.424 331.416C292.2 331.416 293.464 332.344 293.768 334.184H292.44C292.184 333.128 291.608 332.552 290.328 332.552C288.6 332.552 287.384 334.104 287.32 337.128C287.864 336.2 288.936 335.576 290.264 335.576C292.536 335.576 294.008 337.224 294.008 339.32C294.008 341.608 292.472 343.144 290.056 343.144ZM290.056 342.056C291.56 342.056 292.584 341 292.584 339.384C292.584 337.736 291.592 336.664 290.04 336.664C288.504 336.664 287.416 337.704 287.416 339.192C287.416 341.064 288.52 342.056 290.056 342.056ZM295.195 343V342.68L299.739 337.896C300.779 336.792 301.387 335.752 301.387 334.584C301.387 333.304 300.635 332.536 299.339 332.536C298.011 332.536 297.147 333.288 296.923 335.08H295.627C295.803 332.84 297.163 331.416 299.339 331.416C301.451 331.416 302.795 332.664 302.795 334.632C302.795 336.04 301.899 337.416 300.491 338.792L297.339 341.864H302.859V343H295.195ZM308.39 343.128C306.278 343.128 305.014 342.024 304.71 340.184H306.054C306.31 341.304 306.95 341.992 308.422 341.992C310.246 341.992 311.318 340.488 311.35 337.448C310.806 338.376 309.702 338.968 308.39 338.968C306.166 338.968 304.63 337.384 304.63 335.224C304.63 332.936 306.166 331.4 308.582 331.4C311.286 331.4 312.694 333.224 312.694 336.52V337.24C312.694 341.032 311.126 343.128 308.39 343.128ZM308.598 337.88C310.134 337.88 311.222 336.888 311.222 335.4C311.222 333.528 310.118 332.488 308.582 332.488C307.078 332.488 306.054 333.544 306.054 335.16C306.054 336.808 307.046 337.88 308.598 337.88Z" fill="white"/>
<path d="M442.337 380V365.864H437.705V362.84H450.881V365.864H446.249V380H442.337ZM457.037 377.624C458.981 377.624 460.109 376.184 460.109 373.808V373.64C460.109 371.24 458.981 369.8 457.037 369.8C455.117 369.8 453.965 371.192 453.965 373.592V373.784C453.965 376.184 455.069 377.624 457.037 377.624ZM457.013 380.264C453.269 380.264 450.413 377.768 450.413 373.856V373.664C450.413 369.728 453.269 367.16 457.037 367.16C460.805 367.16 463.637 369.68 463.637 373.592V373.784C463.637 377.744 460.781 380.264 457.013 380.264ZM470.554 380.24C467.914 380.24 466.498 378.896 466.498 376.28V369.92H464.89V367.448H466.498V364.736H469.954V367.448H472.594V369.92H469.954V375.968C469.954 376.976 470.458 377.456 471.346 377.456C471.874 377.456 472.258 377.384 472.666 377.216V379.904C472.186 380.072 471.49 380.24 470.554 380.24ZM478.518 380.264C476.238 380.264 474.318 379.16 474.318 376.52C474.318 373.592 477.006 372.488 480.846 372.488H482.262V371.984C482.262 370.496 481.806 369.68 480.222 369.68C478.854 369.68 478.23 370.376 478.086 371.456H474.798C475.014 368.48 477.366 367.16 480.438 367.16C483.51 367.16 485.694 368.408 485.694 371.816V380H482.31V378.488C481.59 379.496 480.486 380.264 478.518 380.264ZM479.55 377.84C481.086 377.84 482.262 377 482.262 375.608V374.552H480.918C478.902 374.552 477.726 374.984 477.726 376.328C477.726 377.24 478.278 377.84 479.55 377.84ZM488.777 380V361.76H492.233V380H488.777Z" fill="white"/>
<path d="M428.585 401V400.68L433.129 395.896C434.169 394.792 434.777 393.752 434.777 392.584C434.777 391.304 434.025 390.536 432.729 390.536C431.401 390.536 430.537 391.288 430.313 393.08H429.017C429.193 390.84 430.553 389.416 432.729 389.416C434.841 389.416 436.185 390.664 436.185 392.632C436.185 394.04 435.289 395.416 433.881 396.792L430.729 399.864H436.249V401H428.585ZM438.424 402.968L437.56 402.52L439.096 399.016L440.392 399.624L438.424 402.968ZM445.656 401.128C443.544 401.128 442.28 400.024 441.976 398.184H443.32C443.576 399.304 444.216 399.992 445.688 399.992C447.512 399.992 448.584 398.488 448.616 395.448C448.072 396.376 446.968 396.968 445.656 396.968C443.432 396.968 441.896 395.384 441.896 393.224C441.896 390.936 443.432 389.4 445.848 389.4C448.552 389.4 449.96 391.224 449.96 394.52V395.24C449.96 399.032 448.392 401.128 445.656 401.128ZM445.864 395.88C447.4 395.88 448.488 394.888 448.488 393.4C448.488 391.528 447.384 390.488 445.848 390.488C444.344 390.488 443.32 391.544 443.32 393.16C443.32 394.808 444.312 395.88 445.864 395.88ZM456.01 401.144C452.89 401.144 451.898 398.808 451.898 395.944V395.672C451.898 391.56 453.754 389.416 456.378 389.416C458.154 389.416 459.418 390.344 459.722 392.184H458.394C458.138 391.128 457.562 390.552 456.282 390.552C454.554 390.552 453.338 392.104 453.274 395.128C453.818 394.2 454.89 393.576 456.218 393.576C458.49 393.576 459.962 395.224 459.962 397.32C459.962 399.608 458.426 401.144 456.01 401.144ZM456.01 400.056C457.514 400.056 458.538 399 458.538 397.384C458.538 395.736 457.546 394.664 455.994 394.664C454.458 394.664 453.37 395.704 453.37 397.192C453.37 399.064 454.474 400.056 456.01 400.056ZM465.484 401.144C463.052 401.144 461.564 399.624 461.484 397.624H462.764C462.892 398.984 463.708 400.024 465.516 400.024C467.308 400.024 468.124 399.16 468.124 397.816C468.124 396.344 467.324 395.592 465.708 395.592H464.844V394.424H465.644C467.132 394.424 467.788 393.72 467.788 392.472C467.788 391.384 467.1 390.552 465.708 390.552C464.284 390.552 463.324 391.416 463.18 392.712H461.964C462.044 390.904 463.532 389.416 465.708 389.416C467.884 389.416 469.148 390.856 469.148 392.44C469.148 393.736 468.38 394.504 467.34 394.936C468.684 395.288 469.548 396.232 469.548 397.816C469.548 399.896 467.852 401.144 465.484 401.144ZM471.628 402.968L470.764 402.52L472.299 399.016L473.596 399.624L471.628 402.968ZM479.161 401.144C477.289 401.144 475.209 400.024 475.209 397.752C475.209 396.216 476.153 395.224 477.369 394.792C476.281 394.376 475.641 393.512 475.641 392.392C475.641 390.536 477.401 389.416 479.161 389.416C480.937 389.416 482.665 390.568 482.665 392.36C482.665 393.512 481.961 394.312 480.905 394.776C482.233 395.256 483.097 396.248 483.097 397.72C483.097 400.008 481.097 401.144 479.161 401.144ZM479.161 400.008C480.569 400.008 481.673 399.192 481.673 397.672C481.673 396.168 480.553 395.4 479.193 395.4C477.833 395.4 476.633 396.184 476.633 397.704C476.633 399.208 477.833 400.008 479.161 400.008ZM479.209 394.296C480.425 394.296 481.257 393.592 481.257 392.376C481.257 391.272 480.345 390.504 479.161 390.504C477.977 390.504 477.049 391.224 477.049 392.408C477.049 393.608 478.041 394.296 479.209 394.296ZM484.242 401V400.68L488.786 395.896C489.826 394.792 490.434 393.752 490.434 392.584C490.434 391.304 489.682 390.536 488.386 390.536C487.058 390.536 486.194 391.288 485.97 393.08H484.674C484.85 390.84 486.21 389.416 488.386 389.416C490.498 389.416 491.842 390.664 491.842 392.632C491.842 394.04 490.946 395.416 489.538 396.792L486.386 399.864H491.906V401H484.242ZM497.437 401.128C495.325 401.128 494.061 400.024 493.757 398.184H495.101C495.357 399.304 495.997 399.992 497.469 399.992C499.293 399.992 500.365 398.488 500.397 395.448C499.853 396.376 498.749 396.968 497.437 396.968C495.213 396.968 493.677 395.384 493.677 393.224C493.677 390.936 495.213 389.4 497.629 389.4C500.333 389.4 501.741 391.224 501.741 394.52V395.24C501.741 399.032 500.173 401.128 497.437 401.128ZM497.645 395.88C499.181 395.88 500.269 394.888 500.269 393.4C500.269 391.528 499.165 390.488 497.629 390.488C496.125 390.488 495.101 391.544 495.101 393.16C495.101 394.808 496.093 395.88 497.645 395.88Z" fill="white"/>
<path d="M387.293 546C386.446 546 385.6 545.995 384.755 545.984L384.749 546.484C383.055 546.463 381.367 546.42 379.684 546.357L379.703 545.858C378.015 545.794 376.333 545.71 374.657 545.604L374.625 546.103C372.936 545.997 371.251 545.87 369.573 545.722L369.617 545.224C367.935 545.076 366.26 544.906 364.59 544.716L364.534 545.213C362.852 545.022 361.176 544.81 359.507 544.577L359.576 544.081C357.905 543.848 356.24 543.594 354.582 543.319L354.5 543.812C352.83 543.536 351.168 543.239 349.513 542.921L349.607 542.43C347.95 542.112 346.3 541.773 344.657 541.414L344.55 541.903C342.898 541.541 341.253 541.16 339.616 540.758L339.735 540.272C338.096 539.87 336.465 539.447 334.843 539.005L334.711 539.487C333.08 539.042 331.457 538.577 329.842 538.092L329.986 537.613C328.37 537.128 326.763 536.622 325.164 536.097L325.008 536.572C323.402 536.045 321.805 535.497 320.217 534.93L320.385 534.459C318.796 533.892 317.217 533.305 315.647 532.699L315.467 533.165C313.89 532.557 312.323 531.929 310.766 531.281L310.958 530.82C309.401 530.172 307.853 529.505 306.315 528.82L306.112 529.277C304.569 528.589 303.036 527.881 301.513 527.156L301.729 526.704C300.206 525.979 298.694 525.234 297.193 524.471L296.966 524.917C295.461 524.151 293.966 523.367 292.482 522.565L292.72 522.125C291.236 521.323 289.764 520.503 288.303 519.664L288.054 520.098C286.59 519.257 285.136 518.399 283.695 517.522L283.955 517.095C282.514 516.219 281.085 515.325 279.668 514.414L279.398 514.834C277.977 513.921 276.569 512.99 275.173 512.041L275.454 511.628C274.06 510.68 272.678 509.716 271.309 508.734L271.018 509.141C269.645 508.156 268.286 507.155 266.939 506.138L267.241 505.739C265.896 504.723 264.565 503.69 263.247 502.641L262.936 503.032C261.614 501.98 260.306 500.912 259.012 499.827L259.334 499.444C258.042 498.362 256.765 497.263 255.501 496.149L255.17 496.524C253.904 495.407 252.651 494.275 251.413 493.127L251.753 492.76C250.518 491.614 249.297 490.453 248.091 489.277L247.742 489.635C246.533 488.456 245.339 487.262 244.16 486.053L244.518 485.704C243.341 484.498 242.18 483.277 241.035 482.042L240.668 482.382C239.52 481.144 238.387 479.891 237.27 478.624L237.645 478.294C236.531 477.03 235.433 475.753 234.351 474.461L233.968 474.782C232.883 473.488 231.815 472.181 230.763 470.859L231.154 470.548C230.105 469.23 229.072 467.899 228.056 466.554L227.657 466.856C226.639 465.509 225.638 464.15 224.654 462.777L225.061 462.486C224.079 461.117 223.114 459.735 222.167 458.34L221.753 458.621C220.805 457.226 219.874 455.818 218.96 454.397L219.381 454.127C218.47 452.71 217.576 451.281 216.7 449.84L216.272 450.1C215.396 448.658 214.537 447.205 213.697 445.74L214.13 445.492C213.292 444.031 212.472 442.558 211.67 441.075L211.23 441.313C210.428 439.829 209.644 438.334 208.878 436.828L209.324 436.602C208.561 435.101 207.816 433.589 207.09 432.066L206.639 432.281C205.913 430.759 205.206 429.226 204.518 427.683L204.975 427.48C204.289 425.942 203.623 424.394 202.975 422.837L202.513 423.029C201.866 421.472 201.238 419.905 200.629 418.328L201.096 418.148C200.49 416.578 199.903 414.998 199.335 413.41L198.865 413.578C198.298 411.99 197.75 410.393 197.223 408.787L197.698 408.631C197.172 407.032 196.667 405.425 196.182 403.809L195.703 403.953C195.218 402.338 194.753 400.715 194.308 399.084L194.79 398.952C194.347 397.33 193.925 395.699 193.523 394.06L193.037 394.179C192.635 392.542 192.253 390.897 191.892 389.245L192.381 389.138C192.022 387.495 191.683 385.845 191.365 384.188L190.874 384.282C190.556 382.627 190.259 380.965 189.982 379.295L190.476 379.213C190.201 377.555 189.947 375.89 189.714 374.219L189.218 374.288C188.985 372.619 188.773 370.943 188.582 369.261L189.078 369.205C188.889 367.535 188.719 365.86 188.571 364.178L188.073 364.222C187.925 362.544 187.798 360.86 187.692 359.17L188.191 359.138C188.085 357.462 188.001 355.78 187.937 354.093L187.438 354.111C187.374 352.428 187.332 350.74 187.311 349.046L187.811 349.04C187.8 348.195 187.795 347.349 187.795 346.502C187.795 345.655 187.8 344.809 187.811 343.965L187.311 343.958C187.332 342.265 187.374 340.576 187.438 338.893L187.937 338.912C188.001 337.225 188.085 335.543 188.191 333.866L187.692 333.835C187.798 332.145 187.925 330.461 188.073 328.782L188.571 328.826C188.719 327.145 188.888 325.469 189.078 323.8L188.582 323.743C188.773 322.061 188.985 320.385 189.218 318.716L189.713 318.785C189.947 317.114 190.201 315.449 190.476 313.791L189.982 313.709C190.259 312.04 190.556 310.377 190.874 308.722L191.365 308.816C191.683 307.159 192.022 305.509 192.38 303.866L191.892 303.759C192.253 302.107 192.635 300.462 193.037 298.824L193.522 298.944C193.925 297.305 194.347 295.674 194.79 294.052L194.307 293.92C194.752 292.289 195.217 290.665 195.702 289.051L196.181 289.195C196.667 287.579 197.172 285.971 197.697 284.373L197.222 284.217C197.75 282.611 198.297 281.014 198.864 279.426L199.335 279.594C199.902 278.005 200.489 276.425 201.095 274.855L200.629 274.675C201.237 273.099 201.866 271.532 202.513 269.975L202.974 270.167C203.622 268.609 204.289 267.061 204.974 265.524L204.518 265.32C205.206 263.777 205.913 262.244 206.638 260.722L207.09 260.937C207.816 259.414 208.56 257.902 209.323 256.401L208.877 256.175C209.643 254.669 210.427 253.174 211.229 251.69L211.669 251.928C212.471 250.444 213.291 248.972 214.13 247.511L213.696 247.262C214.537 245.798 215.395 244.344 216.272 242.903L216.699 243.163C217.575 241.722 218.469 240.293 219.38 238.876L218.959 238.606C219.873 237.185 220.804 235.777 221.752 234.381L222.166 234.662C223.113 233.268 224.078 231.886 225.059 230.517L224.653 230.226C225.637 228.853 226.638 227.493 227.656 226.147L228.055 226.448C229.071 225.103 230.104 223.772 231.153 222.454L230.762 222.143C231.814 220.821 232.882 219.514 233.966 218.22L234.35 218.541C235.432 217.249 236.53 215.972 237.644 214.708L237.269 214.378C238.386 213.111 239.519 211.858 240.667 210.62L241.034 210.96C242.179 209.725 243.34 208.504 244.516 207.298L244.158 206.949C245.337 205.74 246.532 204.545 247.741 203.366L248.09 203.724C249.296 202.548 250.517 201.387 251.752 200.242L251.412 199.875C252.65 198.727 253.902 197.594 255.169 196.477L255.5 196.852C256.763 195.738 258.041 194.64 259.332 193.557L259.011 193.174C260.305 192.09 261.613 191.021 262.934 189.969L263.246 190.361C264.564 189.311 265.895 188.279 267.239 187.262L266.938 186.863C268.285 185.846 269.644 184.845 271.017 183.86L271.308 184.267C272.677 183.285 274.059 182.321 275.453 181.373L275.172 180.96C276.568 180.011 277.976 179.08 279.397 178.166L279.667 178.587C281.084 177.676 282.513 176.782 283.954 175.906L283.694 175.478C285.135 174.602 286.589 173.743 288.054 172.903L288.302 173.336C289.763 172.498 291.236 171.678 292.719 170.875L292.481 170.436C293.965 169.633 295.46 168.849 296.966 168.084L297.192 168.53C298.693 167.767 300.205 167.022 301.728 166.296L301.513 165.845C303.035 165.119 304.568 164.412 306.111 163.724L306.314 164.181C307.852 163.495 309.4 162.828 310.957 162.181L310.766 161.719C312.323 161.072 313.89 160.444 315.466 159.835L315.646 160.301C317.216 159.695 318.796 159.108 320.385 158.541L320.217 158.07C321.804 157.503 323.402 156.956 325.008 156.428L325.164 156.903C326.762 156.378 328.369 155.872 329.985 155.387L329.841 154.908C331.456 154.423 333.079 153.958 334.711 153.513L334.842 153.995C336.465 153.553 338.096 153.13 339.734 152.728L339.615 152.242C341.252 151.84 342.897 151.459 344.55 151.097L344.657 151.586C346.299 151.227 347.949 150.888 349.606 150.57L349.512 150.079C351.168 149.761 352.83 149.464 354.5 149.188L354.581 149.681C356.239 149.406 357.904 149.152 359.576 148.919L359.507 148.424C361.176 148.191 362.852 147.978 364.534 147.787L364.59 148.284C366.26 148.094 367.935 147.924 369.617 147.776L369.573 147.278C371.251 147.13 372.935 147.003 374.625 146.897L374.657 147.396C376.333 147.29 378.015 147.206 379.703 147.142L379.684 146.643C381.367 146.58 383.055 146.537 384.749 146.516L384.755 147.016C385.6 147.005 386.446 147 387.293 147C388.14 147 388.986 147.005 389.83 147.016L389.837 146.516C391.53 146.537 393.218 146.58 394.902 146.643L394.883 147.142C396.57 147.206 398.252 147.29 399.929 147.396L399.96 146.897C401.65 147.003 403.334 147.13 405.013 147.278L404.969 147.776C406.65 147.924 408.326 148.094 409.995 148.284L410.052 147.787C411.734 147.978 413.41 148.19 415.079 148.423L415.01 148.919C416.681 149.152 418.346 149.406 420.004 149.681L420.086 149.187C421.756 149.464 423.418 149.761 425.074 150.079L424.979 150.57C426.637 150.888 428.287 151.227 429.929 151.586L430.036 151.097C431.689 151.458 433.334 151.84 434.971 152.242L434.852 152.728C436.49 153.13 438.121 153.552 439.744 153.995L439.875 153.513C441.507 153.958 443.13 154.423 444.745 154.908L444.601 155.387C446.217 155.872 447.824 156.377 449.423 156.902L449.579 156.427C451.185 156.955 452.782 157.502 454.37 158.069L454.202 158.54C455.791 159.108 457.37 159.694 458.94 160.301L459.12 159.834C460.697 160.443 462.264 161.071 463.821 161.718L463.629 162.18C465.187 162.827 466.735 163.494 468.272 164.18L468.476 163.723C470.019 164.411 471.552 165.118 473.074 165.844L472.859 166.295C474.382 167.021 475.894 167.766 477.395 168.529L477.621 168.083C479.127 168.849 480.622 169.633 482.106 170.435L481.868 170.875C483.351 171.677 484.824 172.497 486.285 173.335L486.534 172.902C487.998 173.742 489.452 174.601 490.893 175.477L490.633 175.905C492.074 176.781 493.503 177.675 494.92 178.586L495.19 178.165C496.611 179.079 498.019 180.01 499.415 180.959L499.134 181.372C500.528 182.32 501.91 183.284 503.279 184.266L503.57 183.859C504.943 184.844 506.303 185.845 507.65 186.862L507.348 187.261C508.693 188.277 510.024 189.31 511.342 190.359L511.653 189.968C512.975 191.02 514.282 192.089 515.576 193.173L515.255 193.556C516.547 194.638 517.824 195.737 519.088 196.851L519.419 196.476C520.685 197.593 521.938 198.726 523.176 199.874L522.836 200.24C524.071 201.386 525.292 202.547 526.498 203.723L526.847 203.365C528.056 204.544 529.251 205.738 530.43 206.948L530.072 207.297C531.248 208.503 532.409 209.724 533.554 210.959L533.921 210.619C535.069 211.857 536.202 213.11 537.319 214.376L536.944 214.707C538.058 215.971 539.156 217.248 540.239 218.54L540.622 218.219C541.706 219.512 542.775 220.82 543.827 222.142L543.435 222.453C544.484 223.771 545.517 225.102 546.534 226.447L546.932 226.145C547.95 227.492 548.951 228.852 549.935 230.224L549.529 230.516C550.511 231.885 551.475 233.267 552.423 234.661L552.836 234.38C553.785 235.776 554.716 237.184 555.629 238.605L555.209 238.875C556.12 240.292 557.014 241.721 557.89 243.162L558.317 242.902C559.194 244.343 560.052 245.797 560.893 247.261L560.459 247.51C561.298 248.971 562.118 250.443 562.92 251.927L563.36 251.689C564.162 253.173 564.946 254.668 565.712 256.174L565.266 256.4C566.029 257.901 566.774 259.413 567.499 260.936L567.951 260.721C568.677 262.243 569.384 263.776 570.072 265.319L569.615 265.523C570.301 267.06 570.967 268.608 571.615 270.166L572.076 269.974C572.724 271.531 573.352 273.098 573.961 274.675L573.494 274.855C574.1 276.425 574.687 278.004 575.254 279.593L575.725 279.425C576.292 281.013 576.84 282.61 577.367 284.216L576.892 284.372C577.417 285.971 577.923 287.578 578.408 289.194L578.887 289.05C579.372 290.665 579.837 292.288 580.282 293.919L579.8 294.051C580.242 295.674 580.665 297.304 581.067 298.943L581.553 298.824C581.955 300.461 582.336 302.106 582.698 303.759L582.209 303.866C582.568 305.508 582.907 307.158 583.225 308.815L583.716 308.721C584.034 310.377 584.331 312.039 584.607 313.709L584.114 313.79C584.389 315.449 584.643 317.114 584.876 318.785L585.371 318.716C585.604 320.385 585.817 322.061 586.008 323.743L585.511 323.799C585.701 325.469 585.871 327.144 586.019 328.826L586.517 328.782C586.665 330.46 586.792 332.145 586.898 333.835L586.399 333.866C586.505 335.542 586.589 337.225 586.652 338.912L587.152 338.893C587.215 340.576 587.258 342.265 587.279 343.958L586.779 343.964C586.79 344.809 586.795 345.655 586.795 346.502C586.795 347.349 586.79 348.195 586.779 349.04L587.279 349.046C587.258 350.74 587.215 352.428 587.152 354.111L586.652 354.092C586.589 355.78 586.505 357.462 586.399 359.138L586.898 359.17C586.792 360.86 586.665 362.544 586.517 364.222L586.019 364.178C585.871 365.86 585.701 367.535 585.511 369.205L586.008 369.261C585.817 370.943 585.604 372.619 585.371 374.288L584.876 374.219C584.643 375.891 584.389 377.556 584.114 379.214L584.607 379.295C584.331 380.965 584.034 382.627 583.716 384.283L583.225 384.189C582.907 385.846 582.568 387.496 582.209 389.138L582.698 389.245C582.336 390.898 581.955 392.543 581.553 394.18L581.067 394.061C580.665 395.7 580.242 397.33 579.8 398.953L580.282 399.085C579.837 400.716 579.372 402.339 578.887 403.954L578.408 403.81C577.923 405.426 577.417 407.033 576.892 408.632L577.367 408.788C576.84 410.394 576.292 411.991 575.725 413.579L575.254 413.411C574.687 415 574.1 416.579 573.494 418.149L573.961 418.329C573.352 419.906 572.724 421.473 572.076 423.03L571.615 422.838C570.967 424.396 570.301 425.943 569.615 427.481L570.072 427.685C569.384 429.228 568.676 430.761 567.951 432.283L567.499 432.068C566.774 433.59 566.029 435.102 565.266 436.603L565.712 436.83C564.946 438.336 564.162 439.831 563.36 441.314L562.92 441.076C562.118 442.56 561.298 444.032 560.459 445.493L560.893 445.742C560.052 447.207 559.194 448.66 558.317 450.101L557.89 449.842C557.014 451.283 556.12 452.712 555.209 454.128L555.629 454.399C554.716 455.819 553.784 457.228 552.836 458.623L552.422 458.342C551.475 459.737 550.51 461.118 549.529 462.487L549.935 462.779C548.951 464.151 547.95 465.511 546.932 466.858L546.533 466.556C545.517 467.901 544.484 469.232 543.435 470.55L543.826 470.861C542.774 472.183 541.706 473.49 540.622 474.784L540.238 474.463C539.156 475.755 538.058 477.032 536.944 478.296L537.319 478.626C536.202 479.893 535.069 481.146 533.921 482.384L533.554 482.044C532.408 483.279 531.247 484.5 530.071 485.706L530.429 486.055C529.25 487.264 528.056 488.458 526.847 489.637L526.498 489.279C525.292 490.455 524.071 491.616 522.836 492.762L523.176 493.129C521.938 494.277 520.685 495.41 519.418 496.527L519.087 496.151C517.824 497.265 516.546 498.364 515.255 499.446L515.576 499.829C514.282 500.914 512.974 501.982 511.653 503.034L511.341 502.643C510.023 503.692 508.692 504.725 507.348 505.741L507.649 506.14C506.302 507.157 504.943 508.158 503.57 509.143L503.279 508.736C501.91 509.718 500.528 510.682 499.133 511.63L499.414 512.043C498.019 512.992 496.61 513.923 495.19 514.836L494.919 514.416C493.503 515.327 492.074 516.221 490.633 517.097L490.892 517.524C489.451 518.4 487.998 519.259 486.533 520.1L486.284 519.666C484.823 520.504 483.351 521.325 481.867 522.127L482.105 522.567C480.621 523.369 479.126 524.153 477.621 524.918L477.394 524.472C475.893 525.235 474.381 525.98 472.858 526.706L473.073 527.157C471.551 527.883 470.018 528.59 468.475 529.278L468.272 528.821C466.734 529.507 465.186 530.173 463.628 530.821L463.82 531.283C462.263 531.93 460.696 532.558 459.12 533.167L458.94 532.7C457.37 533.306 455.79 533.893 454.201 534.46L454.369 534.931C452.781 535.498 451.184 536.046 449.578 536.573L449.422 536.098C447.824 536.623 446.216 537.129 444.6 537.614L444.744 538.093C443.13 538.578 441.506 539.043 439.875 539.488L439.743 539.006C438.121 539.448 436.49 539.871 434.851 540.273L434.97 540.758C433.333 541.16 431.688 541.542 430.035 541.903L429.929 541.415C428.286 541.774 426.636 542.112 424.979 542.43L425.073 542.921C423.418 543.239 421.755 543.536 420.086 543.813L420.004 543.32C418.346 543.594 416.681 543.848 415.009 544.082L415.078 544.577C413.409 544.81 411.734 545.022 410.052 545.213L409.995 544.717C408.326 544.907 406.65 545.076 404.969 545.224L405.013 545.722C403.334 545.87 401.65 545.997 399.96 546.103L399.928 545.604C398.252 545.71 396.57 545.794 394.883 545.858L394.901 546.357C393.218 546.421 391.53 546.463 389.836 546.484L389.83 545.984C388.985 545.995 388.14 546 387.293 546Z" stroke="url(#paint2_linear_967_5055)" stroke-opacity="0.25" stroke-miterlimit="10" stroke-dasharray="5 5"/>
<defs>
<filter id="filter0_d_967_5055" x="0.890236" y="0.38047" width="614.243" height="611.222" filterUnits="userSpaceOnUse" color-interpolation-filters="sRGB">
<feFlood flood-opacity="0" result="BackgroundImageFix"/>
<feColorMatrix in="SourceAlpha" type="matrix" values="0 0 0 0 0 0 0 0 0 0 0 0 0 0 0 0 0 0 127 0" result="hardAlpha"/>
<feOffset dx="-78" dy="-49"/>
<feGaussianBlur stdDeviation="60.3"/>
<feComposite in2="hardAlpha" operator="out"/>
<feColorMatrix type="matrix" values="0 0 0 0 0.152941 0 0 0 0 0.623529 0 0 0 0 0.988235 0 0 0 0.1 0"/>
<feBlend mode="normal" in2="BackgroundImageFix" result="effect1_dropShadow_967_5055"/>
<feBlend mode="normal" in="SourceGraphic" in2="effect1_dropShadow_967_5055" result="shape"/>
</filter>
<linearGradient id="paint0_linear_967_5055" x1="206.496" y1="533.982" x2="942.31" y2="-99.5944" gradientUnits="userSpaceOnUse">
<stop stop-color="#6F69F2"/>
<stop offset="0.813974" stop-color="#00B9FF"/>
</linearGradient>
<linearGradient id="paint1_linear_967_5055" x1="206.496" y1="533.982" x2="942.31" y2="-99.5944" gradientUnits="userSpaceOnUse">
<stop stop-color="#6F69F2"/>
<stop offset="0.813974" stop-color="#00B9FF"/>
</linearGradient>
<linearGradient id="paint2_linear_967_5055" x1="587.295" y1="546.5" x2="-226.235" y2="-162.04" gradientUnits="userSpaceOnUse">
<stop stop-color="#6F69F2"/>
<stop offset="0.813974" stop-color="#00B9FF"/>
</linearGradient>
</defs>
</svg>
