<svg width="522" height="476" viewBox="0 0 522 476" fill="none" xmlns="http://www.w3.org/2000/svg">
<path opacity="0.05" d="M522 205.931C522 344.975 381.008 476 245.45 476C109.892 476 0 363.282 0 224.237C0 85.1926 46.6313 -6.74742 182.011 0.387868C271.426 5.10043 522 66.8859 522 205.931Z" fill="url(#paint0_linear_4003_108)"/>
<path d="M163.983 94.6986C194.664 77.6238 229.669 69.8945 264.687 72.4627C299.706 75.0308 333.208 87.7842 361.07 109.152C388.932 130.52 409.936 159.57 421.496 192.725C433.056 225.88 434.668 261.691 426.133 295.75C417.597 329.809 399.287 360.629 373.458 384.413C347.628 408.198 315.407 423.909 280.761 429.612C246.115 435.315 210.557 430.762 178.466 416.512C146.376 402.262 119.153 378.938 100.15 349.413L240.479 259.098C246.689 255.102 248.726 246.97 245.136 240.518L163.983 94.6986Z" fill="url(#paint1_linear_4003_108)"/>
<path d="M161.799 95.9143L160.583 93.7298L162.768 92.5141C193.875 75.2021 229.366 67.3656 264.87 69.9694C300.375 72.5732 334.343 85.5036 362.591 107.169C390.84 128.833 412.136 158.287 423.857 191.902C435.578 225.517 437.212 261.826 428.558 296.358C419.904 330.89 401.34 362.138 375.151 386.252C348.963 410.367 316.294 426.297 281.167 432.079C246.039 437.862 209.988 433.245 177.452 418.797C144.915 404.349 117.315 380.701 98.048 350.766L96.695 348.663L98.7973 347.31L239.126 256.996C244.227 253.713 245.901 247.033 242.951 241.733L161.799 95.9143Z" stroke="url(#paint2_linear_4003_108)" stroke-opacity="0.1" stroke-width="5"/>
<path d="M152.26 100.111C132.316 111.21 114.859 126.282 100.968 144.394C87.0773 162.506 77.0479 183.273 71.4993 205.414C65.9508 227.554 65.0009 250.597 68.7084 273.12C72.4159 295.642 80.7021 317.164 93.055 336.358L220.832 254.122C227.928 249.555 230.258 240.261 226.154 232.887L152.26 100.111Z" fill="#00B9FF"/>
<path d="M151.531 98.8L152.841 98.0706L153.571 99.3813L227.464 232.157C231.953 240.223 229.406 250.388 221.644 255.383L93.8668 337.619L92.6054 338.431L91.7936 337.17C79.3298 317.804 70.9692 296.088 67.2283 273.363C63.4875 250.639 64.4459 227.389 70.0443 205.049C75.6427 182.71 85.7623 161.755 99.7777 143.481C113.793 125.206 131.407 109.999 151.531 98.8Z" stroke="#00B9FF" stroke-opacity="0.1" stroke-width="3"/>
<path d="M110.602 219L116.242 201.84H121.306L126.874 219H122.818L121.642 215.184H115.426L114.25 219H110.602ZM118.546 205.008L116.266 212.424H120.802L118.546 205.008ZM134.244 219.264C130.572 219.264 127.788 216.984 127.788 212.88V212.688C127.788 208.632 130.692 206.16 134.268 206.16C137.172 206.16 139.86 207.432 140.172 211.032H136.884C136.644 209.568 135.756 208.896 134.34 208.896C132.54 208.896 131.34 210.24 131.34 212.64V212.832C131.34 215.352 132.468 216.648 134.412 216.648C135.804 216.648 136.932 215.832 137.1 214.224H140.244C140.052 217.2 137.892 219.264 134.244 219.264ZM147.015 219.24C144.375 219.24 142.959 217.896 142.959 215.28V208.92H141.351V206.448H142.959V203.736H146.415V206.448H149.055V208.92H146.415V214.968C146.415 215.976 146.919 216.456 147.807 216.456C148.335 216.456 148.719 216.384 149.127 216.216V218.904C148.647 219.072 147.951 219.24 147.015 219.24ZM151.573 219V206.448H155.029V219H151.573ZM153.277 204.744C152.173 204.744 151.309 203.928 151.309 202.848C151.309 201.768 152.173 200.952 153.277 200.952C154.405 200.952 155.269 201.768 155.269 202.848C155.269 203.928 154.405 204.744 153.277 204.744ZM161.611 219L157.027 206.448H160.747L163.747 215.424L166.723 206.448H170.083L165.523 219H161.611ZM177.136 219.264C173.344 219.264 170.584 216.888 170.584 212.88V212.688C170.584 208.728 173.392 206.16 177.04 206.16C180.28 206.16 183.16 208.056 183.16 212.544V213.504H174.112C174.208 215.592 175.336 216.792 177.232 216.792C178.84 216.792 179.632 216.096 179.848 215.04H183.136C182.728 217.752 180.568 219.264 177.136 219.264ZM174.16 211.368H179.776C179.656 209.472 178.696 208.56 177.04 208.56C175.48 208.56 174.424 209.592 174.16 211.368Z" fill="white"/>
<path d="M120.968 240.144C118.536 240.144 117.048 238.624 116.968 236.624H118.248C118.376 237.984 119.192 239.024 121 239.024C122.792 239.024 123.608 238.16 123.608 236.816C123.608 235.344 122.808 234.592 121.192 234.592H120.328V233.424H121.128C122.616 233.424 123.272 232.72 123.272 231.472C123.272 230.384 122.584 229.552 121.192 229.552C119.768 229.552 118.808 230.416 118.664 231.712H117.448C117.528 229.904 119.016 228.416 121.192 228.416C123.368 228.416 124.632 229.856 124.632 231.44C124.632 232.736 123.864 233.504 122.824 233.936C124.168 234.288 125.032 235.232 125.032 236.816C125.032 238.896 123.336 240.144 120.968 240.144ZM130.848 240.144C128.976 240.144 126.896 239.024 126.896 236.752C126.896 235.216 127.84 234.224 129.056 233.792C127.968 233.376 127.328 232.512 127.328 231.392C127.328 229.536 129.088 228.416 130.848 228.416C132.624 228.416 134.352 229.568 134.352 231.36C134.352 232.512 133.648 233.312 132.592 233.776C133.92 234.256 134.784 235.248 134.784 236.72C134.784 239.008 132.784 240.144 130.848 240.144ZM130.848 239.008C132.256 239.008 133.36 238.192 133.36 236.672C133.36 235.168 132.24 234.4 130.88 234.4C129.52 234.4 128.32 235.184 128.32 236.704C128.32 238.208 129.52 239.008 130.848 239.008ZM130.896 233.296C132.112 233.296 132.944 232.592 132.944 231.376C132.944 230.272 132.032 229.504 130.848 229.504C129.664 229.504 128.736 230.224 128.736 231.408C128.736 232.608 129.728 233.296 130.896 233.296ZM141.899 240V237.6H136.171V237.152L141.403 228.56H143.259V236.464H144.843V237.6H143.259V240H141.899ZM137.931 236.464H141.899V229.616L137.931 236.464ZM146.706 241.968L145.842 241.52L147.378 238.016L148.674 238.624L146.706 241.968ZM154.056 240.144C150.936 240.144 149.944 237.808 149.944 234.944V234.672C149.944 230.56 151.8 228.416 154.424 228.416C156.2 228.416 157.464 229.344 157.768 231.184H156.44C156.184 230.128 155.608 229.552 154.328 229.552C152.6 229.552 151.384 231.104 151.32 234.128C151.864 233.2 152.936 232.576 154.264 232.576C156.536 232.576 158.008 234.224 158.008 236.32C158.008 238.608 156.472 240.144 154.056 240.144ZM154.056 239.056C155.56 239.056 156.584 238 156.584 236.384C156.584 234.736 155.592 233.664 154.04 233.664C152.504 233.664 151.416 234.704 151.416 236.192C151.416 238.064 152.52 239.056 154.056 239.056ZM159.195 240V239.68L163.739 234.896C164.779 233.792 165.387 232.752 165.387 231.584C165.387 230.304 164.635 229.536 163.339 229.536C162.011 229.536 161.147 230.288 160.923 232.08H159.627C159.803 229.84 161.163 228.416 163.339 228.416C165.451 228.416 166.795 229.664 166.795 231.632C166.795 233.04 165.899 234.416 164.491 235.792L161.339 238.864H166.859V240H159.195ZM172.39 240.128C170.278 240.128 169.014 239.024 168.71 237.184H170.054C170.31 238.304 170.95 238.992 172.422 238.992C174.246 238.992 175.318 237.488 175.35 234.448C174.806 235.376 173.702 235.968 172.39 235.968C170.166 235.968 168.63 234.384 168.63 232.224C168.63 229.936 170.166 228.4 172.582 228.4C175.286 228.4 176.694 230.224 176.694 233.52V234.24C176.694 238.032 175.126 240.128 172.39 240.128ZM172.598 234.88C174.134 234.88 175.222 233.888 175.222 232.4C175.222 230.528 174.118 229.488 172.582 229.488C171.078 229.488 170.054 230.544 170.054 232.16C170.054 233.808 171.046 234.88 172.598 234.88Z" fill="white"/>
<path d="M306.337 277V262.864H301.705V259.84H314.881V262.864H310.249V277H306.337ZM321.037 274.624C322.981 274.624 324.109 273.184 324.109 270.808V270.64C324.109 268.24 322.981 266.8 321.037 266.8C319.117 266.8 317.965 268.192 317.965 270.592V270.784C317.965 273.184 319.069 274.624 321.037 274.624ZM321.013 277.264C317.269 277.264 314.413 274.768 314.413 270.856V270.664C314.413 266.728 317.269 264.16 321.037 264.16C324.805 264.16 327.637 266.68 327.637 270.592V270.784C327.637 274.744 324.781 277.264 321.013 277.264ZM334.554 277.24C331.914 277.24 330.498 275.896 330.498 273.28V266.92H328.89V264.448H330.498V261.736H333.954V264.448H336.594V266.92H333.954V272.968C333.954 273.976 334.458 274.456 335.346 274.456C335.874 274.456 336.258 274.384 336.666 274.216V276.904C336.186 277.072 335.49 277.24 334.554 277.24ZM342.518 277.264C340.238 277.264 338.318 276.16 338.318 273.52C338.318 270.592 341.006 269.488 344.846 269.488H346.262V268.984C346.262 267.496 345.806 266.68 344.222 266.68C342.854 266.68 342.23 267.376 342.086 268.456H338.798C339.014 265.48 341.366 264.16 344.438 264.16C347.51 264.16 349.694 265.408 349.694 268.816V277H346.31V275.488C345.59 276.496 344.486 277.264 342.518 277.264ZM343.55 274.84C345.086 274.84 346.262 274 346.262 272.608V271.552H344.918C342.902 271.552 341.726 271.984 341.726 273.328C341.726 274.24 342.278 274.84 343.55 274.84ZM352.777 277V258.76H356.233V277H352.777Z" fill="white"/>
<path d="M292.585 298V297.68L297.129 292.896C298.169 291.792 298.777 290.752 298.777 289.584C298.777 288.304 298.025 287.536 296.729 287.536C295.401 287.536 294.537 288.288 294.313 290.08H293.017C293.193 287.84 294.553 286.416 296.729 286.416C298.841 286.416 300.185 287.664 300.185 289.632C300.185 291.04 299.289 292.416 297.881 293.792L294.729 296.864H300.249V298H292.585ZM302.424 299.968L301.56 299.52L303.096 296.016L304.392 296.624L302.424 299.968ZM309.656 298.128C307.544 298.128 306.28 297.024 305.976 295.184H307.32C307.576 296.304 308.216 296.992 309.688 296.992C311.512 296.992 312.584 295.488 312.616 292.448C312.072 293.376 310.968 293.968 309.656 293.968C307.432 293.968 305.896 292.384 305.896 290.224C305.896 287.936 307.432 286.4 309.848 286.4C312.552 286.4 313.96 288.224 313.96 291.52V292.24C313.96 296.032 312.392 298.128 309.656 298.128ZM309.864 292.88C311.4 292.88 312.488 291.888 312.488 290.4C312.488 288.528 311.384 287.488 309.848 287.488C308.344 287.488 307.32 288.544 307.32 290.16C307.32 291.808 308.312 292.88 309.864 292.88ZM320.01 298.144C316.89 298.144 315.898 295.808 315.898 292.944V292.672C315.898 288.56 317.754 286.416 320.378 286.416C322.154 286.416 323.418 287.344 323.722 289.184H322.394C322.138 288.128 321.562 287.552 320.282 287.552C318.554 287.552 317.338 289.104 317.274 292.128C317.818 291.2 318.89 290.576 320.218 290.576C322.49 290.576 323.962 292.224 323.962 294.32C323.962 296.608 322.426 298.144 320.01 298.144ZM320.01 297.056C321.514 297.056 322.538 296 322.538 294.384C322.538 292.736 321.546 291.664 319.994 291.664C318.458 291.664 317.37 292.704 317.37 294.192C317.37 296.064 318.474 297.056 320.01 297.056ZM329.484 298.144C327.052 298.144 325.564 296.624 325.484 294.624H326.764C326.892 295.984 327.708 297.024 329.516 297.024C331.308 297.024 332.124 296.16 332.124 294.816C332.124 293.344 331.324 292.592 329.708 292.592H328.844V291.424H329.644C331.132 291.424 331.788 290.72 331.788 289.472C331.788 288.384 331.1 287.552 329.708 287.552C328.284 287.552 327.324 288.416 327.18 289.712H325.964C326.044 287.904 327.532 286.416 329.708 286.416C331.884 286.416 333.148 287.856 333.148 289.44C333.148 290.736 332.38 291.504 331.34 291.936C332.684 292.288 333.548 293.232 333.548 294.816C333.548 296.896 331.852 298.144 329.484 298.144ZM335.628 299.968L334.764 299.52L336.299 296.016L337.596 296.624L335.628 299.968ZM343.161 298.144C341.289 298.144 339.209 297.024 339.209 294.752C339.209 293.216 340.153 292.224 341.369 291.792C340.281 291.376 339.641 290.512 339.641 289.392C339.641 287.536 341.401 286.416 343.161 286.416C344.937 286.416 346.665 287.568 346.665 289.36C346.665 290.512 345.961 291.312 344.905 291.776C346.233 292.256 347.097 293.248 347.097 294.72C347.097 297.008 345.097 298.144 343.161 298.144ZM343.161 297.008C344.569 297.008 345.673 296.192 345.673 294.672C345.673 293.168 344.553 292.4 343.193 292.4C341.833 292.4 340.633 293.184 340.633 294.704C340.633 296.208 341.833 297.008 343.161 297.008ZM343.209 291.296C344.425 291.296 345.257 290.592 345.257 289.376C345.257 288.272 344.345 287.504 343.161 287.504C341.977 287.504 341.049 288.224 341.049 289.408C341.049 290.608 342.041 291.296 343.209 291.296ZM348.242 298V297.68L352.786 292.896C353.826 291.792 354.434 290.752 354.434 289.584C354.434 288.304 353.682 287.536 352.386 287.536C351.058 287.536 350.194 288.288 349.97 290.08H348.674C348.85 287.84 350.21 286.416 352.386 286.416C354.498 286.416 355.842 287.664 355.842 289.632C355.842 291.04 354.946 292.416 353.538 293.792L350.386 296.864H355.906V298H348.242ZM361.437 298.128C359.325 298.128 358.061 297.024 357.757 295.184H359.101C359.357 296.304 359.997 296.992 361.469 296.992C363.293 296.992 364.365 295.488 364.397 292.448C363.853 293.376 362.749 293.968 361.437 293.968C359.213 293.968 357.677 292.384 357.677 290.224C357.677 287.936 359.213 286.4 361.629 286.4C364.333 286.4 365.741 288.224 365.741 291.52V292.24C365.741 296.032 364.173 298.128 361.437 298.128ZM361.645 292.88C363.181 292.88 364.269 291.888 364.269 290.4C364.269 288.528 363.165 287.488 361.629 287.488C360.125 287.488 359.101 288.544 359.101 290.16C359.101 291.808 360.093 292.88 361.645 292.88Z" fill="white"/>
<path d="M251.293 443C250.446 443 249.6 442.995 248.755 442.984L248.749 443.484C247.055 443.463 245.367 443.42 243.684 443.357L243.703 442.858C242.015 442.794 240.333 442.71 238.657 442.604L238.625 443.103C236.936 442.997 235.251 442.87 233.573 442.722L233.617 442.224C231.935 442.076 230.26 441.906 228.59 441.716L228.534 442.213C226.852 442.022 225.176 441.81 223.507 441.577L223.576 441.081C221.905 440.848 220.24 440.594 218.582 440.319L218.5 440.812C216.83 440.536 215.168 440.239 213.513 439.921L213.607 439.43C211.95 439.112 210.3 438.773 208.657 438.414L208.55 438.903C206.898 438.541 205.253 438.16 203.616 437.758L203.735 437.272C202.096 436.87 200.465 436.447 198.843 436.005L198.711 436.487C197.08 436.042 195.457 435.577 193.842 435.092L193.986 434.613C192.37 434.128 190.763 433.622 189.164 433.097L189.008 433.572C187.402 433.045 185.805 432.497 184.217 431.93L184.385 431.459C182.796 430.892 181.217 430.305 179.647 429.699L179.467 430.165C177.89 429.557 176.323 428.929 174.766 428.281L174.958 427.82C173.401 427.172 171.853 426.505 170.315 425.82L170.112 426.277C168.569 425.589 167.036 424.881 165.513 424.156L165.729 423.704C164.206 422.979 162.694 422.234 161.193 421.471L160.966 421.917C159.461 421.151 157.966 420.367 156.482 419.565L156.72 419.125C155.236 418.323 153.764 417.503 152.303 416.664L152.054 417.098C150.59 416.257 149.136 415.399 147.695 414.522L147.955 414.095C146.514 413.219 145.085 412.325 143.668 411.414L143.398 411.834C141.977 410.921 140.569 409.99 139.173 409.041L139.454 408.628C138.06 407.68 136.678 406.716 135.309 405.734L135.018 406.141C133.645 405.156 132.286 404.155 130.939 403.138L131.241 402.739C129.896 401.723 128.565 400.69 127.247 399.641L126.936 400.032C125.614 398.98 124.306 397.912 123.012 396.827L123.334 396.444C122.042 395.362 120.765 394.263 119.501 393.149L119.17 393.524C117.904 392.407 116.651 391.275 115.413 390.127L115.753 389.76C114.518 388.614 113.297 387.453 112.091 386.277L111.742 386.635C110.533 385.456 109.339 384.262 108.16 383.053L108.518 382.704C107.341 381.498 106.18 380.277 105.035 379.042L104.668 379.382C103.52 378.144 102.387 376.891 101.27 375.624L101.645 375.294C100.531 374.03 99.4331 372.753 98.3508 371.461L97.9676 371.782C96.8832 370.488 95.8149 369.181 94.763 367.859L95.1541 367.548C94.105 366.23 93.0722 364.899 92.056 363.554L91.6571 363.856C90.6394 362.509 89.6384 361.15 88.6542 359.777L89.0605 359.486C88.0791 358.117 87.1144 356.735 86.167 355.34L85.7535 355.621C84.8051 354.226 83.874 352.818 82.9603 351.397L83.3808 351.127C82.4696 349.71 81.5758 348.281 80.6997 346.84L80.2725 347.1C79.3961 345.658 78.5374 344.205 77.6968 342.74L78.1304 342.492C77.2921 341.031 76.4717 339.558 75.6696 338.075L75.2298 338.313C74.4276 336.829 73.6437 335.334 72.8782 333.828L73.3239 333.602C72.5609 332.101 71.8163 330.589 71.0904 329.066L70.6391 329.281C69.9133 327.759 69.2063 326.226 68.5182 324.683L68.9749 324.48C68.2893 322.942 67.6226 321.394 66.9751 319.837L66.5134 320.029C65.8661 318.472 65.238 316.905 64.6293 315.328L65.0957 315.148C64.4895 313.578 63.9027 311.998 63.3354 310.41L62.8645 310.578C62.2976 308.99 61.7502 307.393 61.2226 305.787L61.6976 305.631C61.1725 304.032 60.6671 302.425 60.1817 300.809L59.7028 300.953C59.2178 299.338 58.7526 297.715 58.3076 296.084L58.79 295.952C58.3474 294.33 57.9249 292.699 57.5226 291.06L57.037 291.179C56.6351 289.542 56.2534 287.897 55.8923 286.245L56.3807 286.138C56.0218 284.495 55.6831 282.845 55.365 281.188L54.8739 281.282C54.5562 279.627 54.2589 277.965 53.9824 276.295L54.4757 276.213C54.201 274.555 53.9469 272.89 53.7136 271.219L53.2184 271.288C52.9854 269.619 52.7731 267.943 52.5817 266.261L53.0785 266.205C52.8885 264.535 52.7193 262.86 52.571 261.178L52.0729 261.222C51.9249 259.544 51.7977 257.86 51.6915 256.17L52.1906 256.138C52.0853 254.462 52.0008 252.78 51.9374 251.093L51.4377 251.111C51.3744 249.428 51.3321 247.74 51.3109 246.046L51.8108 246.04C51.8002 245.195 51.7949 244.349 51.7949 243.502C51.7949 242.655 51.8002 241.809 51.8108 240.965L51.3108 240.958C51.3321 239.265 51.3744 237.576 51.4377 235.893L51.9373 235.912C52.0008 234.225 52.0852 232.543 52.1905 230.866L51.6915 230.835C51.7976 229.145 51.9248 227.461 52.0729 225.782L52.5709 225.826C52.7192 224.145 52.8885 222.469 53.0784 220.8L52.5816 220.743C52.773 219.061 52.9853 217.385 53.2183 215.716L53.7135 215.785C53.9468 214.114 54.2009 212.449 54.4755 210.791L53.9822 210.709C54.2587 209.04 54.556 207.377 54.8737 205.722L55.3648 205.816C55.6829 204.159 56.0215 202.509 56.3805 200.866L55.892 200.759C56.2532 199.107 56.6348 197.462 57.0367 195.824L57.5223 195.944C57.9245 194.305 58.3471 192.674 58.7896 191.052L58.3072 190.92C58.7522 189.289 59.2174 187.665 59.7024 186.051L60.1813 186.195C60.6667 184.579 61.1721 182.971 61.6971 181.373L61.2221 181.217C61.7497 179.611 62.2971 178.014 62.864 176.426L63.3349 176.594C63.9021 175.005 64.489 173.425 65.0952 171.855L64.6287 171.675C65.2374 170.099 65.8655 168.532 66.5127 166.975L66.9744 167.167C67.6219 165.609 68.2886 164.061 68.9742 162.524L68.5175 162.32C69.2056 160.777 69.9126 159.244 70.6383 157.722L71.0897 157.937C71.8155 156.414 72.5601 154.902 73.3231 153.401L72.8774 153.175C73.6428 151.669 74.4268 150.174 75.2289 148.69L75.6688 148.928C76.4709 147.444 77.2912 145.972 78.1295 144.511L77.6959 144.262C78.5365 142.798 79.3952 141.344 80.2715 139.903L80.6987 140.163C81.5748 138.722 82.4686 137.293 83.3798 135.876L82.9593 135.606C83.873 134.185 84.8041 132.777 85.7524 131.381L86.166 131.662C87.1134 130.268 88.078 128.886 89.0595 127.517L88.6531 127.226C89.6373 125.853 90.6383 124.493 91.656 123.147L92.0549 123.448C93.0711 122.103 94.1039 120.772 95.153 119.454L94.7618 119.143C95.8138 117.821 96.8821 116.514 97.9664 115.22L98.3497 115.541C99.432 114.249 100.53 112.972 101.644 111.708L101.269 111.378C102.386 110.111 103.519 108.858 104.667 107.62L105.034 107.96C106.179 106.725 107.34 105.504 108.516 104.298L108.158 103.949C109.337 102.74 110.532 101.545 111.741 100.366L112.09 100.724C113.296 99.5482 114.517 98.3872 115.752 97.2416L115.412 96.875C116.65 95.7268 117.902 94.594 119.169 93.477L119.5 93.8521C120.763 92.738 122.041 91.6397 123.332 90.5573L123.011 90.1741C124.305 89.0897 125.613 88.0214 126.934 86.9694L127.246 87.3606C128.564 86.3114 129.895 85.2786 131.239 84.2624L130.938 83.8635C132.285 82.8457 133.644 81.8446 135.017 80.8604L135.308 81.2668C136.677 80.2853 138.059 79.3206 139.453 78.3732L139.172 77.9596C140.568 77.0113 141.976 76.0801 143.397 75.1664L143.667 75.5869C145.084 74.6756 146.513 73.7818 147.954 72.9057L147.694 72.4785C149.135 71.6021 150.589 70.7434 152.054 69.9027L152.302 70.3364C153.763 69.498 155.236 68.6776 156.719 67.8755L156.481 67.4356C157.965 66.6334 159.46 65.8495 160.966 65.084L161.192 65.5297C162.693 64.7666 164.205 64.022 165.728 63.2961L165.513 62.8448C167.035 62.119 168.568 61.412 170.111 60.7239L170.314 61.1805C171.852 60.4949 173.4 59.8282 174.957 59.1806L174.766 58.719C176.323 58.0717 177.89 57.4435 179.466 56.8348L179.646 57.3013C181.216 56.695 182.796 56.1081 184.385 55.5409L184.217 55.07C185.804 54.503 187.402 53.9556 189.008 53.428L189.164 53.903C190.762 53.3779 192.369 52.8725 193.985 52.387L193.841 51.9082C195.456 51.4231 197.079 50.9579 198.711 50.5129L198.842 50.9953C200.465 50.5527 202.096 50.1301 203.734 49.7279L203.615 49.2423C205.252 48.8404 206.897 48.4587 208.55 48.0975L208.657 48.586C210.299 48.227 211.949 47.8883 213.606 47.5702L213.512 47.0791C215.168 46.7614 216.83 46.4641 218.5 46.1876L218.581 46.6808C220.239 46.4062 221.904 46.1521 223.576 45.9187L223.507 45.4235C225.176 45.1905 226.852 44.9782 228.534 44.7868L228.59 45.2836C230.26 45.0936 231.935 44.9244 233.617 44.7761L233.573 44.278C235.251 44.13 236.935 44.0028 238.625 43.8966L238.657 44.3956C240.333 44.2904 242.015 44.2059 243.703 44.1424L243.684 43.6428C245.367 43.5795 247.055 43.5371 248.749 43.5159L248.755 44.0159C249.6 44.0053 250.446 44 251.293 44C252.14 44 252.986 44.0053 253.83 44.0159L253.837 43.5159C255.53 43.5371 257.218 43.5795 258.902 43.6428L258.883 44.1424C260.57 44.2059 262.252 44.2903 263.929 44.3956L263.96 43.8966C265.65 44.0027 267.334 44.1299 269.013 44.278L268.969 44.776C270.65 44.9243 272.326 45.0936 273.995 45.2835L274.052 44.7867C275.734 44.9781 277.41 45.1904 279.079 45.4234L279.01 45.9186C280.681 46.1519 282.346 46.406 284.004 46.6807L284.086 46.1874C285.756 46.4639 287.418 46.7612 289.074 47.0789L288.979 47.5699C290.637 47.888 292.287 48.2267 293.929 48.5857L294.036 48.0972C295.689 48.4584 297.334 48.8401 298.971 49.242L298.852 49.7275C300.49 50.1298 302.121 50.5523 303.744 50.9949L303.875 50.5125C305.507 50.9575 307.13 51.4227 308.745 51.9077L308.601 52.3866C310.217 52.872 311.824 53.3774 313.423 53.9025L313.579 53.4275C315.185 53.9551 316.782 54.5025 318.37 55.0694L318.202 55.5403C319.791 56.1076 321.37 56.6944 322.94 57.3006L323.12 56.8342C324.697 57.4429 326.264 58.071 327.821 58.7183L327.629 59.18C329.187 59.8275 330.735 60.4942 332.272 61.1798L332.476 60.7231C334.019 61.4112 335.552 62.1182 337.074 62.844L336.859 63.2953C338.382 64.0212 339.894 64.7658 341.395 65.5289L341.621 65.0831C343.127 65.8486 344.622 66.6326 346.106 67.4347L345.868 67.8746C347.351 68.6767 348.824 69.4971 350.285 70.3354L350.534 69.9018C351.998 70.7424 353.452 71.6011 354.893 72.4775L354.633 72.9047C356.074 73.7808 357.503 74.6746 358.92 75.5859L359.19 75.1654C360.611 76.0791 362.019 77.0102 363.415 77.9586L363.134 78.3721C364.528 79.3196 365.91 80.2842 367.279 81.2657L367.57 80.8594C368.943 81.8435 370.303 82.8446 371.65 83.8624L371.348 84.2612C372.693 85.2775 374.024 86.3103 375.342 87.3594L375.653 86.9682C376.975 88.0202 378.282 89.0886 379.576 90.173L379.255 90.5562C380.547 91.6385 381.824 92.7368 383.088 93.8509L383.419 93.4758C384.685 94.5928 385.938 95.7256 387.176 96.8738L386.836 97.2404C388.071 98.386 389.292 99.547 390.498 100.723L390.847 100.365C392.056 101.544 393.251 102.738 394.43 103.948L394.072 104.297C395.248 105.503 396.409 106.724 397.554 107.959L397.921 107.619C399.069 108.857 400.202 110.11 401.319 111.376L400.944 111.707C402.058 112.971 403.156 114.248 404.239 115.54L404.622 115.219C405.706 116.512 406.775 117.82 407.827 119.142L407.435 119.453C408.484 120.771 409.517 122.102 410.534 123.447L410.932 123.145C411.95 124.492 412.951 125.852 413.935 127.224L413.529 127.516C414.511 128.885 415.475 130.267 416.423 131.661L416.836 131.38C417.785 132.776 418.716 134.184 419.629 135.605L419.209 135.875C420.12 137.292 421.014 138.721 421.89 140.162L422.317 139.902C423.194 141.343 424.052 142.797 424.893 144.261L424.459 144.51C425.298 145.971 426.118 147.443 426.92 148.927L427.36 148.689C428.162 150.173 428.946 151.668 429.712 153.174L429.266 153.4C430.029 154.901 430.774 156.413 431.499 157.936L431.951 157.721C432.677 159.243 433.384 160.776 434.072 162.319L433.615 162.523C434.301 164.06 434.967 165.608 435.615 167.166L436.076 166.974C436.724 168.531 437.352 170.098 437.961 171.675L437.494 171.855C438.1 173.425 438.687 175.004 439.254 176.593L439.725 176.425C440.292 178.013 440.84 179.61 441.367 181.216L440.892 181.372C441.417 182.971 441.923 184.578 442.408 186.194L442.887 186.05C443.372 187.665 443.837 189.288 444.282 190.919L443.8 191.051C444.242 192.674 444.665 194.304 445.067 195.943L445.553 195.824C445.955 197.461 446.336 199.106 446.698 200.759L446.209 200.866C446.568 202.508 446.907 204.158 447.225 205.815L447.716 205.721C448.034 207.377 448.331 209.039 448.607 210.709L448.114 210.79C448.389 212.449 448.643 214.114 448.876 215.785L449.371 215.716C449.604 217.385 449.817 219.061 450.008 220.743L449.511 220.799C449.701 222.469 449.871 224.144 450.019 225.826L450.517 225.782C450.665 227.46 450.792 229.145 450.898 230.835L450.399 230.866C450.505 232.542 450.589 234.225 450.652 235.912L451.152 235.893C451.215 237.576 451.258 239.265 451.279 240.958L450.779 240.964C450.79 241.809 450.795 242.655 450.795 243.502C450.795 244.349 450.79 245.195 450.779 246.04L451.279 246.046C451.258 247.74 451.215 249.428 451.152 251.111L450.652 251.092C450.589 252.78 450.505 254.462 450.399 256.138L450.898 256.17C450.792 257.86 450.665 259.544 450.517 261.222L450.019 261.178C449.871 262.86 449.701 264.535 449.511 266.205L450.008 266.261C449.817 267.943 449.604 269.619 449.371 271.288L448.876 271.219C448.643 272.891 448.389 274.556 448.114 276.214L448.607 276.295C448.331 277.965 448.034 279.627 447.716 281.283L447.225 281.189C446.907 282.846 446.568 284.496 446.209 286.138L446.698 286.245C446.336 287.898 445.955 289.543 445.553 291.18L445.067 291.061C444.665 292.7 444.242 294.33 443.8 295.953L444.282 296.085C443.837 297.716 443.372 299.339 442.887 300.954L442.408 300.81C441.923 302.426 441.417 304.033 440.892 305.632L441.367 305.788C440.84 307.394 440.292 308.991 439.725 310.579L439.254 310.411C438.687 312 438.1 313.579 437.494 315.149L437.961 315.329C437.352 316.906 436.724 318.473 436.076 320.03L435.615 319.838C434.967 321.396 434.301 322.943 433.615 324.481L434.072 324.685C433.384 326.228 432.676 327.761 431.951 329.283L431.499 329.068C430.774 330.59 430.029 332.102 429.266 333.603L429.712 333.83C428.946 335.336 428.162 336.831 427.36 338.314L426.92 338.076C426.118 339.56 425.298 341.032 424.459 342.493L424.893 342.742C424.052 344.207 423.194 345.66 422.317 347.101L421.89 346.842C421.014 348.283 420.12 349.712 419.209 351.128L419.629 351.399C418.716 352.819 417.784 354.228 416.836 355.623L416.422 355.342C415.475 356.737 414.51 358.118 413.529 359.487L413.935 359.779C412.951 361.151 411.95 362.511 410.932 363.858L410.533 363.556C409.517 364.901 408.484 366.232 407.435 367.55L407.826 367.861C406.774 369.183 405.706 370.49 404.622 371.784L404.238 371.463C403.156 372.755 402.058 374.032 400.944 375.296L401.319 375.626C400.202 376.893 399.069 378.146 397.921 379.384L397.554 379.044C396.408 380.279 395.247 381.5 394.071 382.706L394.429 383.055C393.25 384.264 392.056 385.458 390.847 386.637L390.498 386.279C389.292 387.455 388.071 388.616 386.836 389.762L387.176 390.129C385.938 391.277 384.685 392.41 383.418 393.527L383.087 393.151C381.824 394.265 380.546 395.364 379.255 396.446L379.576 396.829C378.282 397.914 376.974 398.982 375.653 400.034L375.341 399.643C374.023 400.692 372.692 401.725 371.348 402.741L371.649 403.14C370.302 404.157 368.943 405.158 367.57 406.143L367.279 405.736C365.91 406.718 364.528 407.682 363.133 408.63L363.414 409.043C362.019 409.992 360.61 410.923 359.19 411.836L358.919 411.416C357.503 412.327 356.074 413.221 354.633 414.097L354.892 414.524C353.451 415.4 351.998 416.259 350.533 417.1L350.284 416.666C348.823 417.504 347.351 418.325 345.867 419.127L346.105 419.567C344.621 420.369 343.126 421.153 341.621 421.918L341.394 421.472C339.893 422.235 338.381 422.98 336.858 423.706L337.073 424.157C335.551 424.883 334.018 425.59 332.475 426.278L332.272 425.821C330.734 426.507 329.186 427.173 327.628 427.821L327.82 428.283C326.263 428.93 324.696 429.558 323.12 430.167L322.94 429.7C321.37 430.306 319.79 430.893 318.201 431.46L318.369 431.931C316.781 432.498 315.184 433.046 313.578 433.573L313.422 433.098C311.824 433.623 310.216 434.129 308.6 434.614L308.744 435.093C307.13 435.578 305.506 436.043 303.875 436.488L303.743 436.006C302.121 436.448 300.49 436.871 298.851 437.273L298.97 437.758C297.333 438.16 295.688 438.542 294.035 438.903L293.929 438.415C292.286 438.774 290.636 439.112 288.979 439.43L289.073 439.921C287.418 440.239 285.755 440.536 284.086 440.813L284.004 440.32C282.346 440.594 280.681 440.848 279.009 441.082L279.078 441.577C277.409 441.81 275.734 442.022 274.052 442.213L273.995 441.717C272.326 441.907 270.65 442.076 268.969 442.224L269.013 442.722C267.334 442.87 265.65 442.997 263.96 443.103L263.928 442.604C262.252 442.71 260.57 442.794 258.883 442.858L258.901 443.357C257.218 443.421 255.53 443.463 253.836 443.484L253.83 442.984C252.985 442.995 252.14 443 251.293 443Z" stroke="url(#paint3_linear_4003_108)" stroke-opacity="0.25" stroke-miterlimit="10" stroke-dasharray="5 5"/>
<defs>
<linearGradient id="paint0_linear_4003_108" x1="522" y1="476" x2="-454.327" y2="-456.502" gradientUnits="userSpaceOnUse">
<stop stop-color="#6F69F2"/>
<stop offset="0.813974" stop-color="#00B9FF"/>
</linearGradient>
<linearGradient id="paint1_linear_4003_108" x1="70.4956" y1="430.982" x2="806.31" y2="-202.594" gradientUnits="userSpaceOnUse">
<stop stop-color="#6F69F2"/>
<stop offset="0.813974" stop-color="#00B9FF"/>
</linearGradient>
<linearGradient id="paint2_linear_4003_108" x1="70.4956" y1="430.982" x2="806.31" y2="-202.594" gradientUnits="userSpaceOnUse">
<stop stop-color="#6F69F2"/>
<stop offset="0.813974" stop-color="#00B9FF"/>
</linearGradient>
<linearGradient id="paint3_linear_4003_108" x1="451.295" y1="443.5" x2="-362.235" y2="-265.04" gradientUnits="userSpaceOnUse">
<stop stop-color="#6F69F2"/>
<stop offset="0.813974" stop-color="#00B9FF"/>
</linearGradient>
</defs>
</svg>
