<svg width="494" height="450" viewBox="0 0 494 450" fill="none" xmlns="http://www.w3.org/2000/svg">
<path d="M151.288 369.7C151.052 370.118 151.199 370.649 151.617 370.883C175.634 384.34 202.305 392.389 229.763 394.463C257.222 396.537 284.799 392.586 310.565 382.89C311.014 382.721 311.239 382.219 311.068 381.77C310.897 381.322 310.394 381.097 309.945 381.266C284.418 390.871 257.098 394.784 229.894 392.73C202.691 390.675 176.268 382.701 152.474 369.37C152.055 369.136 151.525 369.282 151.288 369.7Z" fill="#279FFC"/>
<path d="M254.745 417.969C254.765 418.446 255.168 418.818 255.645 418.797C283.231 417.571 310.295 410.811 335.235 398.914C360.175 387.017 382.479 370.226 400.827 349.538C401.143 349.181 401.109 348.636 400.752 348.321C400.394 348.004 399.846 348.039 399.529 348.396C381.335 368.907 359.221 385.555 334.493 397.351C309.764 409.148 282.929 415.851 255.576 417.067C255.098 417.089 254.726 417.491 254.745 417.969Z" fill="#279FFC"/>
<path d="M337.313 369.358C337.551 369.775 338.082 369.92 338.498 369.68C362.237 355.974 382.715 337.267 398.506 314.853C414.297 292.438 425.021 266.859 429.936 239.892C430.022 239.42 429.707 238.968 429.234 238.884C428.762 238.8 428.311 239.116 428.225 239.588C423.354 266.304 412.729 291.645 397.085 313.851C381.44 336.057 361.154 354.591 337.636 368.17C337.22 368.41 337.075 368.941 337.313 369.358Z" fill="#279FFC"/>
<path d="M182.062 14.5312C181.967 14.0604 181.509 13.7551 181.039 13.8516C147.027 20.8251 115.592 37.0331 90.1855 60.6966C89.8342 61.0238 89.817 61.5744 90.1458 61.9242C90.4746 62.2739 91.0249 62.2905 91.3762 61.9633C116.546 38.5222 147.686 22.4659 181.38 15.5562C181.85 15.4598 182.156 15.0019 182.062 14.5312Z" fill="#00B9FF"/>
<path opacity="0.05" d="M494 194.682C494 326.132 360.57 450 232.284 450C103.997 450 0 343.439 0 211.989C0 80.5392 44.13 -6.37887 172.248 0.366682C256.867 4.82183 494 63.2324 494 194.682Z" fill="url(#paint0_linear_4003_115)"/>
<path d="M408 199.646C408 290.221 334.575 363.646 244 363.646C153.425 363.646 80 290.221 80 199.646C80 109.071 153.425 35.6459 244 35.6459C334.575 35.6459 408 109.071 408 199.646ZM147.339 199.646C147.339 253.03 190.616 296.306 244 296.306C297.384 296.306 340.661 253.03 340.661 199.646C340.661 146.262 297.384 102.985 244 102.985C190.616 102.985 147.339 146.262 147.339 199.646Z" fill="url(#paint1_linear_4003_115)"/>
<circle cx="244" cy="199.864" r="97" fill="#EBEDFE"/>
<path d="M244 34.847V33.847H243C216.979 33.847 191.327 40.0012 168.139 51.8072C144.95 63.6131 124.882 80.736 109.574 101.778L108.986 102.586L109.795 103.175L165.143 143.441L165.952 144.03L166.54 143.221C175.312 131.163 186.812 121.351 200.101 114.585C213.402 107.813 228.103 103.965 243 103.965H244V102.965V34.847Z" fill="#00B9FF" stroke="#E7E9FC" stroke-width="2"/>
<path d="M263.697 321V309.22H259.837V306.7H270.817V309.22H266.957V321H263.697ZM275.947 319.02C277.567 319.02 278.507 317.82 278.507 315.84V315.7C278.507 313.7 277.567 312.5 275.947 312.5C274.347 312.5 273.387 313.66 273.387 315.66V315.82C273.387 317.82 274.307 319.02 275.947 319.02ZM275.927 321.22C272.807 321.22 270.427 319.14 270.427 315.88V315.72C270.427 312.44 272.807 310.3 275.947 310.3C279.087 310.3 281.447 312.4 281.447 315.66V315.82C281.447 319.12 279.067 321.22 275.927 321.22ZM287.211 321.2C285.011 321.2 283.831 320.08 283.831 317.9V312.6H282.491V310.54H283.831V308.28H286.711V310.54H288.911V312.6H286.711V317.64C286.711 318.48 287.131 318.88 287.871 318.88C288.311 318.88 288.631 318.82 288.971 318.68V320.92C288.571 321.06 287.991 321.2 287.211 321.2ZM293.848 321.22C291.948 321.22 290.348 320.3 290.348 318.1C290.348 315.66 292.588 314.74 295.788 314.74H296.968V314.32C296.968 313.08 296.588 312.4 295.268 312.4C294.128 312.4 293.608 312.98 293.488 313.88H290.748C290.928 311.4 292.888 310.3 295.448 310.3C298.008 310.3 299.828 311.34 299.828 314.18V321H297.008V319.74C296.408 320.58 295.488 321.22 293.848 321.22ZM294.708 319.2C295.988 319.2 296.968 318.5 296.968 317.34V316.46H295.848C294.168 316.46 293.188 316.82 293.188 317.94C293.188 318.7 293.648 319.2 294.708 319.2ZM302.397 321V305.8H305.277V321H302.397Z" fill="white"/>
<path d="M261.087 340.126C258.931 340.126 257.895 338.936 257.755 337.298H258.917C259.113 338.39 259.547 339.146 261.073 339.146C262.431 339.146 263.271 338.236 263.271 336.724C263.271 335.31 262.445 334.386 261.171 334.386C260.009 334.386 259.337 334.75 258.805 335.352H258.357V329.99H263.985V331.04H259.365V334.092C259.771 333.714 260.457 333.406 261.409 333.406C263.201 333.406 264.517 334.68 264.517 336.724C264.517 338.838 262.991 340.126 261.087 340.126ZM270.118 339.118C271.868 339.118 272.764 337.774 272.764 335.24V334.68C272.764 332.356 271.784 330.844 270.09 330.844C268.396 330.844 267.388 332.244 267.388 334.708V335.268C267.388 337.802 268.452 339.118 270.118 339.118ZM270.118 340.126C267.724 340.126 266.142 338.194 266.142 335.282V334.722C266.142 331.768 267.64 329.864 270.09 329.864C272.554 329.864 273.996 331.838 273.996 334.694V335.254C273.996 338.166 272.582 340.126 270.118 340.126ZM278.765 340.126C276.609 340.126 275.573 338.936 275.433 337.298H276.595C276.791 338.39 277.225 339.146 278.751 339.146C280.109 339.146 280.949 338.236 280.949 336.724C280.949 335.31 280.123 334.386 278.849 334.386C277.687 334.386 277.015 334.75 276.483 335.352H276.035V329.99H281.663V331.04H277.043V334.092C277.449 333.714 278.135 333.406 279.087 333.406C280.879 333.406 282.195 334.68 282.195 336.724C282.195 338.838 280.669 340.126 278.765 340.126ZM283.747 341.722L282.991 341.33L284.335 338.264L285.469 338.796L283.747 341.722ZM290.179 340.126C287.449 340.126 286.581 338.082 286.581 335.576V335.338C286.581 331.74 288.205 329.864 290.501 329.864C292.055 329.864 293.161 330.676 293.427 332.286H292.265C292.041 331.362 291.537 330.858 290.417 330.858C288.905 330.858 287.841 332.216 287.785 334.862C288.261 334.05 289.199 333.504 290.361 333.504C292.349 333.504 293.637 334.946 293.637 336.78C293.637 338.782 292.293 340.126 290.179 340.126ZM290.179 339.174C291.495 339.174 292.391 338.25 292.391 336.836C292.391 335.394 291.523 334.456 290.165 334.456C288.821 334.456 287.869 335.366 287.869 336.668C287.869 338.306 288.835 339.174 290.179 339.174ZM296.18 340L299.666 330.97H294.584V329.99H301.178V330.158L297.426 340H296.18ZM303.535 340L307.021 330.97H301.939V329.99H308.533V330.158L304.781 340H303.535Z" fill="white"/>
<path d="M157.668 81L162.368 66.7H166.588L171.228 81H167.848L166.868 77.82H161.688L160.708 81H157.668ZM164.288 69.34L162.388 75.52H166.168L164.288 69.34ZM177.37 81.22C174.31 81.22 171.99 79.32 171.99 75.9V75.74C171.99 72.36 174.41 70.3 177.39 70.3C179.81 70.3 182.05 71.36 182.31 74.36H179.57C179.37 73.14 178.63 72.58 177.45 72.58C175.95 72.58 174.95 73.7 174.95 75.7V75.86C174.95 77.96 175.89 79.04 177.51 79.04C178.67 79.04 179.61 78.36 179.75 77.02H182.37C182.21 79.5 180.41 81.22 177.37 81.22ZM188.012 81.2C185.812 81.2 184.632 80.08 184.632 77.9V72.6H183.292V70.54H184.632V68.28H187.512V70.54H189.712V72.6H187.512V77.64C187.512 78.48 187.932 78.88 188.672 78.88C189.112 78.88 189.432 78.82 189.772 78.68V80.92C189.372 81.06 188.792 81.2 188.012 81.2ZM191.811 81V70.54H194.691V81H191.811ZM193.231 69.12C192.311 69.12 191.591 68.44 191.591 67.54C191.591 66.64 192.311 65.96 193.231 65.96C194.171 65.96 194.891 66.64 194.891 67.54C194.891 68.44 194.171 69.12 193.231 69.12ZM200.176 81L196.356 70.54H199.456L201.956 78.02L204.436 70.54H207.236L203.436 81H200.176ZM213.114 81.22C209.954 81.22 207.654 79.24 207.654 75.9V75.74C207.654 72.44 209.994 70.3 213.034 70.3C215.734 70.3 218.134 71.88 218.134 75.62V76.42H210.594C210.674 78.16 211.614 79.16 213.194 79.16C214.534 79.16 215.194 78.58 215.374 77.7H218.114C217.774 79.96 215.974 81.22 213.114 81.22ZM210.634 74.64H215.314C215.214 73.06 214.414 72.3 213.034 72.3C211.734 72.3 210.854 73.16 210.634 74.64Z" fill="white"/>
<path d="M167.125 100V91.194L164.885 92.804V91.67L167.209 89.99H168.343V100H167.125ZM170.281 100V99.72L174.257 95.534C175.167 94.568 175.699 93.658 175.699 92.636C175.699 91.516 175.041 90.844 173.907 90.844C172.745 90.844 171.989 91.502 171.793 93.07H170.659C170.813 91.11 172.003 89.864 173.907 89.864C175.755 89.864 176.931 90.956 176.931 92.678C176.931 93.91 176.147 95.114 174.915 96.318L172.157 99.006H176.987V100H170.281ZM182.514 99.118C184.264 99.118 185.16 97.774 185.16 95.24V94.68C185.16 92.356 184.18 90.844 182.486 90.844C180.792 90.844 179.784 92.244 179.784 94.708V95.268C179.784 97.802 180.848 99.118 182.514 99.118ZM182.514 100.126C180.12 100.126 178.538 98.194 178.538 95.282V94.722C178.538 91.768 180.036 89.864 182.486 89.864C184.95 89.864 186.392 91.838 186.392 94.694V95.254C186.392 98.166 184.978 100.126 182.514 100.126ZM187.79 101.722L187.034 101.33L188.378 98.264L189.512 98.796L187.79 101.722ZM190.747 100V99.72L194.723 95.534C195.633 94.568 196.165 93.658 196.165 92.636C196.165 91.516 195.507 90.844 194.373 90.844C193.211 90.844 192.455 91.502 192.259 93.07H191.125C191.279 91.11 192.469 89.864 194.373 89.864C196.221 89.864 197.397 90.956 197.397 92.678C197.397 93.91 196.613 95.114 195.381 96.318L192.623 99.006H197.453V100H190.747ZM200.935 100V91.194L198.695 92.804V91.67L201.019 89.99H202.153V100H200.935ZM204.091 100V99.72L208.067 95.534C208.977 94.568 209.509 93.658 209.509 92.636C209.509 91.516 208.851 90.844 207.717 90.844C206.555 90.844 205.799 91.502 205.603 93.07H204.469C204.623 91.11 205.813 89.864 207.717 89.864C209.565 89.864 210.741 90.956 210.741 92.678C210.741 93.91 209.957 95.114 208.725 96.318L205.967 99.006H210.797V100H204.091Z" fill="white"/>
<defs>
<linearGradient id="paint0_linear_4003_115" x1="494" y1="450" x2="-429.042" y2="-432.524" gradientUnits="userSpaceOnUse">
<stop stop-color="#6F69F2"/>
<stop offset="0.813974" stop-color="#00B9FF"/>
</linearGradient>
<linearGradient id="paint1_linear_4003_115" x1="71.5" y1="417" x2="355.055" y2="188.288" gradientUnits="userSpaceOnUse">
<stop stop-color="#6F69F2"/>
<stop offset="1" stop-color="#269FFB"/>
</linearGradient>
</defs>
</svg>
