<svg width="802" height="803" viewBox="0 0 802 803" fill="none" xmlns="http://www.w3.org/2000/svg">
<path opacity="0.05" d="M651 396.682C651 528.132 517.57 652 389.284 652C260.997 652 157 545.439 157 413.989C157 282.539 201.13 195.621 329.248 202.367C413.867 206.822 651 265.232 651 396.682Z" fill="url(#paint0_linear_4014_114)"/>
<g filter="url(#filter0_d_4014_114)">
<path d="M565 401.646C565 492.221 491.575 565.646 401 565.646C310.425 565.646 237 492.221 237 401.646C237 311.071 310.425 237.646 401 237.646C491.575 237.646 565 311.071 565 401.646ZM304.339 401.646C304.339 455.03 347.616 498.306 401 498.306C454.384 498.306 497.661 455.03 497.661 401.646C497.661 348.262 454.384 304.985 401 304.985C347.616 304.985 304.339 348.262 304.339 401.646Z" fill="url(#paint1_linear_4014_114)"/>
</g>
<circle cx="401" cy="401.864" r="97" fill="#EBEDFE"/>
<path d="M401 236.847V235.847H400C373.979 235.847 348.327 242.001 325.139 253.807C301.95 265.613 281.882 282.736 266.574 303.778L265.986 304.586L266.795 305.175L322.143 345.441L322.952 346.03L323.54 345.221C332.312 333.163 343.812 323.351 357.101 316.585C370.402 309.813 385.103 305.965 400 305.965H401V304.965V236.847Z" fill="#00B9FF" stroke="#E7E9FC" stroke-width="2"/>
<path d="M420.697 523V511.22H416.837V508.7H427.817V511.22H423.957V523H420.697ZM432.947 521.02C434.567 521.02 435.507 519.82 435.507 517.84V517.7C435.507 515.7 434.567 514.5 432.947 514.5C431.347 514.5 430.387 515.66 430.387 517.66V517.82C430.387 519.82 431.307 521.02 432.947 521.02ZM432.927 523.22C429.807 523.22 427.427 521.14 427.427 517.88V517.72C427.427 514.44 429.807 512.3 432.947 512.3C436.087 512.3 438.447 514.4 438.447 517.66V517.82C438.447 521.12 436.067 523.22 432.927 523.22ZM444.211 523.2C442.011 523.2 440.831 522.08 440.831 519.9V514.6H439.491V512.54H440.831V510.28H443.711V512.54H445.911V514.6H443.711V519.64C443.711 520.48 444.131 520.88 444.871 520.88C445.311 520.88 445.631 520.82 445.971 520.68V522.92C445.571 523.06 444.991 523.2 444.211 523.2ZM450.848 523.22C448.948 523.22 447.348 522.3 447.348 520.1C447.348 517.66 449.588 516.74 452.788 516.74H453.968V516.32C453.968 515.08 453.588 514.4 452.268 514.4C451.128 514.4 450.608 514.98 450.488 515.88H447.748C447.928 513.4 449.888 512.3 452.448 512.3C455.008 512.3 456.828 513.34 456.828 516.18V523H454.008V521.74C453.408 522.58 452.488 523.22 450.848 523.22ZM451.708 521.2C452.988 521.2 453.968 520.5 453.968 519.34V518.46H452.848C451.168 518.46 450.188 518.82 450.188 519.94C450.188 520.7 450.648 521.2 451.708 521.2ZM459.397 523V507.8H462.277V523H459.397Z" fill="white"/>
<path d="M418.087 542.126C415.931 542.126 414.895 540.936 414.755 539.298H415.917C416.113 540.39 416.547 541.146 418.073 541.146C419.431 541.146 420.271 540.236 420.271 538.724C420.271 537.31 419.445 536.386 418.171 536.386C417.009 536.386 416.337 536.75 415.805 537.352H415.357V531.99H420.985V533.04H416.365V536.092C416.771 535.714 417.457 535.406 418.409 535.406C420.201 535.406 421.517 536.68 421.517 538.724C421.517 540.838 419.991 542.126 418.087 542.126ZM427.118 541.118C428.868 541.118 429.764 539.774 429.764 537.24V536.68C429.764 534.356 428.784 532.844 427.09 532.844C425.396 532.844 424.388 534.244 424.388 536.708V537.268C424.388 539.802 425.452 541.118 427.118 541.118ZM427.118 542.126C424.724 542.126 423.142 540.194 423.142 537.282V536.722C423.142 533.768 424.64 531.864 427.09 531.864C429.554 531.864 430.996 533.838 430.996 536.694V537.254C430.996 540.166 429.582 542.126 427.118 542.126ZM435.765 542.126C433.609 542.126 432.573 540.936 432.433 539.298H433.595C433.791 540.39 434.225 541.146 435.751 541.146C437.109 541.146 437.949 540.236 437.949 538.724C437.949 537.31 437.123 536.386 435.849 536.386C434.687 536.386 434.015 536.75 433.483 537.352H433.035V531.99H438.663V533.04H434.043V536.092C434.449 535.714 435.135 535.406 436.087 535.406C437.879 535.406 439.195 536.68 439.195 538.724C439.195 540.838 437.669 542.126 435.765 542.126ZM440.747 543.722L439.991 543.33L441.335 540.264L442.469 540.796L440.747 543.722ZM447.179 542.126C444.449 542.126 443.581 540.082 443.581 537.576V537.338C443.581 533.74 445.205 531.864 447.501 531.864C449.055 531.864 450.161 532.676 450.427 534.286H449.265C449.041 533.362 448.537 532.858 447.417 532.858C445.905 532.858 444.841 534.216 444.785 536.862C445.261 536.05 446.199 535.504 447.361 535.504C449.349 535.504 450.637 536.946 450.637 538.78C450.637 540.782 449.293 542.126 447.179 542.126ZM447.179 541.174C448.495 541.174 449.391 540.25 449.391 538.836C449.391 537.394 448.523 536.456 447.165 536.456C445.821 536.456 444.869 537.366 444.869 538.668C444.869 540.306 445.835 541.174 447.179 541.174ZM453.18 542L456.666 532.97H451.584V531.99H458.178V532.158L454.426 542H453.18ZM460.535 542L464.021 532.97H458.939V531.99H465.533V532.158L461.781 542H460.535Z" fill="white"/>
<path d="M314.668 283L319.368 268.7H323.588L328.228 283H324.848L323.868 279.82H318.688L317.708 283H314.668ZM321.288 271.34L319.388 277.52H323.168L321.288 271.34ZM334.37 283.22C331.31 283.22 328.99 281.32 328.99 277.9V277.74C328.99 274.36 331.41 272.3 334.39 272.3C336.81 272.3 339.05 273.36 339.31 276.36H336.57C336.37 275.14 335.63 274.58 334.45 274.58C332.95 274.58 331.95 275.7 331.95 277.7V277.86C331.95 279.96 332.89 281.04 334.51 281.04C335.67 281.04 336.61 280.36 336.75 279.02H339.37C339.21 281.5 337.41 283.22 334.37 283.22ZM345.012 283.2C342.812 283.2 341.632 282.08 341.632 279.9V274.6H340.292V272.54H341.632V270.28H344.512V272.54H346.712V274.6H344.512V279.64C344.512 280.48 344.932 280.88 345.672 280.88C346.112 280.88 346.432 280.82 346.772 280.68V282.92C346.372 283.06 345.792 283.2 345.012 283.2ZM348.811 283V272.54H351.691V283H348.811ZM350.231 271.12C349.311 271.12 348.591 270.44 348.591 269.54C348.591 268.64 349.311 267.96 350.231 267.96C351.171 267.96 351.891 268.64 351.891 269.54C351.891 270.44 351.171 271.12 350.231 271.12ZM357.176 283L353.356 272.54H356.456L358.956 280.02L361.436 272.54H364.236L360.436 283H357.176ZM370.114 283.22C366.954 283.22 364.654 281.24 364.654 277.9V277.74C364.654 274.44 366.994 272.3 370.034 272.3C372.734 272.3 375.134 273.88 375.134 277.62V278.42H367.594C367.674 280.16 368.614 281.16 370.194 281.16C371.534 281.16 372.194 280.58 372.374 279.7H375.114C374.774 281.96 372.974 283.22 370.114 283.22ZM367.634 276.64H372.314C372.214 275.06 371.414 274.3 370.034 274.3C368.734 274.3 367.854 275.16 367.634 276.64Z" fill="white"/>
<path d="M324.125 302V293.194L321.885 294.804V293.67L324.209 291.99H325.343V302H324.125ZM327.281 302V301.72L331.257 297.534C332.167 296.568 332.699 295.658 332.699 294.636C332.699 293.516 332.041 292.844 330.907 292.844C329.745 292.844 328.989 293.502 328.793 295.07H327.659C327.813 293.11 329.003 291.864 330.907 291.864C332.755 291.864 333.931 292.956 333.931 294.678C333.931 295.91 333.147 297.114 331.915 298.318L329.157 301.006H333.987V302H327.281ZM339.514 301.118C341.264 301.118 342.16 299.774 342.16 297.24V296.68C342.16 294.356 341.18 292.844 339.486 292.844C337.792 292.844 336.784 294.244 336.784 296.708V297.268C336.784 299.802 337.848 301.118 339.514 301.118ZM339.514 302.126C337.12 302.126 335.538 300.194 335.538 297.282V296.722C335.538 293.768 337.036 291.864 339.486 291.864C341.95 291.864 343.392 293.838 343.392 296.694V297.254C343.392 300.166 341.978 302.126 339.514 302.126ZM344.79 303.722L344.034 303.33L345.378 300.264L346.512 300.796L344.79 303.722ZM347.747 302V301.72L351.723 297.534C352.633 296.568 353.165 295.658 353.165 294.636C353.165 293.516 352.507 292.844 351.373 292.844C350.211 292.844 349.455 293.502 349.259 295.07H348.125C348.279 293.11 349.469 291.864 351.373 291.864C353.221 291.864 354.397 292.956 354.397 294.678C354.397 295.91 353.613 297.114 352.381 298.318L349.623 301.006H354.453V302H347.747ZM357.935 302V293.194L355.695 294.804V293.67L358.019 291.99H359.153V302H357.935ZM361.091 302V301.72L365.067 297.534C365.977 296.568 366.509 295.658 366.509 294.636C366.509 293.516 365.851 292.844 364.717 292.844C363.555 292.844 362.799 293.502 362.603 295.07H361.469C361.623 293.11 362.813 291.864 364.717 291.864C366.565 291.864 367.741 292.956 367.741 294.678C367.741 295.91 366.957 297.114 365.725 298.318L362.967 301.006H367.797V302H361.091Z" fill="white"/>
<defs>
<filter id="filter0_d_4014_114" x="0.300003" y="0.945908" width="801.4" height="801.4" filterUnits="userSpaceOnUse" color-interpolation-filters="sRGB">
<feFlood flood-opacity="0" result="BackgroundImageFix"/>
<feColorMatrix in="SourceAlpha" type="matrix" values="0 0 0 0 0 0 0 0 0 0 0 0 0 0 0 0 0 0 127 0" result="hardAlpha"/>
<feMorphology radius="23" operator="dilate" in="SourceAlpha" result="effect1_dropShadow_4014_114"/>
<feOffset/>
<feGaussianBlur stdDeviation="106.85"/>
<feComposite in2="hardAlpha" operator="out"/>
<feColorMatrix type="matrix" values="0 0 0 0 0.337255 0 0 0 0 0.486275 0 0 0 0 0.964706 0 0 0 0.22 0"/>
<feBlend mode="normal" in2="BackgroundImageFix" result="effect1_dropShadow_4014_114"/>
<feBlend mode="normal" in="SourceGraphic" in2="effect1_dropShadow_4014_114" result="shape"/>
</filter>
<linearGradient id="paint0_linear_4014_114" x1="651" y1="652" x2="-272.042" y2="-230.524" gradientUnits="userSpaceOnUse">
<stop stop-color="#6F69F2"/>
<stop offset="0.813974" stop-color="#00B9FF"/>
</linearGradient>
<linearGradient id="paint1_linear_4014_114" x1="228.5" y1="619" x2="512.055" y2="390.288" gradientUnits="userSpaceOnUse">
<stop stop-color="#6F69F2"/>
<stop offset="1" stop-color="#269FFB"/>
</linearGradient>
</defs>
</svg>
