<svg width="914" height="252" viewBox="0 0 914 252" fill="none" xmlns="http://www.w3.org/2000/svg">
<path opacity="0.3" d="M913.5 251C888.87 228.849 819.713 182.004 740.127 171.831C640.645 159.114 570.719 101.276 519.897 50M496.108 50C509.925 92.251 563.222 191.602 665.876 251M483.132 50C475.322 96.6265 471.742 202.104 519.897 251M438.798 50C440.72 102.369 434.184 215.887 392.661 251M418.973 50C405.997 88.2857 353.805 182.086 248.845 251M387.615 50C362.504 84.3204 281.068 157.556 156.211 175.933C127.856 178.804 57.0173 197.838 0.5 251" stroke="white"/>
</svg>
