<svg width="116" height="20" viewBox="0 0 116 20" fill="none" xmlns="http://www.w3.org/2000/svg">
<path d="M107.563 17.5107C102.902 17.5107 99.127 17.1575 99.127 16.7063C99.127 16.255 102.902 15.9019 107.563 15.9019C112.224 15.9019 116 16.255 116 16.7063C116 17.1575 112.224 17.5107 107.563 17.5107Z" fill="#E8E8E3"/>
<path d="M113.995 15.6073C112.03 17.6477 108.621 17.4123 108.621 17.4123C108.621 17.4123 108.409 13.9004 110.374 11.86C112.338 9.81956 115.747 10.055 115.747 10.055C115.747 10.055 115.959 13.5669 113.995 15.6073ZM101.109 15.6073C103.074 17.6477 106.483 17.4123 106.483 17.4123C106.483 17.4123 106.695 13.9004 104.73 11.86C102.765 9.81956 99.3563 10.055 99.3563 10.055C99.3563 10.055 99.1444 13.5669 101.109 15.6073ZM103.208 7.21017V5.91528H111.837V7.21017C111.837 9.58413 109.892 11.5068 107.523 11.5068V10.6828C109.468 10.6828 111.028 9.11326 111.048 7.21017V6.7393H104.017V7.21017C104.017 9.11326 105.578 10.6828 107.542 10.6828V11.5068C105.154 11.5068 103.208 9.60375 103.208 7.21017Z" fill="#7BB546"/>
<path d="M106.773 17.3924H108.411V8.58325H106.773V17.3924Z" fill="#7BB546"/>
<path d="M110.336 3.42351C110.336 1.87357 109.065 0.61792 107.504 0.61792C105.944 0.61792 104.673 1.87357 104.673 3.42351C104.673 4.77725 104.673 4.16905 104.673 4.44372H110.336V3.42351ZM104.615 7.07273C104.615 8.62267 105.886 9.89794 107.447 9.89794C109.007 9.89794 110.278 8.64228 110.278 7.07273C110.278 5.71898 110.278 5.30697 110.278 5.0323H104.634V7.07273" fill="#647E62"/>
<path d="M27.2449 8.54422H23.046V6.58227H30.6541L26.0507 14.332H30.5385V16.2939H22.6415L27.2449 8.54422ZM35.8738 8.54422H31.6749V6.58227H39.283L34.6796 14.332H39.1674V16.2939H31.2704L35.8738 8.54422ZM79.3266 6.56265H81.3683V12.0365C81.3683 13.4687 82.3891 14.5085 83.6603 14.5085C84.9316 14.5085 85.9524 13.4687 85.9524 12.0365V6.56265H87.9748V12.2131C87.9748 14.9598 85.8946 16.6078 83.6603 16.6078C81.4068 16.6078 79.3459 14.9794 79.3459 12.2131V6.56265M89.7083 6.50379H90.8639V3.91402L92.8863 3.32544V6.50379H94.5043V8.48536H92.8863V12.3504C92.8863 13.4099 93.1175 13.8807 93.7146 14.2535L94.8124 14.9009L93.9072 16.549C91.827 15.5288 90.8447 14.7636 90.8447 12.7428V8.48536H89.689V6.50379M72.3156 14.5674C74.0876 14.5674 75.3781 13.1548 75.3781 11.4087C75.3781 9.66253 74.0876 8.24992 72.3156 8.24992C70.5436 8.24992 69.2531 9.66253 69.2531 11.4087C69.2531 13.1548 70.5243 14.5674 72.3156 14.5674ZM72.3156 6.24874C75.6285 6.24874 77.5353 8.81889 77.5353 11.389C77.5353 13.9788 75.6285 16.5293 72.3156 16.5293C69.0027 16.5293 67.0959 13.9592 67.0959 11.389C67.0959 8.81889 69.0027 6.24874 72.3156 6.24874ZM5.42219 8.21069C3.72722 8.21069 2.47526 9.56443 2.47526 11.3694C2.47526 13.1744 3.72722 14.5282 5.42219 14.5282C7.11716 14.5282 8.36912 13.1744 8.36912 11.3694C8.36912 9.56443 7.11716 8.21069 5.42219 8.21069ZM0.433594 3.58049H2.456V7.68096H2.49452C2.97604 6.87656 4.24727 6.22912 5.57628 6.22912C8.04168 6.22912 10.5071 8.11259 10.5071 11.3694C10.5071 14.6263 8.04168 16.5097 5.57628 16.5097C4.24727 16.5097 2.97604 15.8623 2.49452 15.0579H2.456V16.2547H0.433594V3.58049ZM12.3754 6.56265H14.3978V12.0365C14.3978 13.4687 15.4186 14.5085 16.6899 14.5085C17.9611 14.5085 18.9819 13.4687 18.9819 12.0365V6.56265H21.0236V12.2131C21.0236 14.9598 18.9434 16.6078 16.7091 16.6078C14.4556 16.6078 12.3947 14.9794 12.3947 12.2131V6.56265M41.4402 13.4295C42.1722 14.2339 43.3471 14.8617 44.4064 14.8617C45.5814 14.8617 46.2747 14.175 46.2747 13.6257C46.2747 12.9782 45.7932 12.6447 45.042 12.4877L43.8864 12.2719C41.2284 11.7618 40.4965 10.8789 40.4965 9.48595C40.4965 7.83792 41.8447 6.3076 44.2138 6.3076C45.5236 6.3076 46.6792 6.7196 47.9697 7.66134L46.8141 9.1328C45.8125 8.26954 44.9457 8.05373 44.2716 8.05373C43.3856 8.05373 42.5381 8.50498 42.5381 9.28976C42.5381 9.87834 42.9811 10.1726 43.7708 10.31L45.8125 10.722C47.4882 11.0359 48.3164 11.8795 48.3164 13.3314C48.3164 14.7636 47.18 16.6078 44.3101 16.6078C42.7115 16.6078 41.3439 16.0192 40.0534 14.9009L41.4402 13.4295ZM54.9229 8.28917C53.3243 8.28917 51.9567 9.70177 51.9567 11.4479C51.9567 13.194 53.3243 14.6066 54.9229 14.6066C56.5601 14.6066 57.9276 13.194 57.9276 11.4479C57.9276 9.70177 56.5601 8.28917 54.9229 8.28917ZM52.0338 7.75944H52.0723C52.8042 6.83732 53.8828 6.3076 55.1733 6.3076C58.2743 6.3076 60.0849 8.93661 60.0849 11.4479C60.0849 13.8415 58.1588 16.5882 55.077 16.5882C53.671 16.5882 52.5924 15.9604 52.0723 15.1364H52.0338V19.6881H50.0114V6.56265H52.0338V7.75944ZM61.9917 6.50379H63.9178V7.58286H63.9563C64.2838 6.77846 64.9964 6.24874 65.8247 6.24874C66.2677 6.24874 66.6721 6.36646 66.9418 6.54303L66.2099 8.6227C66.0173 8.46574 65.632 8.34802 65.4394 8.34802C64.6883 8.34802 64.0334 8.93661 64.0334 9.81948V16.2939H61.9917V6.50379ZM72.3156 14.5674C74.0876 14.5674 75.3781 13.1548 75.3781 11.4087C75.3781 9.66253 74.0876 8.24992 72.3156 8.24992C70.5436 8.24992 69.2531 9.66253 69.2531 11.4087C69.2531 13.1548 70.5243 14.5674 72.3156 14.5674ZM72.3156 6.24874C75.6285 6.24874 77.5353 8.81889 77.5353 11.389C77.5353 13.9788 75.6285 16.5293 72.3156 16.5293C69.0027 16.5293 67.0959 13.9592 67.0959 11.389C67.0959 8.81889 69.0027 6.24874 72.3156 6.24874Z" fill="#4D4E4C"/>
</svg>
