<svg width="10" height="6" viewBox="0 0 10 6" fill="none" xmlns="http://www.w3.org/2000/svg">
<path d="M9.70742 0.731596C9.61455 0.63867 9.50428 0.564953 9.38292 0.514658C9.26155 0.464364 9.13146 0.438477 9.00008 0.438477C8.86871 0.438477 8.73862 0.464364 8.61725 0.514658C8.49589 0.564953 8.38562 0.63867 8.29275 0.731596L5.23542 3.78826C5.17291 3.85075 5.08814 3.88586 4.99975 3.88586C4.91136 3.88586 4.82659 3.85075 4.76408 3.78826L1.70742 0.731596C1.51991 0.544 1.26556 0.438574 1.00032 0.438512C0.735081 0.438449 0.480681 0.543755 0.293085 0.731263C0.105488 0.918771 6.25419e-05 1.17312 2.78174e-08 1.43836C-6.24863e-05 1.7036 0.105243 1.958 0.292751 2.1456L3.35008 5.20293C3.56676 5.41962 3.82399 5.59152 4.1071 5.70879C4.39021 5.82607 4.69365 5.88643 5.00008 5.88643C5.30652 5.88643 5.60996 5.82607 5.89307 5.70879C6.17618 5.59152 6.43341 5.41962 6.65008 5.20293L9.70742 2.1456C9.89489 1.95807 10.0002 1.70376 10.0002 1.4386C10.0002 1.17343 9.89489 0.919124 9.70742 0.731596Z" fill="black"/>
</svg>
