<svg width="204" height="80" viewBox="0 0 204 80" fill="none" xmlns="http://www.w3.org/2000/svg">
<path d="M41.7994 17.8712V6.43125H43.1914V16.7352H48.4234V17.8712H41.7994ZM50.2979 17.8712V9.50325H51.6259V17.8712H50.2979ZM50.9379 7.75925C50.4579 7.75925 50.0579 7.35925 50.0579 6.87925C50.0579 6.39925 50.4579 5.99925 50.9379 5.99925C51.4179 5.99925 51.8179 6.39925 51.8179 6.87925C51.8179 7.35925 51.4179 7.75925 50.9379 7.75925ZM54.344 17.8712V5.50325H55.672V13.3592L59.144 9.50325H60.696L57.112 13.3912L61 17.8712H59.384L55.672 13.5352V17.8712H54.344ZM65.7055 18.0152C63.3375 18.0152 61.6575 16.3512 61.6575 13.7752V13.6472C61.6575 11.1192 63.2735 9.35925 65.5775 9.35925C67.5135 9.35925 69.3375 10.5272 69.3375 13.5192V13.9512H63.0335C63.0975 15.8552 64.0095 16.9112 65.7215 16.9112C67.0175 16.9112 67.7695 16.4312 67.9455 15.4552H69.2735C68.9855 17.1352 67.5935 18.0152 65.7055 18.0152ZM63.0815 12.8792H67.9775C67.8495 11.1512 66.9535 10.4632 65.5775 10.4632C64.2175 10.4632 63.3055 11.3912 63.0815 12.8792ZM71.4073 17.8712V5.50325H72.7513V17.8712H71.4073ZM75.501 17.8712V9.50325H76.829V17.8712H75.501ZM76.141 7.75925C75.661 7.75925 75.261 7.35925 75.261 6.87925C75.261 6.39925 75.661 5.99925 76.141 5.99925C76.621 5.99925 77.021 6.39925 77.021 6.87925C77.021 7.35925 76.621 7.75925 76.141 7.75925ZM79.5471 17.8712V5.50325H80.8751V10.8312C81.2591 10.0472 82.1871 9.35925 83.5631 9.35925C85.2911 9.35925 86.5071 10.3032 86.5071 12.7352V17.8712H85.1791V12.6392C85.1791 11.1672 84.5551 10.5112 83.2111 10.5112C81.9791 10.5112 80.8751 11.2952 80.8751 12.7992V17.8712H79.5471ZM92.5976 16.9112C94.2776 16.9112 95.3336 15.6472 95.3336 13.7592V13.6472C95.3336 11.7112 94.2616 10.4632 92.5976 10.4632C90.9176 10.4632 89.8616 11.7112 89.8616 13.6312V13.7592C89.8616 15.6632 90.9016 16.9112 92.5976 16.9112ZM92.5816 18.0152C90.1976 18.0152 88.4856 16.2072 88.4856 13.7592V13.6312C88.4856 11.1192 90.2296 9.35925 92.5976 9.35925C94.9656 9.35925 96.7096 11.1032 96.7096 13.6152V13.7432C96.7096 16.2712 94.9656 18.0152 92.5816 18.0152ZM102.254 16.9112C103.934 16.9112 104.99 15.6472 104.99 13.7592V13.6472C104.99 11.7112 103.918 10.4632 102.254 10.4632C100.574 10.4632 99.5179 11.7112 99.5179 13.6312V13.7592C99.5179 15.6632 100.558 16.9112 102.254 16.9112ZM102.238 18.0152C99.8539 18.0152 98.1419 16.2072 98.1419 13.7592V13.6312C98.1419 11.1192 99.8859 9.35925 102.254 9.35925C104.622 9.35925 106.366 11.1032 106.366 13.6152V13.7432C106.366 16.2712 104.622 18.0152 102.238 18.0152ZM111.574 18.0152C109.382 18.0152 107.798 16.4632 107.798 13.8552V13.7272C107.798 11.1672 109.398 9.35925 111.702 9.35925C113.094 9.35925 113.958 10.0312 114.438 10.8472V5.50325H115.766V17.8712H114.438V16.4312C113.958 17.2472 112.79 18.0152 111.574 18.0152ZM111.718 16.9112C113.27 16.9112 114.486 15.8872 114.486 13.7432V13.6152C114.486 11.4712 113.462 10.4632 111.83 10.4632C110.166 10.4632 109.174 11.6312 109.174 13.6632V13.7912C109.174 15.9032 110.31 16.9112 111.718 16.9112ZM126.176 16.9112C127.856 16.9112 128.912 15.6472 128.912 13.7592V13.6472C128.912 11.7112 127.84 10.4632 126.176 10.4632C124.496 10.4632 123.44 11.7112 123.44 13.6312V13.7592C123.44 15.6632 124.48 16.9112 126.176 16.9112ZM126.16 18.0152C123.776 18.0152 122.064 16.2072 122.064 13.7592V13.6312C122.064 11.1192 123.808 9.35925 126.176 9.35925C128.544 9.35925 130.288 11.1032 130.288 13.6152V13.7432C130.288 16.2712 128.544 18.0152 126.16 18.0152ZM132.632 17.8712V10.6232H131.432V9.50325H132.632V8.14325C132.632 6.44725 133.464 5.45525 135.128 5.45525C135.56 5.45525 135.784 5.50325 136.12 5.61525V6.73525C135.88 6.63925 135.544 6.55925 135.176 6.55925C134.312 6.55925 133.96 7.15125 133.96 7.99925V9.50325H136.008V10.6232H133.96V17.8712H132.632ZM145.902 18.0152C142.846 18.0152 141.742 16.3352 141.534 14.3832H142.878C143.054 15.7432 143.598 16.8952 145.902 16.8952C147.374 16.8952 148.51 16.0312 148.51 14.7352C148.51 13.4392 147.918 12.8952 145.742 12.5432C143.342 12.1752 141.918 11.4232 141.918 9.39125C141.918 7.63125 143.438 6.28725 145.598 6.28725C147.886 6.28725 149.31 7.40725 149.534 9.43925H148.286C148.014 7.99925 147.182 7.40725 145.598 7.40725C144.03 7.40725 143.214 8.19125 143.214 9.26325C143.214 10.3832 143.63 10.9592 145.966 11.3112C148.51 11.7112 149.854 12.4792 149.854 14.6392C149.854 16.5592 148.174 18.0152 145.902 18.0152ZM154.895 18.0152C153.231 18.0152 151.983 17.1032 151.983 14.7992V9.50325H153.311V14.7352C153.311 16.2072 153.935 16.8632 155.247 16.8632C156.431 16.8632 157.551 16.0792 157.551 14.5752V9.50325H158.879V17.8712H157.551V16.5432C157.167 17.3272 156.239 18.0152 154.895 18.0152ZM165.035 18.0152C162.699 18.0152 160.939 16.3672 160.939 13.7752V13.6472C160.939 11.0872 162.763 9.35925 165.003 9.35925C166.747 9.35925 168.379 10.1592 168.635 12.2872H167.323C167.115 10.9592 166.155 10.4632 165.003 10.4632C163.483 10.4632 162.315 11.6792 162.315 13.6472V13.7752C162.315 15.8232 163.435 16.9112 165.051 16.9112C166.235 16.9112 167.307 16.2232 167.451 14.8632H168.683C168.507 16.6712 167.051 18.0152 165.035 18.0152ZM174.16 18.0152C171.824 18.0152 170.064 16.3672 170.064 13.7752V13.6472C170.064 11.0872 171.888 9.35925 174.128 9.35925C175.872 9.35925 177.504 10.1592 177.76 12.2872H176.448C176.24 10.9592 175.28 10.4632 174.128 10.4632C172.608 10.4632 171.44 11.6792 171.44 13.6472V13.7752C171.44 15.8232 172.56 16.9112 174.176 16.9112C175.36 16.9112 176.432 16.2232 176.576 14.8632H177.808C177.632 16.6712 176.176 18.0152 174.16 18.0152ZM183.237 18.0152C180.869 18.0152 179.189 16.3512 179.189 13.7752V13.6472C179.189 11.1192 180.805 9.35925 183.109 9.35925C185.045 9.35925 186.869 10.5272 186.869 13.5192V13.9512H180.565C180.629 15.8552 181.541 16.9112 183.253 16.9112C184.549 16.9112 185.301 16.4312 185.477 15.4552H186.805C186.517 17.1352 185.125 18.0152 183.237 18.0152ZM180.613 12.8792H185.509C185.381 11.1512 184.485 10.4632 183.109 10.4632C181.749 10.4632 180.837 11.3912 180.613 12.8792ZM191.577 18.0152C189.577 18.0152 188.377 17.0072 188.297 15.2952H189.593C189.689 16.2872 190.217 16.9112 191.561 16.9112C192.825 16.9112 193.385 16.4792 193.385 15.5832C193.385 14.7032 192.729 14.4152 191.433 14.1752C189.257 13.7752 188.521 13.1672 188.521 11.7112C188.521 10.1592 190.041 9.35925 191.353 9.35925C192.857 9.35925 194.153 9.96725 194.377 11.7752H193.097C192.905 10.8632 192.393 10.4632 191.337 10.4632C190.377 10.4632 189.753 10.9432 189.753 11.6632C189.753 12.4152 190.169 12.7192 191.705 12.9912C193.433 13.3112 194.649 13.6952 194.649 15.4712C194.649 16.9912 193.609 18.0152 191.577 18.0152ZM199.264 18.0152C197.264 18.0152 196.064 17.0072 195.984 15.2952H197.28C197.376 16.2872 197.904 16.9112 199.248 16.9112C200.512 16.9112 201.072 16.4792 201.072 15.5832C201.072 14.7032 200.416 14.4152 199.12 14.1752C196.944 13.7752 196.208 13.1672 196.208 11.7112C196.208 10.1592 197.728 9.35925 199.04 9.35925C200.544 9.35925 201.84 9.96725 202.064 11.7752H200.784C200.592 10.8632 200.08 10.4632 199.024 10.4632C198.064 10.4632 197.44 10.9432 197.44 11.6632C197.44 12.4152 197.856 12.7192 199.392 12.9912C201.12 13.3112 202.336 13.6952 202.336 15.4712C202.336 16.9912 201.296 18.0152 199.264 18.0152Z" fill="#010101"/>
<path d="M26.0208 14.8712C26.0208 16.344 27.2147 17.5379 28.6875 17.5379C30.1603 17.5379 31.3542 16.344 31.3542 14.8712C31.3542 13.3985 30.1603 12.2046 28.6875 12.2046C27.2147 12.2046 26.0208 13.3985 26.0208 14.8712ZM1.1875 79.3712H1.6875V39.7803H1.1875H0.6875V79.3712H1.1875ZM1.87243 38.2735L2.2012 38.6502L29.0163 15.2479L28.6875 14.8712L28.3587 14.4945L1.54366 37.8968L1.87243 38.2735ZM1.1875 39.7803H1.6875C1.6875 39.3471 1.8748 38.935 2.2012 38.6502L1.87243 38.2735L1.54366 37.8968C0.999669 38.3715 0.6875 39.0583 0.6875 39.7803H1.1875Z" fill="#00B9FF"/>
</svg>
