<svg width="22" height="25" viewBox="0 0 22 25" fill="none" xmlns="http://www.w3.org/2000/svg">
<g clip-path="url(#clip0_967_5152)">
<path d="M21.7166 19.2393L12.6925 2.9131C12.337 2.26992 11.6885 1.87036 11 1.87036C10.3115 1.87036 9.66296 2.26992 9.30739 2.91314L0.283398 19.2393C-0.0840279 19.9041 -0.094899 20.7369 0.254995 21.4129C0.604976 22.0888 1.26437 22.5087 1.97594 22.5087H20.024C20.7356 22.5087 21.395 22.0888 21.745 21.4128C22.0949 20.7368 22.084 19.904 21.7166 19.2393Z" fill="url(#paint0_linear_967_5152)"/>
<path d="M11.0091 8.29907C10.4643 8.29907 10.0391 8.61801 10.0391 9.18342C10.0391 10.9085 10.2251 13.3874 10.2251 15.1126C10.2251 15.562 10.5839 15.7504 11.0092 15.7504C11.3281 15.7504 11.7799 15.562 11.7799 15.1126C11.7799 13.3875 11.9659 10.9086 11.9659 9.18342C11.9659 8.61806 11.5274 8.29907 11.0091 8.29907Z" fill="white"/>
<path d="M11.0213 16.7507C10.4366 16.7507 9.99805 17.2581 9.99805 17.867C9.99805 18.4614 10.4366 18.9833 11.0213 18.9833C11.5661 18.9833 12.0313 18.4614 12.0313 17.867C12.0313 17.2581 11.5661 16.7507 11.0213 16.7507Z" fill="white"/>
</g>
<defs>
<linearGradient id="paint0_linear_967_5152" x1="22" y1="22.5087" x2="-20.2595" y2="-16.7253" gradientUnits="userSpaceOnUse">
<stop stop-color="#6F69F2"/>
<stop offset="0.813974" stop-color="#00B9FF"/>
</linearGradient>
<clipPath id="clip0_967_5152">
<rect width="22" height="24" fill="white" transform="translate(0 0.189453)"/>
</clipPath>
</defs>
</svg>
